SplineFontDB: 3.2
FontName: ATM314-Regular
FullName: ATM314-Regular
FamilyName: ATM 314
Weight: Book
Version: 1.001
ItalicAngle: -11
UnderlinePosition: -271
UnderlineWidth: 102
Ascent: 1600
Descent: 400
InvalidEm: 0
sfntRevision: 0x00010042
LayerCount: 2
Layer: 0 1 "Back" 1
Layer: 1 1 "Fore" 0
XUID: [1021 192 2086997156 9878]
StyleMap: 0x0040
FSType: 8
OS2Version: 3
OS2_WeightWidthSlopeOnly: 0
OS2_UseTypoMetrics: 0
CreationTime: 1537421134
ModificationTime: 1545942800
PfmFamily: 17
TTFWeight: 400
TTFWidth: 5
LineGap: 0
VLineGap: 0
Panose: 2 0 5 5 0 0 0 2 0 2
OS2TypoAscent: 2000
OS2TypoAOffset: 0
OS2TypoDescent: -1320
OS2TypoDOffset: 0
OS2TypoLinegap: 0
OS2WinAscent: 2000
OS2WinAOffset: 0
OS2WinDescent: 744
OS2WinDOffset: 0
HheadAscent: 2000
HheadAOffset: 0
HheadDescent: -1320
HheadDOffset: 0
OS2SubXSize: 1400
OS2SubYSize: 1300
OS2SubXOff: 0
OS2SubYOff: 0
OS2SupXSize: 1400
OS2SupYSize: 1300
OS2SupXOff: 0
OS2SupYOff: 0
OS2StrikeYSize: 100
OS2StrikeYPos: 518
OS2CapHeight: 1586
OS2XHeight: -200
OS2Vendor: '    '
OS2CodePages: 00000001.00000000
OS2UnicodeRanges: 00100003.00000000.00000000.00000000
Lookup: 4 0 0 "'akhn' Akhand in Tamil2 lookup 0" { "'akhn' Akhand in Tamil2 lookup 0 subtable"  } ['akhn' ('tml2' <'dflt' > ) ]
Lookup: 4 0 0 "'akhn' Akhand in Tamil lookup 1" { "'akhn' Akhand in Tamil lookup 1 subtable"  } ['akhn' ('taml' <'dflt' > ) ]
Lookup: 4 0 0 "'half' Half Forms in Tamil lookup 2" { "'half' Half Forms in Tamil lookup 2 subtable"  } ['half' ('taml' <'dflt' > ) ]
Lookup: 4 0 0 "'haln' Halant Forms in Tamil2 lookup 3" { "'haln' Halant Forms in Tamil2 lookup 3 subtable"  } ['haln' ('tml2' <'dflt' > ) ]
Lookup: 4 0 0 "'haln' Halant Forms in Tamil lookup 4" { "'haln' Halant Forms in Tamil lookup 4 subtable"  } ['haln' ('taml' <'dflt' > ) ]
Lookup: 4 0 0 "'abvs' Above Base Substitutions lookup 5" { "'abvs' Above Base Substitutions lookup 5 subtable"  } ['abvs' ('taml' <'dflt' > 'tml2' <'dflt' > ) ]

StartChar: exclam
Encoding: 33 33 4
Width: 390
GlyphClass: 2
Flags: W
LayerCount: 2
Fore
SplineSet
274 246 m 2,0,1
 274 226 274 226 239 210 c 128,-1,2
 204 194 204 194 186 194 c 0,3,4
 132 194 132 194 132 240 c 2,5,-1
 132 782 l 1,6,7
 116 794 116 794 96 770 c 1,8,9
 92 778 92 778 74 806 c 0,10,11
 62 822 62 822 62 838 c 0,12,13
 66 910 66 910 84 1022 c 1,14,15
 160 1054 160 1054 194 1054 c 0,16,17
 274 1054 274 1054 274 1004 c 2,18,-1
 274 246 l 2,0,1
326 14 m 0,19,20
 326 -40 326 -40 310 -78 c 1,21,22
 220 -110 220 -110 108 -118 c 1,23,24
 64 -36 64 -36 64 30 c 0,25,26
 64 66 64 66 72 122 c 1,27,28
 208 168 208 168 276 164 c 1,29,30
 326 124 326 124 326 14 c 0,19,20
EndSplineSet
EndChar

StartChar: quotedbl
Encoding: 34 34 5
Width: 606
GlyphClass: 2
Flags: W
LayerCount: 2
Fore
SplineSet
109 647 m 1,0,-1
 63 912 l 1,1,-1
 63 1140 l 1,2,-1
 257 1140 l 1,3,-1
 257 912 l 1,4,-1
 214 647 l 1,5,-1
 109 647 l 1,0,-1
423 647 m 1,6,-1
 378 912 l 1,7,-1
 378 1140 l 1,8,-1
 572 1140 l 1,9,-1
 572 912 l 1,10,-1
 527 647 l 1,11,-1
 423 647 l 1,6,-1
EndSplineSet
EndChar

StartChar: numbersign
Encoding: 35 35 6
Width: 1203
GlyphClass: 2
Flags: W
LayerCount: 2
Fore
SplineSet
179 22 m 1,0,-1
 264 356 l 1,1,-1
 103 356 l 1,2,-1
 103 473 l 1,3,-1
 288 473 l 1,4,-1
 358 761 l 1,5,-1
 103 761 l 1,6,-1
 103 876 l 1,7,-1
 386 876 l 1,8,-1
 471 1218 l 1,9,-1
 609 1218 l 1,10,-1
 526 876 l 1,11,-1
 817 876 l 1,12,-1
 903 1218 l 1,13,-1
 1041 1218 l 1,14,-1
 962 876 l 1,15,-1
 1124 876 l 1,16,-1
 1124 761 l 1,17,-1
 932 761 l 1,18,-1
 861 473 l 1,19,-1
 1124 473 l 1,20,-1
 1124 356 l 1,21,-1
 832 356 l 1,22,-1
 755 22 l 1,23,-1
 611 22 l 1,24,-1
 688 356 l 1,25,-1
 401 356 l 1,26,-1
 322 22 l 1,27,-1
 179 22 l 1,0,-1
435 473 m 1,28,-1
 724 473 l 1,29,-1
 792 761 l 1,30,-1
 501 761 l 1,31,-1
 435 473 l 1,28,-1
EndSplineSet
EndChar

StartChar: dollar
Encoding: 36 36 7
Width: 908
GlyphClass: 2
Flags: W
LayerCount: 2
Fore
SplineSet
766 302 m 0,0,1
 744 187 744 187 654 120 c 0,2,3
 572 60 572 60 456 60 c 1,4,-1
 456 -52 l 1,5,-1
 383 -52 l 1,6,-1
 383 60 l 1,7,8
 372 60 372 60 357 60 c 0,9,10
 336 65 336 65 330 71 c 2,11,-1
 264 92 l 2,12,13
 242 95 242 95 229.5 102.5 c 128,-1,14
 217 110 217 110 188 131 c 2,15,-1
 146 156 l 1,16,-1
 180 232 l 1,17,-1
 217 204 l 2,18,19
 259 169 259 169 284 156 c 2,20,-1
 336 137 l 1,21,-1
 383 134 l 1,22,-1
 383 518 l 1,23,24
 230 560 230 560 169 630 c 0,25,26
 99 710 99 710 99 838 c 2,27,-1
 99 872 l 1,28,-1
 104 912 l 2,29,30
 119 1045 119 1045 217 1126 c 0,31,32
 299 1192 299 1192 383 1192 c 1,33,-1
 383 1289 l 1,34,-1
 456 1289 l 1,35,-1
 456 1197 l 1,36,-1
 510 1191 l 2,37,38
 531 1191 531 1191 541.5 1190 c 128,-1,39
 552 1189 552 1189 578 1176 c 1,40,41
 688 1140 688 1140 688 1126 c 1,42,-1
 659 1037 l 1,43,-1
 646 1048 l 2,44,45
 615 1079 615 1079 563 1101 c 0,46,47
 537 1112 537 1112 517.5 1116.5 c 128,-1,48
 498 1121 498 1121 491 1121 c 0,49,50
 466 1121 466 1121 456 1126 c 1,51,-1
 456 739 l 1,52,53
 561 717 561 717 615 686 c 0,54,55
 773 594 773 594 773 404 c 2,56,-1
 772 355 l 2,57,58
 772 330 772 330 766 302 c 0,0,1
383 770 m 1,59,-1
 383 1126 l 1,60,61
 330 1121 330 1121 281 1080 c 0,62,63
 219 1030 219 1030 219 964 c 0,64,65
 219 872 219 872 283 819 c 0,66,67
 297 807 297 807 322.5 796 c 128,-1,68
 348 785 348 785 383 770 c 1,59,-1
653 317 m 0,69,70
 653 404 653 404 573 448 c 1,71,-1
 456 493 l 1,72,-1
 456 134 l 1,73,74
 547 134 547 134 600 185 c 128,-1,75
 653 236 653 236 653 317 c 0,69,70
EndSplineSet
EndChar

StartChar: percent
Encoding: 37 37 8
Width: 890
GlyphClass: 2
Flags: W
LayerCount: 2
Fore
SplineSet
450 814 m 0,0,1
 450 656 450 656 422 620 c 0,2,3
 384 572 384 572 224 572 c 0,4,5
 132 572 132 572 132 646 c 2,6,-1
 132 832 l 2,7,8
 132 910 132 910 170 932 c 0,9,10
 238 970 238 970 380 970 c 0,11,12
 426 970 426 970 440 934 c 0,13,14
 450 906 450 906 450 814 c 0,0,1
872 878 m 2,15,-1
 186 -106 l 2,16,17
 172 -126 172 -126 146 -126 c 0,18,19
 114 -126 114 -126 85 -100 c 128,-1,20
 56 -74 56 -74 56 -40 c 0,21,22
 56 -18 56 -18 70 2 c 2,23,-1
 744 976 l 2,24,25
 754 990 754 990 776 990 c 0,26,27
 812 990 812 990 847 965 c 128,-1,28
 882 940 882 940 882 908 c 0,29,30
 882 892 882 892 872 878 c 2,15,-1
824 244 m 0,31,32
 824 50 824 50 798 20 c 0,33,34
 760 -26 760 -26 626 -26 c 0,35,36
 564 -26 564 -26 540 -14 c 0,37,38
 506 4 506 4 506 56 c 2,39,-1
 506 214 l 2,40,41
 506 298 506 298 557 331 c 128,-1,42
 608 364 608 364 750 364 c 0,43,44
 824 364 824 364 824 244 c 0,31,32
362 768 m 1,45,-1
 362 804 l 1,46,47
 300 802 300 802 228 772 c 1,48,-1
 228 740 l 1,49,50
 292 736 292 736 362 768 c 1,45,-1
734 162 m 1,51,-1
 734 208 l 1,52,53
 664 194 664 194 600 176 c 1,54,-1
 600 136 l 1,55,56
 648 138 648 138 734 162 c 1,51,-1
EndSplineSet
EndChar

StartChar: ampersand
Encoding: 38 38 9
Width: 810
GlyphClass: 2
Flags: W
LayerCount: 2
Fore
SplineSet
722 344 m 1,0,-1
 664 344 l 1,1,-1
 664 202 l 2,2,3
 664 104 664 104 614 58 c 0,4,5
 576 22 576 22 476 -2 c 0,6,7
 338 -36 338 -36 224 -36 c 0,8,9
 64 -36 64 -36 64 100 c 2,10,-1
 64 382 l 2,11,12
 64 412 64 412 83 447 c 128,-1,13
 102 482 102 482 124 488 c 1,14,15
 92 526 92 526 92 592 c 2,16,-1
 92 794 l 2,17,18
 92 890 92 890 172 934 c 0,19,20
 266 986 266 986 494 986 c 0,21,22
 584 986 584 986 612 918 c 0,23,24
 628 878 628 878 628 770 c 0,25,26
 628 664 628 664 488 666 c 1,27,28
 472 676 472 676 464 716 c 128,-1,29
 456 756 456 756 444 756 c 0,30,31
 374 756 374 756 308 738 c 0,32,33
 234 718 234 718 234 690 c 2,34,-1
 234 632 l 2,35,36
 234 600 234 600 292 600 c 0,37,38
 320 600 320 600 356 610 c 1,39,40
 384 584 384 584 384 524 c 0,41,42
 384 448 384 448 366 406 c 1,43,44
 224 400 224 400 224 332 c 2,45,-1
 224 216 l 2,46,47
 224 200 224 200 274 200 c 0,48,49
 346 200 346 200 428 224 c 0,50,51
 518 250 518 250 518 280 c 2,52,-1
 518 316 l 1,53,54
 500 330 500 330 470 316 c 1,55,56
 428 334 428 334 428 434 c 0,57,58
 428 496 428 496 444 548 c 1,59,60
 648 596 648 596 712 592 c 1,61,62
 746 570 746 570 746 466 c 0,63,64
 746 386 746 386 722 344 c 1,0,-1
EndSplineSet
EndChar

StartChar: quotesingle
Encoding: 39 39 10
Width: 368
GlyphClass: 2
Flags: W
LayerCount: 2
Fore
SplineSet
137 647 m 1,0,-1
 91 912 l 1,1,-1
 91 1140 l 1,2,-1
 285 1140 l 1,3,-1
 285 912 l 1,4,-1
 242 647 l 1,5,-1
 137 647 l 1,0,-1
EndSplineSet
EndChar

StartChar: parenleft
Encoding: 40 40 11
Width: 434
GlyphClass: 2
Flags: W
LayerCount: 2
Fore
SplineSet
318 -524 m 1,0,-1
 160 -524 l 2,1,2
 64 -524 64 -524 64 -398 c 2,3,-1
 64 1032 l 2,4,5
 64 1240 64 1240 300 1246 c 1,6,7
 330 1062 330 1062 306 978 c 1,8,9
 198 964 198 964 198 874 c 2,10,-1
 198 -168 l 2,11,12
 198 -256 198 -256 262 -256 c 0,13,14
 284 -256 284 -256 318 -248 c 1,15,-1
 318 -524 l 1,0,-1
EndSplineSet
EndChar

StartChar: parenright
Encoding: 41 41 12
Width: 434
GlyphClass: 2
Flags: W
LayerCount: 2
Fore
SplineSet
370 -396 m 2,0,1
 370 -440 370 -440 352 -478 c 0,2,3
 328 -524 328 -524 286 -524 c 2,4,-1
 116 -524 l 1,5,-1
 116 -246 l 1,6,7
 150 -258 150 -258 174 -258 c 0,8,9
 236 -258 236 -258 236 -168 c 2,10,-1
 236 880 l 2,11,12
 236 922 236 922 202 949 c 128,-1,13
 168 976 168 976 130 976 c 1,14,15
 104 1054 104 1054 132 1246 c 1,16,17
 260 1242 260 1242 315 1190 c 128,-1,18
 370 1138 370 1138 370 1018 c 2,19,-1
 370 -396 l 2,0,1
EndSplineSet
EndChar

StartChar: asterisk
Encoding: 42 42 13
Width: 705
GlyphClass: 2
Flags: W
LayerCount: 2
Fore
SplineSet
646 1169 m 1,0,-1
 414 1121 l 1,1,-1
 592 981 l 1,2,-1
 451 875 l 1,3,-1
 346 1073 l 1,4,-1
 267 873 l 1,5,-1
 114 954 l 1,6,-1
 280 1125 l 1,7,-1
 48 1154 l 1,8,-1
 99 1307 l 1,9,-1
 300 1207 l 1,10,-1
 261 1434 l 1,11,-1
 432 1434 l 1,12,-1
 390 1212 l 1,13,-1
 594 1317 l 1,14,-1
 646 1169 l 1,0,-1
EndSplineSet
EndChar

StartChar: plus
Encoding: 43 43 14
Width: 804
GlyphClass: 2
Flags: W
LayerCount: 2
Fore
SplineSet
740 466 m 0,0,1
 740 374 740 374 712 338 c 1,2,3
 600 366 600 366 484 326 c 1,4,-1
 484 92 l 1,5,6
 414 44 414 44 354 44 c 0,7,8
 312 44 312 44 312 124 c 0,9,10
 312 150 312 150 318 218 c 0,11,12
 326 280 326 280 324 308 c 1,13,14
 308 304 308 304 208 280 c 0,15,16
 144 264 144 264 108 264 c 0,17,18
 64 264 64 264 64 356 c 0,19,20
 64 444 64 444 114 474 c 0,21,22
 144 490 144 490 326 530 c 1,23,-1
 326 734 l 2,24,25
 326 762 326 762 366 782 c 128,-1,26
 406 802 406 802 448 802 c 0,27,28
 496 802 496 802 496 768 c 2,29,-1
 496 562 l 1,30,31
 524 558 524 558 570 562 c 0,32,33
 630 568 630 568 648 568 c 0,34,35
 740 568 740 568 740 466 c 0,0,1
EndSplineSet
EndChar

StartChar: comma
Encoding: 44 44 15
Width: 422
GlyphClass: 2
Flags: W
LayerCount: 2
Fore
SplineSet
328 62 m 0,0,1
 328 -28 328 -28 322 -42 c 0,2,3
 304 -84 304 -84 226 -144 c 0,4,5
 160 -198 160 -198 134 -206 c 1,6,7
 120 -200 120 -200 94 -180 c 1,8,9
 88 -164 88 -164 74 -130 c 1,10,11
 106 -112 106 -112 130 -92 c 0,12,13
 186 -46 186 -46 196 -6 c 1,14,15
 170 -10 170 -10 150 -10 c 0,16,17
 40 -10 40 -10 40 106 c 0,18,19
 40 180 40 180 56 202 c 0,20,21
 82 236 82 236 172 236 c 0,22,23
 272 236 272 236 296 210 c 0,24,25
 328 174 328 174 328 62 c 0,0,1
EndSplineSet
EndChar

StartChar: hyphen
Encoding: 45 45 16
Width: 830
GlyphClass: 2
Flags: W
LayerCount: 2
Fore
SplineSet
766 436 m 0,0,1
 766 388 766 388 738 354 c 1,2,3
 624 370 624 370 480 370 c 0,4,5
 422 370 422 370 292 350 c 0,6,7
 188 334 188 334 84 318 c 1,8,9
 64 336 64 336 64 392 c 0,10,11
 64 460 64 460 98 518 c 1,12,13
 326 586 326 586 670 586 c 0,14,15
 734 586 734 586 754 542 c 0,16,17
 766 514 766 514 766 436 c 0,0,1
EndSplineSet
EndChar

StartChar: period
Encoding: 46 46 17
Width: 424
GlyphClass: 2
Flags: W
LayerCount: 2
Fore
SplineSet
330 110 m 0,0,1
 330 22 330 22 300 0 c 0,2,3
 250 -30 250 -30 146 -30 c 0,4,5
 104 -30 104 -30 72 22 c 128,-1,6
 40 74 40 74 40 138 c 0,7,8
 40 184 40 184 56 196 c 0,9,10
 126 248 126 248 252 248 c 0,11,12
 330 248 330 248 330 110 c 0,0,1
EndSplineSet
EndChar

StartChar: slash
Encoding: 47 47 18
Width: 728
GlyphClass: 2
Flags: W
LayerCount: 2
Fore
SplineSet
834 1066 m 2,0,-1
 130 -176 l 2,1,2
 126 -182 126 -182 116 -182 c 0,3,4
 88 -182 88 -182 48 -150 c 128,-1,5
 8 -118 8 -118 8 -88 c 0,6,7
 8 -78 8 -78 14 -68 c 2,8,-1
 706 1164 l 2,9,10
 710 1170 710 1170 726 1170 c 0,11,12
 760 1170 760 1170 802 1147 c 128,-1,13
 844 1124 844 1124 844 1094 c 0,14,15
 844 1080 844 1080 834 1066 c 2,0,-1
EndSplineSet
EndChar

StartChar: zero
Encoding: 48 48 19
Width: 657
GlyphClass: 2
Flags: W
LayerCount: 2
Fore
SplineSet
597 135 m 2,0,1
 597 65 597 65 562.5 36.5 c 128,-1,2
 528 8 528 8 422 -15 c 0,3,4
 310 -38 310 -38 194 -38 c 0,5,6
 61 -38 61 -38 61 57 c 2,7,-1
 61 769 l 2,8,9
 61 847 61 847 116 883.5 c 128,-1,10
 171 920 171 920 279.5 952 c 128,-1,11
 388 984 388 984 458 984 c 0,12,13
 597 984 597 984 597 899 c 2,14,-1
 597 135 l 2,0,1
448 283 m 2,15,-1
 448 699 l 2,16,17
 448 730 448 730 407 730 c 0,18,19
 334 730 334 730 262 701 c 0,20,21
 211 680 211 680 211 654 c 2,22,-1
 211 247 l 2,23,24
 211 207 211 207 251 207 c 0,25,26
 277 207 277 207 344.5 222 c 128,-1,27
 412 237 412 237 430 248.5 c 128,-1,28
 448 260 448 260 448 283 c 2,15,-1
EndSplineSet
EndChar

StartChar: one
Encoding: 49 49 20
Width: 483
GlyphClass: 2
Flags: W
LayerCount: 2
Fore
SplineSet
443 97 m 0,0,1
 443 9 443 9 422 -23 c 1,2,3
 289 -36 289 -36 57 -103 c 1,4,5
 30 -57 30 -57 42 131 c 1,6,7
 85 152 85 152 169 179 c 1,8,-1
 169 747 l 1,9,-1
 70 697 l 1,10,11
 47 752 47 752 47 807 c 0,12,13
 47 910 47 910 76 948 c 1,14,15
 188 990 188 990 249 990 c 0,16,17
 308 990 308 990 308 946 c 2,18,-1
 308 213 l 1,19,20
 321 213 321 213 341 215.5 c 128,-1,21
 361 218 361 218 378 218 c 0,22,23
 443 218 443 218 443 97 c 0,0,1
EndSplineSet
EndChar

StartChar: two
Encoding: 50 50 21
Width: 654
GlyphClass: 2
Flags: W
LayerCount: 2
Fore
SplineSet
616 112 m 0,0,1
 616 47 616 47 593 -2 c 1,2,3
 579 4 579 4 545 4 c 0,4,5
 464 4 464 4 296 -29 c 0,6,7
 148 -57 148 -57 91 -76 c 1,8,9
 38 -84 38 -84 38 -46 c 2,10,-1
 38 331 l 2,11,12
 38 437 38 437 139 464 c 2,13,-1
 382 528 l 2,14,15
 429 541 429 541 437 545 c 0,16,17
 462 559 462 559 462 591 c 2,18,-1
 462 737 l 1,19,20
 186 690 186 690 186 631 c 2,21,-1
 186 564 l 2,22,23
 186 547 186 547 154 532 c 128,-1,24
 122 517 122 517 97 517 c 0,25,26
 78 517 78 517 62.5 531 c 128,-1,27
 47 545 47 545 47 564 c 2,28,-1
 47 815 l 2,29,30
 47 876 47 876 211 933 c 0,31,32
 363 986 363 986 492 986 c 0,33,34
 595 986 595 986 595 920 c 2,35,-1
 595 427 l 2,36,37
 595 342 595 342 389 308 c 0,38,39
 270 289 270 289 253 283 c 0,40,41
 190 264 190 264 190 224 c 2,42,-1
 190 171 l 1,43,44
 344 226 344 226 562 247 c 1,45,46
 616 194 616 194 616 112 c 0,0,1
EndSplineSet
EndChar

StartChar: three
Encoding: 51 51 22
Width: 623
GlyphClass: 2
Flags: W
LayerCount: 2
Fore
SplineSet
585 144 m 2,0,1
 585 49 585 49 445 -4 c 0,2,3
 327 -49 327 -49 158 -49 c 0,4,5
 116 -49 116 -49 77 -30 c 128,-1,6
 38 -11 38 -11 38 13 c 2,7,-1
 38 270 l 2,8,9
 38 289 38 289 61.5 306 c 128,-1,10
 85 323 85 323 112 323 c 0,11,12
 171 323 171 323 171 296 c 2,13,-1
 171 194 l 2,14,15
 171 177 171 177 213 177 c 0,16,17
 262 177 262 177 342 197 c 128,-1,18
 422 217 422 217 446 234 c 1,19,-1
 446 359 l 2,20,21
 446 412 446 412 401 407 c 2,22,-1
 285 393 l 1,23,24
 249 412 249 412 249 511 c 0,25,26
 249 574 249 574 264 593 c 1,27,28
 310 593 310 593 374 608 c 0,29,30
 446 627 446 627 446 646 c 2,31,-1
 446 735 l 2,32,33
 446 764 446 764 405 764 c 0,34,35
 363 764 363 764 294 747 c 0,36,37
 220 730 220 730 199 712 c 0,38,39
 158 678 158 678 177 633 c 1,40,41
 131 587 131 587 89 587 c 0,42,43
 38 587 38 587 38 621 c 2,44,-1
 38 777 l 2,45,46
 38 847 38 847 106 889 c 0,47,48
 258 980 258 980 479 980 c 0,49,50
 585 980 585 980 585 880 c 2,51,-1
 585 646 l 2,52,53
 585 566 585 566 522 532 c 1,54,55
 585 496 585 496 585 414 c 2,56,-1
 585 144 l 2,0,1
EndSplineSet
EndChar

StartChar: four
Encoding: 52 52 23
Width: 741
GlyphClass: 2
Flags: W
LayerCount: 2
Fore
SplineSet
722 386 m 0,0,1
 722 285 722 285 700 258.5 c 128,-1,2
 678 232 678 232 581 213 c 1,3,-1
 581 -13 l 2,4,5
 581 -29 581 -29 542 -43 c 128,-1,6
 503 -57 503 -57 471 -57 c 0,7,8
 460 -57 460 -57 445.5 -45.5 c 128,-1,9
 431 -34 431 -34 431 -23 c 2,10,-1
 431 179 l 1,11,12
 306 152 306 152 118 171 c 1,13,14
 93 188 93 188 63.5 253.5 c 128,-1,15
 34 319 34 319 38 361 c 1,16,-1
 346 977 l 1,17,18
 359 978 359 978 372 978 c 0,19,20
 412 978 412 978 445.5 961 c 128,-1,21
 479 944 479 944 479 921 c 0,22,23
 479 901 479 901 386 716 c 0,24,25
 306 562 306 562 228 408 c 1,26,-1
 431 433 l 1,27,-1
 431 646 l 2,28,29
 431 692 431 692 519 692 c 0,30,31
 581 692 581 692 581 657 c 2,32,-1
 581 464 l 1,33,34
 676 492 676 492 690 492 c 0,35,36
 722 492 722 492 722 386 c 0,0,1
EndSplineSet
EndChar

StartChar: five
Encoding: 53 53 24
Width: 631
GlyphClass: 2
Flags: W
LayerCount: 2
Fore
SplineSet
597 887 m 0,0,1
 597 807 597 807 579 779 c 1,2,3
 431 792 431 792 192 686 c 1,4,-1
 192 629 l 1,5,6
 334 707 334 707 450 707 c 0,7,8
 532 707 532 707 562.5 682 c 128,-1,9
 593 657 593 657 593 602 c 2,10,-1
 593 215 l 2,11,12
 593 127 593 127 570 97.5 c 128,-1,13
 547 68 547 68 467 34 c 0,14,15
 300 -38 300 -38 144 -38 c 0,16,17
 103 -38 103 -38 70.5 -11.5 c 128,-1,18
 38 15 38 15 38 57 c 2,19,-1
 38 198 l 1,20,21
 78 186 78 186 141 186 c 0,22,23
 182 186 182 186 313 226 c 0,24,25
 452 268 452 268 452 289 c 2,26,-1
 452 433 l 2,27,28
 452 481 452 481 422 481 c 0,29,30
 272 481 272 481 188 401 c 1,31,-1
 188 372 l 2,32,33
 188 329 188 329 84 329 c 0,34,35
 53 329 53 329 38 346 c 1,36,-1
 38 804 l 2,37,38
 38 874 38 874 237 937 c 0,39,40
 407 988 407 988 526 988 c 0,41,42
 557 988 557 988 577 956.5 c 128,-1,43
 597 925 597 925 597 887 c 0,0,1
EndSplineSet
EndChar

StartChar: six
Encoding: 54 54 25
Width: 631
GlyphClass: 2
Flags: W
LayerCount: 2
Fore
SplineSet
593 258 m 2,0,1
 593 125 593 125 562 91 c 0,2,3
 517 40 517 40 405 3 c 128,-1,4
 293 -34 293 -34 179 -34 c 0,5,6
 38 -34 38 -34 38 42 c 2,7,-1
 38 473 l 2,8,9
 38 800 38 800 65.5 846.5 c 128,-1,10
 93 893 93 893 234.5 938.5 c 128,-1,11
 376 984 376 984 496 984 c 0,12,13
 593 984 593 984 593 885 c 0,14,15
 593 790 593 790 583 764 c 1,16,17
 483 769 483 769 348 731 c 0,18,19
 201 690 201 690 201 644 c 2,20,-1
 201 593 l 1,21,22
 384 669 384 669 492 669 c 0,23,24
 593 669 593 669 593 598 c 2,25,-1
 593 258 l 2,0,1
452 308 m 1,26,27
 471 367 471 367 448 446 c 1,28,29
 296 433 296 433 199 370 c 1,30,31
 186 291 186 291 199 230 c 1,32,33
 323 245 323 245 452 308 c 1,26,27
EndSplineSet
EndChar

StartChar: seven
Encoding: 55 55 26
Width: 654
GlyphClass: 2
Flags: W
LayerCount: 2
Fore
SplineSet
616 815 m 0,0,1
 616 769 616 769 422 319 c 0,2,3
 348 148 348 148 268 -46 c 1,4,5
 253 -53 253 -53 234 -53 c 0,6,7
 198 -53 198 -53 167.5 -30.5 c 128,-1,8
 137 -8 137 -8 137 28 c 0,9,10
 137 49 137 49 211 237 c 0,11,12
 285 433 285 433 348 568 c 0,13,14
 433 756 433 756 433 749 c 1,15,16
 433 771 433 771 376 771 c 0,17,18
 287 771 287 771 180 733 c 0,19,20
 95 703 95 703 53 671 c 1,21,22
 19 722 19 722 19 764 c 0,23,24
 19 792 19 792 31.5 841.5 c 128,-1,25
 44 891 44 891 57 906 c 0,26,27
 133 984 133 984 490 984 c 0,28,29
 616 984 616 984 616 815 c 0,0,1
EndSplineSet
EndChar

StartChar: eight
Encoding: 56 56 27
Width: 631
GlyphClass: 2
Flags: W
LayerCount: 2
Fore
SplineSet
595 196 m 2,0,1
 595 103 595 103 562 66 c 0,2,3
 524 25 524 25 416 -4 c 0,4,5
 298 -36 298 -36 158 -36 c 0,6,7
 40 -36 40 -36 40 63 c 2,8,-1
 40 348 l 2,9,10
 40 441 40 441 97 462 c 1,11,12
 46 513 46 513 46 591 c 2,13,-1
 46 781 l 2,14,15
 46 840 46 840 110 885 c 0,16,17
 160 920 160 920 255 948 c 0,18,19
 374 982 374 982 502 982 c 0,20,21
 536 982 536 982 562 961 c 0,22,23
 595 935 595 935 595 895 c 2,24,-1
 595 652 l 2,25,26
 595 570 595 570 536 530 c 1,27,28
 595 496 595 496 595 446 c 2,29,-1
 595 196 l 2,0,1
458 646 m 2,30,-1
 458 747 l 2,31,32
 458 762 458 762 424 762 c 0,33,34
 346 762 346 762 264 739 c 128,-1,35
 182 716 182 716 182 690 c 2,36,-1
 182 610 l 2,37,38
 182 583 182 583 215 583 c 0,39,40
 268 583 268 583 355 602 c 0,41,42
 458 623 458 623 458 646 c 2,30,-1
454 255 m 2,43,-1
 454 369 l 2,44,45
 454 408 454 408 427 408 c 0,46,47
 357 408 357 408 283 393 c 0,48,49
 173 370 173 370 173 325 c 2,50,-1
 173 230 l 2,51,52
 173 192 173 192 207 192 c 0,53,54
 272 192 272 192 351 207 c 0,55,56
 454 224 454 224 454 255 c 2,43,-1
EndSplineSet
EndChar

StartChar: nine
Encoding: 57 57 28
Width: 635
GlyphClass: 2
Flags: W
LayerCount: 2
Fore
SplineSet
597 253 m 2,0,1
 597 108 597 108 555 66 c 0,2,3
 505 17 505 17 365 -13 c 0,4,5
 253 -36 253 -36 150 -36 c 0,6,7
 80 -36 80 -36 57 8 c 0,8,9
 42 36 42 36 42 103 c 0,10,11
 42 154 42 154 57 186 c 1,12,13
 68 184 68 184 85 184 c 0,14,15
 169 184 169 184 296 220 c 0,16,17
 431 258 431 258 431 289 c 2,18,-1
 431 353 l 1,19,20
 228 275 228 275 173 275 c 0,21,22
 38 275 38 275 38 355 c 2,23,-1
 38 787 l 2,24,25
 38 868 38 868 163.5 923 c 128,-1,26
 289 978 289 978 481 978 c 0,27,28
 597 978 597 978 597 885 c 2,29,-1
 597 253 l 2,0,1
446 583 m 1,30,-1
 446 684 l 2,31,32
 446 722 446 722 418 722 c 0,33,34
 367 722 367 722 270 683 c 128,-1,35
 173 644 173 644 173 627 c 2,36,-1
 173 547 l 2,37,38
 173 498 173 498 198 498 c 0,39,40
 239 498 239 498 330.5 529 c 128,-1,41
 422 560 422 560 446 583 c 1,30,-1
EndSplineSet
EndChar

StartChar: colon
Encoding: 58 58 29
Width: 370
GlyphClass: 2
Flags: W
LayerCount: 2
Fore
SplineSet
330 604 m 0,0,1
 330 516 330 516 300 494 c 0,2,3
 250 464 250 464 146 464 c 0,4,5
 104 464 104 464 72 516 c 128,-1,6
 40 568 40 568 40 632 c 0,7,8
 40 678 40 678 56 690 c 0,9,10
 126 742 126 742 252 742 c 0,11,12
 330 742 330 742 330 604 c 0,0,1
330 134 m 0,13,14
 330 46 330 46 300 24 c 0,15,16
 250 -6 250 -6 146 -6 c 0,17,18
 104 -6 104 -6 72 46 c 128,-1,19
 40 98 40 98 40 162 c 0,20,21
 40 208 40 208 56 220 c 0,22,23
 126 272 126 272 252 272 c 0,24,25
 330 272 330 272 330 134 c 0,13,14
EndSplineSet
EndChar

StartChar: semicolon
Encoding: 59 59 30
Width: 370
GlyphClass: 2
Flags: W
LayerCount: 2
Fore
SplineSet
330 600 m 0,0,1
 330 512 330 512 300 490 c 0,2,3
 250 460 250 460 146 460 c 0,4,5
 104 460 104 460 72 512 c 128,-1,6
 40 564 40 564 40 628 c 0,7,8
 40 674 40 674 56 686 c 0,9,10
 126 738 126 738 252 738 c 0,11,12
 330 738 330 738 330 600 c 0,0,1
328 82 m 0,13,14
 328 -8 328 -8 322 -22 c 0,15,16
 304 -64 304 -64 226 -124 c 0,17,18
 160 -178 160 -178 134 -186 c 1,19,20
 120 -180 120 -180 94 -160 c 1,21,22
 88 -144 88 -144 74 -110 c 1,23,24
 106 -92 106 -92 130 -72 c 0,25,26
 186 -26 186 -26 196 14 c 1,27,28
 170 10 170 10 150 10 c 0,29,30
 40 10 40 10 40 126 c 0,31,32
 40 200 40 200 56 222 c 0,33,34
 82 256 82 256 172 256 c 0,35,36
 272 256 272 256 296 230 c 0,37,38
 328 194 328 194 328 82 c 0,13,14
EndSplineSet
EndChar

StartChar: less
Encoding: 60 60 31
Width: 1240
GlyphClass: 2
Flags: W
LayerCount: 2
Fore
SplineSet
993 0 m 1,0,-1
 4 471 l 1,1,-1
 4 589 l 1,2,-1
 993 1070 l 1,3,-1
 993 859 l 1,4,-1
 261 531 l 1,5,-1
 993 202 l 1,6,-1
 993 0 l 1,0,-1
EndSplineSet
EndChar

StartChar: equal
Encoding: 61 61 32
Width: 830
GlyphClass: 2
Flags: W
LayerCount: 2
Fore
SplineSet
766 608 m 0,0,1
 766 560 766 560 738 526 c 1,2,3
 624 542 624 542 480 542 c 0,4,5
 422 542 422 542 292 522 c 0,6,7
 188 506 188 506 84 490 c 1,8,9
 64 508 64 508 64 564 c 0,10,11
 64 632 64 632 98 690 c 1,12,13
 326 758 326 758 670 758 c 0,14,15
 734 758 734 758 754 714 c 0,16,17
 766 686 766 686 766 608 c 0,0,1
766 290 m 0,18,19
 766 242 766 242 738 208 c 1,20,21
 624 224 624 224 480 224 c 0,22,23
 422 224 422 224 292 204 c 0,24,25
 188 188 188 188 84 172 c 1,26,27
 64 190 64 190 64 246 c 0,28,29
 64 314 64 314 98 372 c 1,30,31
 326 440 326 440 670 440 c 0,32,33
 734 440 734 440 754 396 c 0,34,35
 766 368 766 368 766 290 c 0,18,19
EndSplineSet
EndChar

StartChar: greater
Encoding: 62 62 33
Width: 1306
GlyphClass: 2
Flags: W
LayerCount: 2
Fore
SplineSet
242 202 m 1,0,-1
 974 531 l 1,1,-1
 242 859 l 1,2,-1
 242 1070 l 1,3,-1
 1231 589 l 1,4,-1
 1231 471 l 1,5,-1
 242 0 l 1,6,-1
 242 202 l 1,0,-1
EndSplineSet
EndChar

StartChar: question
Encoding: 63 63 34
Width: 708
GlyphClass: 2
Flags: W
LayerCount: 2
Fore
SplineSet
644 548 m 2,0,1
 644 460 644 460 622 438 c 128,-1,2
 600 416 600 416 510 398 c 0,3,4
 434 382 434 382 434 346 c 2,5,-1
 434 262 l 2,6,7
 434 236 434 236 394 216 c 128,-1,8
 354 196 354 196 320 196 c 0,9,10
 270 196 270 196 270 238 c 2,11,-1
 270 460 l 2,12,13
 270 496 270 496 306 512 c 1,14,15
 352 526 352 526 396 540 c 0,16,17
 496 574 496 574 496 640 c 2,18,-1
 496 742 l 2,19,20
 496 770 496 770 456 770 c 0,21,22
 406 770 406 770 322 742 c 0,23,24
 222 710 222 710 222 672 c 0,25,26
 222 612 222 612 196 587 c 128,-1,27
 170 562 170 562 104 562 c 0,28,29
 64 562 64 562 64 604 c 2,30,-1
 64 844 l 2,31,32
 64 942 64 942 212 992 c 0,33,34
 270 1012 270 1012 375 1032 c 128,-1,35
 480 1052 480 1052 524 1052 c 0,36,37
 644 1052 644 1052 644 970 c 2,38,-1
 644 548 l 2,0,1
484 2 m 0,39,40
 484 -60 484 -60 462 -112 c 1,41,42
 354 -136 354 -136 276 -132 c 1,43,44
 222 -80 222 -80 222 18 c 0,45,46
 222 62 222 62 234 112 c 1,47,48
 324 142 324 142 416 142 c 0,49,50
 448 142 448 142 466 98 c 128,-1,51
 484 54 484 54 484 2 c 0,39,40
EndSplineSet
EndChar

StartChar: at
Encoding: 64 64 35
Width: 1619
GlyphClass: 2
Flags: W
LayerCount: 2
Fore
SplineSet
877 71 m 0,0,1
 870 83 870 83 867 104 c 1,2,3
 849 87 849 87 827.5 71 c 128,-1,4
 806 55 806 55 783 41 c 0,5,6
 711 -2 711 -2 640 -2 c 0,7,8
 564 -2 564 -2 495 41 c 128,-1,9
 426 84 426 84 381 178 c 0,10,11
 336 269 336 269 336 371 c 0,12,13
 336 493 336 493 401 626 c 0,14,15
 467 758 467 758 568 824 c 0,16,17
 668 890 668 890 764 890 c 0,18,19
 843 890 843 890 903 851 c 0,20,21
 929 837 929 837 950.5 818.5 c 128,-1,22
 972 800 972 800 991 774 c 1,23,24
 996 798 996 798 1002 821.5 c 128,-1,25
 1008 845 1008 845 1013 865 c 1,26,-1
 1190 865 l 1,27,-1
 1073 320 l 1,28,-1
 1050 195 l 2,29,30
 1051 190 1051 190 1054 185.5 c 128,-1,31
 1057 181 1057 181 1062 176 c 2,32,-1
 1060 178 l 2,33,34
 1072 168 1072 168 1085 168 c 0,35,36
 1122 168 1122 168 1181 210 c 0,37,38
 1263 267 1263 267 1316 371 c 0,39,40
 1370 474 1370 474 1370 583 c 0,41,42
 1370 702 1370 702 1304 813 c 0,43,44
 1272 869 1272 869 1223.5 913 c 128,-1,45
 1175 957 1175 957 1112 991 c 0,46,47
 1048 1021 1048 1021 977.5 1040.5 c 128,-1,48
 907 1060 907 1060 829 1060 c 0,49,50
 648 1060 648 1060 503 976 c 0,51,52
 429 934 429 934 372.5 874 c 128,-1,53
 316 814 316 814 274 733 c 0,54,55
 191 570 191 570 191 402 c 0,56,57
 191 311 191 311 211 230.5 c 128,-1,58
 231 150 231 150 271 83.5 c 128,-1,59
 311 17 311 17 369 -34 c 128,-1,60
 427 -85 427 -85 504 -118 c 0,61,62
 582 -152 582 -152 668 -168 c 128,-1,63
 754 -184 754 -184 849 -184 c 0,64,65
 1050 -184 1050 -184 1181 -119 c 0,66,67
 1315 -54 1315 -54 1393 54 c 1,68,-1
 1574 54 l 1,69,70
 1519 -65 1519 -65 1421 -148 c 0,71,72
 1374 -188 1374 -188 1310.5 -223.5 c 128,-1,73
 1247 -259 1247 -259 1181 -285 c 0,74,75
 1152 -295 1152 -295 1113 -305.5 c 128,-1,76
 1074 -316 1074 -316 1031 -324 c 0,77,78
 993 -331 993 -331 951 -334.5 c 128,-1,79
 909 -338 909 -338 852 -338 c 0,80,81
 716 -338 716 -338 599 -312 c 128,-1,82
 482 -286 482 -286 387 -235.5 c 128,-1,83
 292 -185 292 -185 220.5 -110.5 c 128,-1,84
 149 -36 149 -36 104 61 c 0,85,86
 37 219 37 219 37 388 c 0,87,88
 37 488 37 488 57.5 580 c 128,-1,89
 78 672 78 672 117 760 c 0,90,91
 217 973 217 973 394 1091 c 0,92,93
 575 1210 575 1210 835 1210 c 0,94,95
 935 1210 935 1210 1022 1190.5 c 128,-1,96
 1109 1171 1109 1171 1191 1129 c 0,97,98
 1272 1090 1272 1090 1335.5 1029 c 128,-1,99
 1399 968 1399 968 1448 883 c 0,100,101
 1523 740 1523 740 1523 581 c 0,102,103
 1523 464 1523 464 1480.5 359 c 128,-1,104
 1438 254 1438 254 1358 163 c 0,105,106
 1285 85 1285 85 1202.5 41.5 c 128,-1,107
 1120 -2 1120 -2 1033 -2 c 2,108,-1
 1012 -2 l 1,109,-1
 977 0 l 2,110,111
 954 4 954 4 933 18 c 1,112,-1
 934 18 l 1,113,114
 917 27 917 27 903.5 40.5 c 128,-1,115
 890 54 890 54 877 71 c 0,0,1
521 360 m 0,116,117
 521 261 521 261 566 207 c 0,118,119
 610 154 610 154 667 154 c 0,120,121
 707 154 707 154 753.5 178.5 c 128,-1,122
 800 203 800 203 839 251 c 0,123,124
 859 274 859 274 876.5 305.5 c 128,-1,125
 894 337 894 337 907 376 c 0,126,127
 936 455 936 455 936 530 c 0,128,129
 936 627 936 627 889 682 c 0,130,131
 844 735 844 735 774 735 c 0,132,133
 751 735 751 735 730 729.5 c 128,-1,134
 709 724 709 724 690 711 c 0,135,136
 646 687 646 687 611 636 c 128,-1,137
 576 585 576 585 545 500 c 1,138,-1
 545 501 l 1,139,140
 521 427 521 427 521 360 c 0,116,117
EndSplineSet
EndChar

StartChar: bracketleft
Encoding: 91 91 36
Width: 426
GlyphClass: 2
Flags: W
LayerCount: 2
Fore
SplineSet
89 1496 m 1,0,-1
 404 1496 l 1,1,-1
 404 1328 l 1,2,-1
 252 1328 l 1,3,-1
 252 -81 l 1,4,-1
 404 -81 l 1,5,-1
 404 -259 l 1,6,-1
 89 -259 l 1,7,-1
 89 1496 l 1,0,-1
EndSplineSet
EndChar

StartChar: backslash
Encoding: 92 92 37
Width: 865
GlyphClass: 2
Flags: W
LayerCount: 2
Fore
SplineSet
184 1239 m 1,0,-1
 838 -119 l 1,1,-1
 674 -119 l 1,2,-1
 16 1239 l 1,3,-1
 184 1239 l 1,0,-1
EndSplineSet
EndChar

StartChar: bracketright
Encoding: 93 93 38
Width: 428
GlyphClass: 2
Flags: W
LayerCount: 2
Fore
SplineSet
331 -259 m 1,0,-1
 16 -259 l 1,1,-1
 16 -81 l 1,2,-1
 169 -81 l 1,3,-1
 169 1328 l 1,4,-1
 16 1328 l 1,5,-1
 16 1496 l 1,6,-1
 331 1496 l 1,7,-1
 331 -259 l 1,0,-1
EndSplineSet
EndChar

StartChar: asciicircum
Encoding: 94 94 39
Width: 719
GlyphClass: 2
Flags: W
LayerCount: 2
Fore
SplineSet
180 450 m 1,0,-1
 43 450 l 1,1,-1
 306 1234 l 1,2,-1
 414 1234 l 1,3,-1
 674 450 l 1,4,-1
 540 450 l 1,5,-1
 358 1032 l 1,6,-1
 180 450 l 1,0,-1
EndSplineSet
EndChar

StartChar: underscore
Encoding: 95 95 40
Width: 1192
GlyphClass: 2
Flags: W
LayerCount: 2
Fore
SplineSet
108 -333 m 1,0,-1
 108 -226 l 1,1,-1
 1083 -226 l 1,2,-1
 1083 -333 l 1,3,-1
 108 -333 l 1,0,-1
EndSplineSet
EndChar

StartChar: braceleft
Encoding: 123 123 41
Width: 623
GlyphClass: 2
Flags: W
LayerCount: 2
Fore
SplineSet
124 705 m 1,0,1
 178 705 178 705 213.5 737.5 c 128,-1,2
 249 770 249 770 260 823 c 1,3,-1
 260 820 l 1,4,-1
 265 921 l 2,5,6
 267 948 267 948 269 977.5 c 128,-1,7
 271 1007 271 1007 273 1034 c 0,8,9
 273 1111 273 1111 274 1164.5 c 128,-1,10
 275 1218 275 1218 277 1247 c 0,11,12
 279 1277 279 1277 284.5 1305.5 c 128,-1,13
 290 1334 290 1334 299 1358 c 0,14,15
 318 1407 318 1407 345 1437.5 c 128,-1,16
 372 1468 372 1468 420 1485 c 0,17,18
 460 1500 460 1500 518 1500 c 2,19,-1
 578 1500 l 1,20,-1
 578 1319 l 1,21,-1
 533 1319 l 2,22,23
 473 1319 473 1319 451 1287 c 1,24,-1
 452 1288 l 1,25,26
 432 1259 432 1259 432 1151 c 2,27,-1
 432 960 l 1,28,-1
 429 892 l 2,29,30
 429 867 429 867 423 851 c 0,31,32
 417 804 417 804 404.5 764.5 c 128,-1,33
 392 725 392 725 376 698 c 0,34,35
 363 678 363 678 342 655.5 c 128,-1,36
 321 633 321 633 297 613 c 1,37,38
 363 567 363 567 394 494 c 0,39,40
 412 449 412 449 422 376 c 128,-1,41
 432 303 432 303 432 203 c 2,42,-1
 434 -5 l 2,43,44
 437 -58 437 -58 454 -78 c 1,45,-1
 482 -93 l 1,46,47
 501 -97 501 -97 533 -97 c 2,48,-1
 578 -97 l 1,49,-1
 578 -275 l 1,50,-1
 518 -275 l 2,51,52
 442 -275 442 -275 409 -261 c 0,53,54
 363 -237 363 -237 324 -189 c 1,55,56
 298 -148 298 -148 281 -64 c 0,57,58
 277 -29 277 -29 275 31.5 c 128,-1,59
 273 92 273 92 273 177 c 0,60,61
 273 258 273 258 270 313.5 c 128,-1,62
 267 369 267 369 260 399 c 0,63,64
 248 454 248 454 220 485 c 1,65,66
 200 499 200 499 176.5 507 c 128,-1,67
 153 515 153 515 124 515 c 1,68,-1
 124 705 l 1,0,1
EndSplineSet
EndChar

StartChar: bar
Encoding: 124 124 42
Width: 313
GlyphClass: 2
Flags: W
LayerCount: 2
Fore
SplineSet
70 -259 m 1,0,-1
 70 1586 l 1,1,-1
 242 1586 l 1,2,-1
 239 -259 l 1,3,-1
 70 -259 l 1,0,-1
EndSplineSet
EndChar

StartChar: braceright
Encoding: 125 125 43
Width: 547
GlyphClass: 2
Flags: W
LayerCount: 2
Fore
SplineSet
489 517 m 1,0,1
 458 517 458 517 435 510 c 128,-1,2
 412 503 412 503 395 489 c 0,3,4
 379 472 379 472 368 451 c 128,-1,5
 357 430 357 430 351 401 c 0,6,7
 339 341 339 341 339 179 c 0,8,9
 339 11 339 11 330 -59 c 0,10,11
 316 -146 316 -146 289 -187 c 0,12,13
 270 -210 270 -210 248.5 -228.5 c 128,-1,14
 227 -247 227 -247 203 -259 c 0,15,16
 170 -273 170 -273 94 -273 c 2,17,-1
 33 -273 l 1,18,-1
 33 -95 l 1,19,-1
 79 -95 l 2,20,21
 96 -95 96 -95 108 -93.5 c 128,-1,22
 120 -92 120 -92 131 -90 c 2,23,-1
 158 -76 l 1,24,25
 176 -55 176 -55 179 -2 c 0,26,27
 179 49 179 49 180 101 c 128,-1,28
 181 153 181 153 181 205 c 0,29,30
 181 306 181 306 190 378.5 c 128,-1,31
 199 451 199 451 218 496 c 0,32,33
 252 572 252 572 315 615 c 1,34,35
 290 635 290 635 269 657.5 c 128,-1,36
 248 680 248 680 235 700 c 0,37,38
 219 726 219 726 207.5 767 c 128,-1,39
 196 808 196 808 188 853 c 0,40,41
 185 861 185 861 184.5 870.5 c 128,-1,42
 184 880 184 880 184 894 c 2,43,-1
 181 962 l 1,44,-1
 181 1153 l 2,45,46
 181 1261 181 1261 161 1290 c 1,47,-1
 162 1289 l 1,48,49
 140 1321 140 1321 79 1321 c 2,50,-1
 33 1321 l 1,51,-1
 33 1502 l 1,52,-1
 94 1502 l 2,53,54
 153 1502 153 1502 191 1487 c 0,55,56
 237 1470 237 1470 265.5 1439 c 128,-1,57
 294 1408 294 1408 311 1360 c 0,58,59
 321 1336 321 1336 326.5 1307.5 c 128,-1,60
 332 1279 332 1279 334 1249 c 0,61,62
 336 1220 336 1220 337.5 1166 c 128,-1,63
 339 1112 339 1112 339 1037 c 1,64,-1
 348 923 l 1,65,-1
 352 825 l 1,66,67
 364 773 364 773 399 740 c 128,-1,68
 434 707 434 707 489 707 c 1,69,-1
 489 517 l 1,0,1
EndSplineSet
EndChar

StartChar: asciitilde
Encoding: 126 126 44
Width: 1161
GlyphClass: 2
Flags: W
LayerCount: 2
Fore
SplineSet
1045 747 m 1,0,-1
 1086 747 l 1,1,2
 1082 571 1082 571 1014 469.5 c 128,-1,3
 946 368 946 368 850 368 c 0,4,5
 807 368 807 368 757.5 389 c 128,-1,6
 708 410 708 410 503 535 c 0,7,8
 356 620 356 620 294 620 c 0,9,10
 229 620 229 620 183.5 562 c 128,-1,11
 138 504 138 504 118 371 c 1,12,-1
 75 371 l 1,13,14
 83 557 83 557 148.5 654.5 c 128,-1,15
 214 752 214 752 302 752 c 0,16,17
 342 752 342 752 387 732 c 0,18,19
 484 691 484 691 642.5 592.5 c 128,-1,20
 801 494 801 494 867 494 c 0,21,22
 936 494 936 494 985 559.5 c 128,-1,23
 1034 625 1034 625 1045 747 c 1,0,-1
EndSplineSet
EndChar

StartChar: cent
Encoding: 162 162 45
Width: 721
GlyphClass: 2
Flags: W
LayerCount: 2
Fore
SplineSet
598 156 m 1,0,1
 537 71 537 71 467 31 c 128,-1,2
 397 -9 397 -9 304 -17 c 1,3,-1
 228 -265 l 1,4,-1
 187 -265 l 1,5,-1
 262 -17 l 1,6,7
 177 -8 177 -8 128.5 47 c 128,-1,8
 80 102 80 102 80 188 c 0,9,10
 80 345 80 345 191.5 478.5 c 128,-1,11
 303 612 303 612 457 638 c 1,12,-1
 541 917 l 1,13,-1
 580 917 l 1,14,-1
 499 638 l 1,15,16
 580 638 580 638 616.5 607 c 128,-1,17
 653 576 653 576 653 523 c 0,18,19
 653 482 653 482 631.5 455.5 c 128,-1,20
 610 429 610 429 580 429 c 0,21,22
 557 429 557 429 544 442 c 128,-1,23
 531 455 531 455 531 476 c 0,24,25
 531 491 531 491 536 502 c 128,-1,26
 541 513 541 513 560.5 534.5 c 128,-1,27
 580 556 580 556 580 570 c 0,28,29
 580 578 580 578 575 585 c 0,30,31
 565 596 565 596 549.5 601 c 128,-1,32
 534 606 534 606 489 606 c 1,33,-1
 322 49 l 1,34,-1
 352 47 l 1,35,36
 470 47 470 47 580 173 c 1,37,-1
 598 156 l 1,0,1
284 57 m 1,38,-1
 445 598 l 1,39,40
 383 570 383 570 342 533 c 0,41,42
 274 467 274 467 237 380.5 c 128,-1,43
 200 294 200 294 200 205 c 0,44,45
 200 146 200 146 224 108 c 0,46,47
 243 81 243 81 284 57 c 1,38,-1
EndSplineSet
EndChar

StartChar: multiply
Encoding: 215 215 46
Width: 975
GlyphClass: 2
Flags: W
LayerCount: 2
Fore
SplineSet
267 230 m 1,0,-1
 515 479 l 1,1,-1
 267 728 l 1,2,-1
 308 768 l 1,3,-1
 556 520 l 1,4,-1
 805 768 l 1,5,-1
 844 728 l 1,6,-1
 595 480 l 1,7,-1
 845 230 l 1,8,-1
 805 190 l 1,9,-1
 555 439 l 1,10,-1
 307 190 l 1,11,-1
 267 230 l 1,0,-1
EndSplineSet
EndChar

StartChar: divide
Encoding: 247 247 47
Width: 830
GlyphClass: 2
Flags: W
LayerCount: 2
Fore
SplineSet
546 826 m 0,0,1
 546 742 546 742 522 710 c 0,2,3
 482 660 482 660 360 660 c 0,4,5
 290 660 290 660 290 764 c 0,6,7
 290 844 290 844 328 878 c 0,8,9
 374 920 374 920 490 920 c 0,10,11
 546 920 546 920 546 826 c 0,0,1
766 474 m 0,12,13
 766 426 766 426 738 392 c 1,14,15
 624 408 624 408 480 408 c 0,16,17
 422 408 422 408 292 388 c 0,18,19
 188 372 188 372 84 356 c 1,20,21
 64 374 64 374 64 430 c 0,22,23
 64 498 64 498 98 556 c 1,24,25
 326 624 326 624 670 624 c 0,26,27
 734 624 734 624 754 580 c 0,28,29
 766 552 766 552 766 474 c 0,12,13
538 240 m 256,30,31
 538 144 538 144 522 124 c 0,32,33
 502 96 502 96 410 96 c 0,34,35
 350 96 350 96 328 112 c 0,36,37
 300 134 300 134 300 192 c 0,38,39
 300 270 300 270 327 303 c 128,-1,40
 354 336 354 336 426 336 c 0,41,42
 538 336 538 336 538 240 c 256,30,31
EndSplineSet
EndChar

StartChar: tm_visarga
Encoding: 2947 2947 48
Width: 1004
GlyphClass: 2
Flags: W
LayerCount: 2
Fore
SplineSet
724 704 m 2,0,1
 724 626 724 626 674 588 c 0,2,3
 636 560 636 560 540 538 c 0,4,5
 456 520 456 520 394 520 c 0,6,7
 302 520 302 520 302 640 c 2,8,-1
 302 796 l 2,9,10
 302 892 302 892 370 952 c 0,11,12
 388 968 388 968 492 991 c 128,-1,13
 596 1014 596 1014 634 1014 c 0,14,15
 670 1014 670 1014 697 980 c 128,-1,16
 724 946 724 946 724 904 c 2,17,-1
 724 704 l 2,0,1
974 176 m 2,18,19
 974 92 974 92 935 59 c 128,-1,20
 896 26 896 26 807 0 c 128,-1,21
 718 -26 718 -26 642 -26 c 0,22,23
 606 -26 606 -26 575 2 c 128,-1,24
 544 30 544 30 544 78 c 2,25,-1
 544 294 l 2,26,27
 544 396 544 396 606 428 c 0,28,29
 628 438 628 438 737 459 c 128,-1,30
 846 480 846 480 874 480 c 0,31,32
 918 480 918 480 946 443 c 128,-1,33
 974 406 974 406 974 360 c 2,34,-1
 974 176 l 2,18,19
470 224 m 2,35,36
 470 94 470 94 422 48 c 0,37,38
 350 -20 350 -20 132 -20 c 0,39,40
 30 -20 30 -20 30 84 c 2,41,-1
 30 300 l 2,42,43
 30 384 30 384 100 432 c 0,44,45
 122 448 122 448 226 468 c 0,46,47
 324 486 324 486 370 486 c 0,48,49
 470 486 470 486 470 382 c 2,50,-1
 470 224 l 2,35,36
612 766 m 1,51,-1
 612 820 l 1,52,53
 542 806 542 806 424 776 c 1,54,-1
 424 730 l 1,55,56
 482 730 482 730 612 766 c 1,51,-1
850 228 m 1,57,-1
 850 286 l 1,58,59
 800 282 800 282 660 236 c 1,60,-1
 660 186 l 1,61,62
 704 186 704 186 850 228 c 1,57,-1
346 238 m 1,63,-1
 346 296 l 1,64,65
 242 276 242 276 156 244 c 1,66,-1
 156 196 l 1,67,68
 272 202 272 202 346 238 c 1,63,-1
EndSplineSet
EndChar

StartChar: tm_a
Encoding: 2949 2949 49
Width: 1150
GlyphClass: 2
Flags: W
LayerCount: 2
Fore
SplineSet
1108 10 m 2,0,1
 1108 -58 1108 -58 1026 -58 c 0,2,3
 946 -58 946 -58 946 4 c 2,4,-1
 946 554 l 1,5,-1
 870 542 l 1,6,-1
 870 86 l 2,7,8
 870 -10 870 -10 802 -44 c 0,9,10
 702 -96 702 -96 484 -124 c 0,11,12
 322 -144 322 -144 184 -144 c 0,13,14
 40 -144 40 -144 40 8 c 2,15,-1
 40 468 l 2,16,17
 40 644 40 644 178 674 c 2,18,-1
 290 698 l 1,19,-1
 290 952 l 2,20,21
 290 1024 290 1024 331 1059 c 128,-1,22
 372 1094 372 1094 502 1124 c 0,23,24
 640 1156 640 1156 772 1156 c 0,25,26
 814 1156 814 1156 842 1128 c 128,-1,27
 870 1100 870 1100 870 1064 c 2,28,-1
 870 790 l 1,29,-1
 946 804 l 1,30,-1
 946 958 l 2,31,32
 946 1036 946 1036 1032 1036 c 0,33,34
 1108 1036 1108 1036 1108 986 c 2,35,-1
 1108 10 l 2,0,1
722 768 m 1,36,-1
 722 878 l 2,37,38
 722 928 722 928 676 928 c 0,39,40
 576 928 576 928 506 909 c 128,-1,41
 436 890 436 890 436 864 c 2,42,-1
 436 836 l 1,43,44
 480 866 480 866 574 866 c 0,45,46
 646 866 646 866 646 808 c 2,47,-1
 646 752 l 1,48,-1
 722 768 l 1,36,-1
508 596 m 1,49,-1
 508 658 l 1,50,-1
 426 640 l 1,51,-1
 426 580 l 1,52,-1
 508 596 l 1,49,-1
722 244 m 2,53,-1
 722 516 l 1,54,-1
 646 500 l 1,55,-1
 646 464 l 2,56,57
 646 410 646 410 572 374 c 0,58,59
 490 334 490 334 354 334 c 0,60,61
 326 334 326 334 308 356 c 128,-1,62
 290 378 290 378 290 406 c 2,63,-1
 290 440 l 1,64,65
 232 422 232 422 216 410 c 0,66,67
 194 392 194 392 194 356 c 2,68,-1
 194 166 l 2,69,70
 194 100 194 100 268 112 c 2,71,-1
 628 166 l 2,72,73
 722 180 722 180 722 244 c 2,53,-1
EndSplineSet
EndChar

StartChar: tm_aa
Encoding: 2950 2950 50
Width: 1350
GlyphClass: 2
Flags: W
LayerCount: 2
Fore
SplineSet
1320 -162 m 2,0,1
 1320 -372 1320 -372 978 -372 c 0,2,3
 844 -372 844 -372 844 -276 c 2,4,-1
 844 -104 l 1,5,6
 884 -106 884 -106 920 -106 c 0,7,8
 1048 -106 1048 -106 1120 -76 c 0,9,10
 1184 -50 1184 -50 1184 -12 c 2,11,-1
 1184 98 l 2,12,13
 1184 134 1184 134 1138 134 c 0,14,15
 1108 134 1108 134 1108 88 c 2,16,-1
 1108 22 l 2,17,18
 1108 -58 1108 -58 1026 -58 c 0,19,20
 946 -58 946 -58 946 28 c 2,21,-1
 946 552 l 1,22,-1
 870 542 l 1,23,-1
 870 104 l 2,24,25
 870 24 870 24 842 -12 c 0,26,27
 822 -40 822 -40 762 -60 c 0,28,29
 650 -98 650 -98 464 -124 c 0,30,31
 302 -146 302 -146 196 -146 c 0,32,33
 40 -146 40 -146 40 26 c 2,34,-1
 40 426 l 2,35,36
 40 634 40 634 156 666 c 2,37,-1
 290 702 l 1,38,-1
 290 926 l 2,39,40
 290 1020 290 1020 339 1060 c 128,-1,41
 388 1100 388 1100 520 1130 c 0,42,43
 644 1156 644 1156 768 1156 c 0,44,45
 870 1156 870 1156 870 1044 c 2,46,-1
 870 790 l 1,47,-1
 946 806 l 1,48,-1
 946 958 l 2,49,50
 946 1038 946 1038 1034 1038 c 0,51,52
 1108 1038 1108 1038 1108 968 c 2,53,-1
 1108 330 l 1,54,55
 1126 364 1126 364 1150 375 c 128,-1,56
 1174 386 1174 386 1240 386 c 0,57,58
 1320 386 1320 386 1320 270 c 2,59,-1
 1320 -162 l 2,0,1
722 768 m 1,60,-1
 722 892 l 2,61,62
 722 928 722 928 670 928 c 0,63,64
 518 928 518 928 432 878 c 1,65,-1
 432 836 l 1,66,67
 488 868 488 868 572 868 c 0,68,69
 644 868 644 868 644 808 c 2,70,-1
 644 752 l 1,71,-1
 722 768 l 1,60,-1
506 600 m 1,72,-1
 506 658 l 1,73,-1
 432 642 l 1,74,-1
 432 582 l 1,75,-1
 506 600 l 1,72,-1
722 256 m 2,76,-1
 722 518 l 1,77,-1
 646 498 l 1,78,-1
 646 466 l 2,79,80
 646 422 646 422 584 382 c 0,81,82
 506 332 506 332 378 332 c 0,83,84
 290 332 290 332 290 396 c 2,85,-1
 290 440 l 1,86,-1
 226 416 l 2,87,88
 194 404 194 404 194 338 c 2,89,-1
 194 184 l 2,90,91
 194 114 194 114 248 114 c 0,92,93
 260 114 260 114 278 116 c 2,94,-1
 616 164 l 2,95,96
 722 180 722 180 722 256 c 2,76,-1
EndSplineSet
EndChar

StartChar: tm_i
Encoding: 2951 2951 51
Width: 1180
GlyphClass: 2
Flags: W
LayerCount: 2
Fore
SplineSet
1150 72 m 2,0,1
 1150 -8 1150 -8 1094 -56 c 0,2,3
 1032 -110 1032 -110 918 -110 c 0,4,5
 864 -110 864 -110 848 -62 c 1,6,7
 838 -116 838 -116 758 -142 c 0,8,9
 552 -208 552 -208 186 -208 c 0,10,11
 30 -208 30 -208 30 -52 c 2,12,-1
 30 336 l 2,13,14
 30 430 30 430 74 485 c 128,-1,15
 118 540 118 540 194 540 c 1,16,-1
 194 886 l 2,17,18
 194 1080 194 1080 270 1122 c 0,19,20
 360 1172 360 1172 534 1210 c 0,21,22
 724 1250 724 1250 896 1250 c 0,23,24
 982 1250 982 1250 1030 1206 c 0,25,26
 1072 1166 1072 1166 1072 1104 c 2,27,-1
 1072 852 l 2,28,29
 1072 794 1072 794 990 794 c 0,30,31
 926 794 926 794 926 834 c 2,32,-1
 926 952 l 2,33,34
 926 1006 926 1006 824 1006 c 0,35,36
 734 1006 734 1006 606 978 c 0,37,38
 470 950 470 950 396 910 c 0,39,40
 334 878 334 878 334 822 c 2,41,-1
 334 568 l 1,42,-1
 384 578 l 1,43,-1
 384 760 l 2,44,45
 384 822 384 822 410 848 c 0,46,47
 446 884 446 884 555 913 c 128,-1,48
 664 942 664 942 758 942 c 0,49,50
 880 942 880 942 880 846 c 2,51,-1
 880 664 l 1,52,-1
 994 674 l 2,53,54
 1150 688 1150 688 1150 512 c 2,55,-1
 1150 72 l 2,0,1
732 644 m 1,56,-1
 732 712 l 2,57,58
 732 760 732 760 678 760 c 0,59,60
 632 760 632 760 582 744 c 0,61,62
 524 726 524 726 524 702 c 2,63,-1
 524 674 l 1,64,65
 544 704 544 704 638 704 c 0,66,67
 694 704 694 704 694 656 c 2,68,-1
 694 634 l 1,69,-1
 732 644 l 1,56,-1
1018 226 m 2,70,-1
 1018 366 l 2,71,72
 1018 450 1018 450 958 440 c 2,73,-1
 880 428 l 1,74,-1
 880 178 l 2,75,76
 880 148 880 148 887 142 c 128,-1,77
 894 136 894 136 930 136 c 0,78,79
 1018 136 1018 136 1018 226 c 2,70,-1
570 456 m 1,80,-1
 568 524 l 1,81,-1
 504 512 l 1,82,-1
 508 446 l 1,83,-1
 570 456 l 1,80,-1
732 166 m 2,84,-1
 732 400 l 1,85,-1
 694 394 l 1,86,-1
 694 352 l 2,87,88
 694 312 694 312 636 280 c 0,89,90
 552 234 552 234 468 234 c 0,91,92
 438 234 438 234 411 255 c 128,-1,93
 384 276 384 276 384 298 c 2,94,-1
 384 346 l 1,95,96
 248 322 248 322 220 312 c 0,97,98
 180 296 180 296 180 256 c 2,99,-1
 180 118 l 2,100,101
 180 56 180 56 266 56 c 0,102,103
 454 56 454 56 640 96 c 0,104,105
 732 116 732 116 732 166 c 2,84,-1
EndSplineSet
EndChar

StartChar: tm_ii
Encoding: 2952 2952 52
Width: 808
GlyphClass: 2
Flags: W
LayerCount: 2
Fore
SplineSet
784 250 m 2,0,1
 784 216 784 216 706 216 c 0,2,3
 632 216 632 216 632 284 c 2,4,-1
 632 412 l 2,5,6
 632 520 632 520 724 520 c 0,7,8
 784 520 784 520 784 474 c 2,9,-1
 784 250 l 2,0,1
762 730 m 0,10,11
 762 670 762 670 742 616 c 1,12,13
 678 634 678 634 596 608 c 1,14,-1
 596 66 l 2,15,16
 596 0 596 0 500 0 c 0,17,18
 438 0 438 0 438 66 c 2,19,-1
 438 584 l 1,20,21
 258 550 258 550 188 514 c 1,22,-1
 188 42 l 2,23,24
 188 -8 188 -8 104 -8 c 0,25,26
 40 -8 40 -8 40 30 c 2,27,-1
 40 696 l 1,28,29
 124 736 124 736 316 792 c 0,30,31
 536 856 536 856 640 856 c 0,32,33
 762 856 762 856 762 730 c 0,10,11
380 234 m 2,34,35
 380 164 380 164 294 164 c 0,36,37
 274 164 274 164 256 177 c 128,-1,38
 238 190 238 190 238 208 c 2,39,-1
 238 418 l 2,40,41
 238 460 238 460 330 460 c 0,42,43
 380 460 380 460 380 412 c 2,44,-1
 380 234 l 2,34,35
EndSplineSet
EndChar

StartChar: tm_u
Encoding: 2953 2953 53
Width: 1190
GlyphClass: 2
Flags: W
LayerCount: 2
Fore
SplineSet
1176 230 m 0,0,1
 1176 126 1176 126 1140 74 c 1,2,3
 934 38 934 38 592 4 c 0,4,5
 294 -24 294 -24 196 -24 c 0,6,7
 40 -24 40 -24 40 108 c 2,8,-1
 40 322 l 2,9,10
 40 462 40 462 162 482 c 2,11,-1
 350 514 l 2,12,13
 398 522 398 522 432 548 c 128,-1,14
 466 574 466 574 466 604 c 2,15,-1
 466 998 l 2,16,17
 466 1020 466 1020 456 1025 c 128,-1,18
 446 1030 446 1030 414 1030 c 0,19,20
 310 1030 310 1030 190 960 c 1,21,-1
 190 918 l 1,22,23
 244 958 244 958 316 958 c 0,24,25
 406 958 406 958 406 850 c 2,26,-1
 406 664 l 2,27,28
 406 586 406 586 335 551 c 128,-1,29
 264 516 264 516 144 516 c 0,30,31
 40 516 40 516 40 644 c 2,32,-1
 40 1024 l 2,33,34
 40 1126 40 1126 208 1192 c 0,35,36
 344 1244 344 1244 476 1244 c 0,37,38
 558 1244 558 1244 587 1219 c 128,-1,39
 616 1194 616 1194 616 1124 c 2,40,-1
 616 444 l 2,41,42
 616 362 616 362 540 324 c 0,43,44
 494 300 494 300 384 284 c 0,45,46
 260 266 260 266 256 264 c 0,47,48
 200 248 200 248 208 204 c 1,49,50
 706 216 706 216 1132 322 c 1,51,52
 1176 308 1176 308 1176 230 c 0,0,1
274 708 m 1,53,-1
 274 770 l 1,54,-1
 190 744 l 1,55,-1
 190 688 l 1,56,-1
 274 708 l 1,53,-1
EndSplineSet
EndChar

StartChar: tm_uu
Encoding: 2954 2954 54
Width: 1514
GlyphClass: 2
Flags: W
LayerCount: 2
Fore
SplineSet
1468 772 m 0,0,1
 1468 720 1468 720 1450 692 c 1,2,-1
 1346 670 l 1,3,-1
 1346 376 l 2,4,5
 1346 332 1346 332 1340 322 c 0,6,7
 1328 306 1328 306 1284 306 c 0,8,9
 1232 306 1232 306 1232 368 c 2,10,-1
 1232 654 l 1,11,-1
 1154 636 l 1,12,-1
 1154 320 l 2,13,14
 1154 292 1154 292 1092 292 c 0,15,16
 1034 292 1034 292 1034 330 c 2,17,-1
 1034 748 l 1,18,19
 882 748 882 748 780 700 c 1,20,-1
 780 656 l 1,21,22
 872 694 872 694 938 694 c 0,23,24
 986 694 986 694 986 618 c 2,25,-1
 986 404 l 2,26,27
 986 336 986 336 939 310 c 128,-1,28
 892 284 892 284 764 284 c 0,29,30
 712 284 712 284 696 304 c 128,-1,31
 680 324 680 324 680 376 c 2,32,-1
 680 762 l 2,33,34
 680 826 680 826 794 871 c 128,-1,35
 908 916 908 916 1064 916 c 0,36,37
 1152 916 1152 916 1152 860 c 2,38,-1
 1152 832 l 1,39,40
 1186 846 1186 846 1274 860 c 128,-1,41
 1362 874 1362 874 1418 874 c 0,42,43
 1468 874 1468 874 1468 772 c 0,0,1
1500 204 m 0,44,45
 1500 158 1500 158 1485 110 c 128,-1,46
 1470 62 1470 62 1452 52 c 1,47,48
 1294 26 1294 26 954 2 c 0,49,50
 568 -26 568 -26 260 -26 c 0,51,52
 128 -26 128 -26 78 12 c 0,53,54
 40 40 40 40 40 108 c 2,55,-1
 40 328 l 2,56,57
 40 464 40 464 166 484 c 2,58,-1
 340 512 l 2,59,60
 466 532 466 532 466 612 c 2,61,-1
 466 1028 l 1,62,63
 406 1036 406 1036 325 1015 c 128,-1,64
 244 994 244 994 190 960 c 1,65,-1
 190 920 l 1,66,67
 244 958 244 958 324 958 c 0,68,69
 406 958 406 958 406 860 c 2,70,-1
 406 648 l 2,71,72
 406 584 406 584 324 548 c 0,73,74
 252 516 252 516 140 516 c 0,75,76
 96 516 96 516 68 549 c 128,-1,77
 40 582 40 582 40 640 c 2,78,-1
 40 972 l 2,79,80
 40 1072 40 1072 84 1116 c 0,81,82
 140 1172 140 1172 274 1210 c 0,83,84
 400 1246 400 1246 512 1246 c 0,85,86
 558 1246 558 1246 587 1215 c 128,-1,87
 616 1184 616 1184 616 1138 c 2,88,-1
 616 456 l 2,89,90
 616 400 616 400 585 359 c 128,-1,91
 554 318 554 318 500 308 c 2,92,-1
 262 262 l 2,93,94
 202 250 202 250 202 224 c 256,95,96
 202 198 202 198 302 198 c 0,97,98
 332 198 332 198 574 212 c 0,99,100
 836 226 836 226 966 238 c 0,101,102
 1220 262 1220 262 1460 308 c 1,103,104
 1486 300 1486 300 1493 280 c 128,-1,105
 1500 260 1500 260 1500 204 c 0,44,45
904 474 m 1,106,-1
 904 522 l 1,107,-1
 768 490 l 1,108,-1
 768 440 l 1,109,-1
 904 474 l 1,106,-1
276 708 m 1,110,-1
 276 774 l 1,111,-1
 190 744 l 1,112,-1
 190 688 l 1,113,-1
 276 708 l 1,110,-1
EndSplineSet
EndChar

StartChar: tm_e
Encoding: 2958 2958 55
Width: 846
GlyphClass: 2
Flags: W
LayerCount: 2
Fore
SplineSet
832 706 m 0,0,1
 832 644 832 644 820 634 c 1,2,3
 742 640 742 640 708 626 c 1,4,-1
 708 52 l 2,5,6
 708 -4 708 -4 640 -4 c 0,7,8
 588 -4 588 -4 564 12 c 128,-1,9
 540 28 540 28 540 78 c 2,10,-1
 540 612 l 1,11,12
 374 598 374 598 184 516 c 1,13,-1
 184 474 l 1,14,15
 258 516 258 516 360 516 c 0,16,17
 458 516 458 516 458 376 c 2,18,-1
 458 130 l 2,19,20
 458 60 458 60 354 14 c 0,21,22
 268 -24 268 -24 178 -24 c 0,23,24
 40 -24 40 -24 40 100 c 2,25,-1
 40 622 l 2,26,27
 40 728 40 728 270 800 c 0,28,29
 478 864 478 864 728 864 c 0,30,31
 832 864 832 864 832 706 c 0,0,1
324 240 m 1,32,-1
 324 302 l 1,33,-1
 184 258 l 1,34,-1
 184 202 l 1,35,-1
 324 240 l 1,32,-1
EndSplineSet
EndChar

StartChar: tm_ee
Encoding: 2959 2959 56
Width: 896
GlyphClass: 2
Flags: W
LayerCount: 2
Fore
SplineSet
882 752 m 0,0,1
 882 664 882 664 854 598 c 1,2,3
 810 640 810 640 708 632 c 1,4,-1
 708 -180 l 2,5,6
 708 -234 708 -234 612 -254 c 2,7,-1
 102 -362 l 1,8,9
 68 -356 68 -356 40 -301 c 128,-1,10
 12 -246 12 -246 12 -184 c 0,11,12
 12 -154 12 -154 20 -128 c 1,13,-1
 460 -38 l 2,14,15
 540 -22 540 -22 540 20 c 2,16,-1
 540 610 l 1,17,18
 386 608 386 608 184 514 c 1,19,-1
 184 472 l 1,20,21
 268 514 268 514 362 514 c 0,22,23
 458 514 458 514 458 372 c 2,24,-1
 458 166 l 2,25,26
 458 90 458 90 438 68 c 0,27,28
 400 26 400 26 314 0 c 0,29,30
 238 -24 238 -24 172 -24 c 0,31,32
 40 -24 40 -24 40 114 c 2,33,-1
 40 620 l 2,34,35
 40 686 40 686 98 724 c 0,36,37
 192 786 192 786 384 828 c 0,38,39
 568 870 568 870 732 870 c 0,40,41
 882 870 882 870 882 752 c 0,0,1
320 238 m 1,42,-1
 320 306 l 1,43,-1
 184 256 l 1,44,-1
 184 198 l 1,45,-1
 320 238 l 1,42,-1
EndSplineSet
EndChar

StartChar: tm_ai
Encoding: 2960 2960 57
Width: 878
GlyphClass: 2
Flags: W
LayerCount: 2
Fore
SplineSet
838 -332 m 2,0,1
 838 -414 838 -414 765 -466 c 128,-1,2
 692 -518 692 -518 574 -518 c 0,3,4
 476 -518 476 -518 480 -444 c 1,5,6
 292 -508 292 -508 156 -508 c 0,7,8
 96 -508 96 -508 70 -466 c 0,9,10
 40 -416 40 -416 40 -292 c 2,11,-1
 40 -26 l 2,12,13
 40 74 40 74 84 110 c 0,14,15
 122 142 122 142 244 160 c 2,16,-1
 510 200 l 2,17,18
 606 214 606 214 626 226 c 0,19,20
 670 248 670 248 670 320 c 2,21,-1
 670 490 l 2,22,23
 670 540 670 540 630 540 c 0,24,25
 582 540 582 540 582 492 c 2,26,-1
 582 308 l 2,27,28
 582 252 582 252 498 252 c 0,29,30
 424 252 424 252 424 306 c 2,31,-1
 424 598 l 2,32,33
 424 640 424 640 390 640 c 0,34,35
 352 640 352 640 278 618 c 0,36,37
 190 592 190 592 190 564 c 2,38,-1
 190 546 l 1,39,40
 288 560 288 560 282 560 c 1,41,42
 362 560 362 560 362 466 c 2,43,-1
 362 288 l 2,44,45
 362 222 362 222 324 202 c 0,46,47
 232 154 232 154 130 154 c 0,48,49
 40 154 40 154 40 292 c 2,50,-1
 40 600 l 2,51,52
 40 714 40 714 94 765 c 128,-1,53
 148 816 148 816 264 848 c 0,54,55
 370 876 370 876 468 876 c 0,56,57
 580 876 580 876 580 798 c 0,58,59
 580 782 580 782 576 766 c 1,60,61
 666 810 666 810 750 810 c 0,62,63
 806 810 806 810 822 787 c 128,-1,64
 838 764 838 764 838 706 c 2,65,-1
 838 328 l 2,66,67
 838 138 838 138 798 76 c 128,-1,68
 758 14 758 14 616 -12 c 2,69,-1
 338 -62 l 2,70,71
 242 -80 242 -80 230 -84 c 0,72,73
 198 -98 198 -98 198 -140 c 2,74,-1
 198 -200 l 2,75,76
 198 -222 198 -222 252 -222 c 0,77,78
 298 -222 298 -222 342 -210 c 0,79,80
 394 -194 394 -194 394 -168 c 2,81,-1
 394 -126 l 2,82,83
 394 -72 394 -72 490 -72 c 0,84,85
 546 -72 546 -72 546 -108 c 2,86,-1
 546 -164 l 2,87,88
 546 -200 546 -200 588 -200 c 2,89,-1
 622 -200 l 2,90,91
 642 -200 642 -200 657 -185 c 128,-1,92
 672 -170 672 -170 672 -152 c 2,93,-1
 672 -88 l 2,94,95
 672 -30 672 -30 762 -30 c 0,96,97
 796 -30 796 -30 817 -61 c 128,-1,98
 838 -92 838 -92 838 -126 c 2,99,-1
 838 -332 l 2,0,1
242 342 m 1,100,-1
 242 402 l 1,101,-1
 190 402 l 1,102,-1
 190 342 l 1,103,-1
 242 342 l 1,100,-1
EndSplineSet
EndChar

StartChar: tm_o
Encoding: 2962 2962 58
Width: 906
GlyphClass: 2
Flags: W
LayerCount: 2
Fore
SplineSet
876 324 m 2,0,1
 876 182 876 182 726 182 c 0,2,3
 652 182 652 182 618 210 c 1,4,5
 618 172 618 172 628 156 c 0,6,7
 650 128 650 128 718 128 c 0,8,9
 758 128 758 128 818 138 c 1,10,11
 840 104 840 104 840 38 c 0,12,13
 840 -78 840 -78 786 -118 c 1,14,15
 702 -112 702 -112 682 -148 c 1,16,17
 670 -188 670 -188 656 -228 c 1,18,19
 600 -330 600 -330 246 -330 c 0,20,21
 108 -330 108 -330 108 -28 c 0,22,23
 108 60 108 60 118 88 c 0,24,25
 134 128 134 128 184 128 c 0,26,27
 240 128 240 128 252 120 c 0,28,29
 272 106 272 106 272 54 c 2,30,-1
 272 0 l 2,31,32
 272 -40 272 -40 304 -52 c 0,33,34
 326 -62 326 -62 390 -62 c 0,35,36
 598 -62 598 -62 616 12 c 1,37,38
 458 24 458 24 458 218 c 2,39,-1
 458 452 l 2,40,41
 458 558 458 558 556 558 c 0,42,43
 630 558 630 558 630 494 c 2,44,-1
 630 428 l 2,45,46
 630 404 630 404 666 404 c 256,47,48
 702 404 702 404 702 440 c 2,49,-1
 702 638 l 2,50,51
 702 696 702 696 650 696 c 0,52,53
 368 696 368 696 170 644 c 1,54,-1
 170 600 l 1,55,56
 252 634 252 634 350 634 c 0,57,58
 424 634 424 634 424 514 c 2,59,-1
 424 344 l 2,60,61
 424 258 424 258 376 228 c 0,62,63
 338 204 338 204 244 182 c 0,64,65
 162 164 162 164 126 164 c 0,66,67
 30 164 30 164 30 320 c 2,68,-1
 30 722 l 2,69,70
 30 844 30 844 126 888 c 0,71,72
 182 914 182 914 360 936 c 0,73,74
 530 958 530 958 660 958 c 0,75,76
 876 958 876 958 876 718 c 2,77,-1
 876 324 l 2,0,1
294 398 m 1,78,-1
 294 454 l 1,79,-1
 170 422 l 1,80,-1
 170 374 l 1,81,-1
 294 398 l 1,78,-1
EndSplineSet
EndChar

StartChar: tm_oo
Encoding: 2963 2963 59
Width: 910
GlyphClass: 2
Flags: W
LayerCount: 2
Fore
SplineSet
880 364 m 2,0,1
 880 192 880 192 718 192 c 0,2,3
 646 192 646 192 610 228 c 1,4,5
 602 186 602 186 645 160 c 128,-1,6
 688 134 688 134 752 134 c 0,7,8
 788 134 788 134 822 144 c 1,9,10
 852 110 852 110 852 42 c 0,11,12
 852 -52 852 -52 808 -104 c 1,13,14
 736 -98 736 -98 708 -118 c 0,15,16
 690 -132 690 -132 682 -170 c 0,17,18
 670 -216 670 -216 654 -234 c 0,19,20
 586 -312 586 -312 258 -312 c 0,21,22
 172 -312 172 -312 134 -275 c 128,-1,23
 96 -238 96 -238 96 -152 c 2,24,-1
 96 56 l 2,25,26
 96 192 96 192 364 192 c 0,27,28
 452 192 452 192 452 70 c 2,29,-1
 452 -38 l 1,30,31
 536 -36 536 -36 566 -28 c 0,32,33
 606 -16 606 -16 618 24 c 1,34,35
 476 52 476 52 476 222 c 2,36,-1
 476 432 l 2,37,38
 476 494 476 494 494 522 c 128,-1,39
 512 550 512 550 568 550 c 0,40,41
 616 550 616 550 629 535 c 128,-1,42
 642 520 642 520 642 474 c 2,43,-1
 642 430 l 1,44,45
 646 406 646 406 682 406 c 0,46,47
 720 406 720 406 720 442 c 2,48,-1
 720 666 l 2,49,50
 720 696 720 696 689 704 c 128,-1,51
 658 712 658 712 556 712 c 0,52,53
 316 712 316 712 172 646 c 1,54,-1
 172 612 l 1,55,56
 262 646 262 646 356 646 c 0,57,58
 388 646 388 646 412 611 c 128,-1,59
 436 576 436 576 436 516 c 2,60,-1
 436 346 l 2,61,62
 436 274 436 274 384 244 c 0,63,64
 346 224 346 224 254 208 c 0,65,66
 180 196 180 196 142 196 c 0,67,68
 30 196 30 196 30 348 c 2,69,-1
 30 706 l 2,70,71
 30 806 30 806 82 856 c 0,72,73
 130 898 130 898 240 918 c 0,74,75
 482 960 482 960 666 960 c 0,76,77
 798 960 798 960 839 901 c 128,-1,78
 880 842 880 842 880 670 c 2,79,-1
 880 364 l 2,0,1
312 412 m 1,80,-1
 312 462 l 1,81,82
 300 464 300 464 244 452 c 0,83,84
 182 438 182 438 168 428 c 1,85,-1
 168 380 l 1,86,87
 194 384 194 384 312 412 c 1,80,-1
316 16 m 1,88,89
 286 24 286 24 232 16 c 1,90,91
 220 -8 220 -8 234 -48 c 1,92,93
 270 -54 270 -54 310 -50 c 1,94,95
 320 -28 320 -28 316 16 c 1,88,89
EndSplineSet
EndChar

StartChar: tm_au
Encoding: 2964 2964 60
Width: 2004
GlyphClass: 2
Flags: W
LayerCount: 2
Fore
SplineSet
1990 656 m 0,0,1
 1990 552 1990 552 1962 524 c 1,2,3
 1920 522 1920 522 1832 510 c 1,4,-1
 1832 26 l 1,5,6
 1804 -12 1804 -12 1746 -12 c 0,7,8
 1674 -12 1674 -12 1674 56 c 2,9,-1
 1674 482 l 1,10,11
 1602 464 1602 464 1572 452 c 1,12,-1
 1572 32 l 2,13,14
 1572 -8 1572 -8 1474 -8 c 0,15,16
 1416 -8 1416 -8 1416 54 c 2,17,-1
 1416 604 l 1,18,19
 1352 608 1352 608 1232 584 c 0,20,21
 1104 560 1104 560 1074 534 c 1,22,-1
 1074 482 l 1,23,24
 1086 492 1086 492 1160 512 c 0,25,26
 1242 534 1242 534 1284 534 c 0,27,28
 1352 534 1352 534 1352 436 c 2,29,-1
 1352 132 l 2,30,31
 1352 58 1352 58 1304 26 c 0,32,33
 1276 8 1276 8 1191 -6 c 128,-1,34
 1106 -20 1106 -20 1052 -20 c 0,35,36
 934 -20 934 -20 934 100 c 2,37,-1
 934 632 l 2,38,39
 934 718 934 718 1142 780 c 0,40,41
 1314 832 1314 832 1452 832 c 0,42,43
 1568 832 1568 832 1568 724 c 1,44,45
 1794 788 1794 788 1926 788 c 0,46,47
 1990 788 1990 788 1990 656 c 0,0,1
876 324 m 2,48,49
 876 182 876 182 726 182 c 0,50,51
 652 182 652 182 618 210 c 1,52,53
 618 172 618 172 628 156 c 0,54,55
 650 128 650 128 718 128 c 0,56,57
 758 128 758 128 818 138 c 1,58,59
 840 104 840 104 840 38 c 0,60,61
 840 -78 840 -78 786 -118 c 1,62,63
 702 -112 702 -112 682 -148 c 1,64,65
 670 -188 670 -188 656 -228 c 1,66,67
 600 -330 600 -330 246 -330 c 0,68,69
 108 -330 108 -330 108 -28 c 0,70,71
 108 60 108 60 118 88 c 0,72,73
 134 128 134 128 184 128 c 0,74,75
 240 128 240 128 252 120 c 0,76,77
 272 106 272 106 272 54 c 2,78,-1
 272 0 l 2,79,80
 272 -40 272 -40 304 -52 c 0,81,82
 326 -62 326 -62 390 -62 c 0,83,84
 598 -62 598 -62 616 12 c 1,85,86
 458 24 458 24 458 218 c 2,87,-1
 458 452 l 2,88,89
 458 558 458 558 556 558 c 0,90,91
 630 558 630 558 630 494 c 2,92,-1
 630 428 l 2,93,94
 630 404 630 404 666 404 c 256,95,96
 702 404 702 404 702 440 c 2,97,-1
 702 638 l 2,98,99
 702 696 702 696 650 696 c 0,100,101
 368 696 368 696 170 644 c 1,102,-1
 170 600 l 1,103,104
 252 634 252 634 350 634 c 0,105,106
 424 634 424 634 424 514 c 2,107,-1
 424 344 l 2,108,109
 424 258 424 258 376 228 c 0,110,111
 338 204 338 204 244 182 c 0,112,113
 162 164 162 164 126 164 c 0,114,115
 30 164 30 164 30 320 c 2,116,-1
 30 722 l 2,117,118
 30 844 30 844 126 888 c 0,119,120
 182 914 182 914 360 936 c 0,121,122
 530 958 530 958 660 958 c 0,123,124
 876 958 876 958 876 718 c 2,125,-1
 876 324 l 2,48,49
1240 246 m 1,126,-1
 1240 292 l 1,127,128
 1148 286 1148 286 1060 248 c 1,129,-1
 1060 200 l 1,130,131
 1162 206 1162 206 1240 246 c 1,126,-1
294 398 m 1,132,-1
 294 454 l 1,133,-1
 170 422 l 1,134,-1
 170 374 l 1,135,-1
 294 398 l 1,132,-1
EndSplineSet
EndChar

StartChar: tm_ka
Encoding: 2965 2965 61
Width: 872
GlyphClass: 2
Flags: W
LayerCount: 2
Fore
SplineSet
842 52 m 2,0,1
 842 14 842 14 746 -20 c 128,-1,2
 650 -54 650 -54 560 -54 c 0,3,4
 520 -54 520 -54 520 -18 c 2,5,-1
 520 36 l 1,6,7
 214 -18 214 -18 128 -18 c 0,8,9
 92 -18 92 -18 61 13 c 128,-1,10
 30 44 30 44 30 96 c 2,11,-1
 30 400 l 2,12,13
 30 446 30 446 112 492 c 1,14,-1
 112 726 l 1,15,16
 494 858 494 858 686 858 c 0,17,18
 758 858 758 858 758 738 c 0,19,20
 758 688 758 688 744 628 c 1,21,22
 712 640 712 640 672 640 c 0,23,24
 616 640 616 640 534 618 c 1,25,-1
 534 564 l 1,26,27
 716 588 716 588 772 588 c 0,28,29
 842 588 842 588 842 518 c 2,30,-1
 842 52 l 2,0,1
712 208 m 1,31,-1
 712 348 l 1,32,33
 636 334 636 334 534 334 c 1,34,-1
 534 180 l 1,35,36
 608 170 608 170 712 208 c 1,31,-1
398 544 m 1,37,-1
 398 602 l 1,38,-1
 244 556 l 1,39,-1
 244 510 l 1,40,41
 338 538 338 538 398 544 c 1,37,-1
398 256 m 1,42,-1
 398 316 l 1,43,44
 240 280 240 280 158 274 c 1,45,-1
 158 220 l 1,46,47
 272 214 272 214 398 256 c 1,42,-1
EndSplineSet
EndChar

StartChar: tm_nga
Encoding: 2969 2969 62
Width: 1054
GlyphClass: 2
Flags: W
LayerCount: 2
Fore
SplineSet
1014 122 m 2,0,1
 1014 30 1014 30 962 4 c 0,2,3
 892 -32 892 -32 632 -56 c 1,4,5
 572 -18 572 -18 572 104 c 0,6,7
 572 144 572 144 584 160 c 128,-1,8
 596 176 596 176 644 176 c 1,9,-1
 644 272 l 2,10,11
 644 316 644 316 610 310 c 2,12,-1
 550 298 l 2,13,14
 500 288 500 288 500 238 c 2,15,-1
 500 62 l 2,16,17
 500 -10 500 -10 418 -10 c 0,18,19
 364 -10 364 -10 356 10 c 0,20,21
 352 20 352 20 352 40 c 2,22,-1
 352 574 l 1,23,24
 244 548 244 548 186 520 c 1,25,-1
 186 134 l 2,26,27
 186 52 186 52 174 30 c 0,28,29
 158 0 158 0 96 0 c 0,30,31
 40 0 40 0 40 60 c 2,32,-1
 40 652 l 2,33,34
 40 706 40 706 86 730 c 0,35,36
 144 762 144 762 376 806 c 0,37,38
 590 848 590 848 644 848 c 0,39,40
 666 848 666 848 686 824 c 0,41,42
 708 794 708 794 708 748 c 0,43,44
 708 642 708 642 680 620 c 1,45,46
 566 614 566 614 500 596 c 1,47,-1
 500 520 l 1,48,49
 602 558 602 558 690 558 c 0,50,51
 786 558 786 558 786 442 c 2,52,-1
 786 194 l 1,53,-1
 856 210 l 1,54,-1
 856 836 l 2,55,56
 856 896 856 896 966 896 c 0,57,58
 1014 896 1014 896 1014 834 c 2,59,-1
 1014 122 l 2,0,1
EndSplineSet
EndChar

StartChar: tm_ca
Encoding: 2970 2970 63
Width: 790
GlyphClass: 2
Flags: W
LayerCount: 2
Fore
SplineSet
776 312 m 1,0,1
 714 338 714 338 544 312 c 1,2,-1
 544 98 l 2,3,4
 544 34 544 34 518 20 c 0,5,6
 444 -22 444 -22 214 -22 c 0,7,8
 92 -22 92 -22 61 6 c 128,-1,9
 30 34 30 34 30 128 c 2,10,-1
 30 326 l 2,11,12
 30 424 30 424 116 466 c 1,13,-1
 116 702 l 1,14,15
 498 840 498 840 684 840 c 0,16,17
 718 840 718 840 739 803 c 128,-1,18
 760 766 760 766 760 722 c 0,19,20
 760 660 760 660 744 620 c 1,21,22
 656 630 656 630 544 600 c 1,23,-1
 544 548 l 1,24,25
 604 560 604 560 668 560 c 0,26,27
 752 560 752 560 776 536 c 1,28,-1
 776 312 l 1,0,1
400 516 m 1,29,-1
 400 576 l 1,30,31
 314 558 314 558 244 530 c 1,32,-1
 244 484 l 1,33,34
 316 504 316 504 400 516 c 1,29,-1
400 232 m 1,35,-1
 400 290 l 1,36,37
 360 288 360 288 172 250 c 1,38,-1
 170 194 l 1,39,40
 284 194 284 194 400 232 c 1,35,-1
EndSplineSet
EndChar

StartChar: tm_ja
Encoding: 2972 2972 64
Width: 856
GlyphClass: 2
Flags: W
LayerCount: 2
Fore
SplineSet
816 244 m 2,0,1
 816 70 816 70 746 18 c 1,2,3
 796 -28 796 -28 796 -98 c 2,4,-1
 796 -268 l 2,5,6
 796 -424 796 -424 584 -430 c 1,7,8
 562 -410 562 -410 562 -316 c 0,9,10
 562 -240 562 -240 574 -176 c 1,11,12
 656 -164 656 -164 656 -94 c 0,13,14
 656 -52 656 -52 626 -40 c 1,15,16
 584 -36 584 -36 550 -64 c 1,17,18
 534 -114 534 -114 534 -222 c 0,19,20
 532 -310 532 -310 510 -340 c 0,21,22
 452 -414 452 -414 168 -414 c 0,23,24
 96 -414 96 -414 68 -388 c 128,-1,25
 40 -362 40 -362 40 -294 c 2,26,-1
 40 -72 l 2,27,28
 40 40 40 40 78 78 c 0,29,30
 110 110 110 110 222 128 c 2,31,-1
 488 172 l 2,32,33
 612 192 612 192 624 198 c 0,34,35
 656 212 656 212 656 268 c 2,36,-1
 656 432 l 2,37,38
 656 514 656 514 632 514 c 0,39,40
 570 514 570 514 570 464 c 2,41,-1
 570 270 l 2,42,43
 570 224 570 224 478 224 c 0,44,45
 426 224 426 224 426 270 c 2,46,-1
 426 558 l 2,47,48
 426 606 426 606 384 606 c 0,49,50
 356 606 356 606 276 582 c 128,-1,51
 196 558 196 558 182 538 c 1,52,-1
 182 508 l 1,53,54
 236 534 236 534 300 534 c 0,55,56
 378 534 378 534 378 452 c 2,57,-1
 378 296 l 2,58,59
 378 220 378 220 346 188 c 0,60,61
 326 168 326 168 250 149 c 128,-1,62
 174 130 174 130 128 130 c 0,63,64
 52 130 52 130 52 236 c 2,65,-1
 52 490 l 2,66,67
 52 654 52 654 66 688 c 0,68,69
 96 758 96 758 236 796 c 0,70,71
 342 824 342 824 456 824 c 0,72,73
 562 824 562 824 560 728 c 1,74,75
 674 774 674 774 746 774 c 0,76,77
 816 774 816 774 816 646 c 2,78,-1
 816 244 l 2,0,1
242 328 m 2,79,-1
 242 360 l 2,80,81
 242 374 242 374 218 374 c 0,82,83
 184 374 184 374 184 354 c 2,84,-1
 184 328 l 2,85,86
 184 316 184 316 214 314 c 0,87,88
 242 314 242 314 242 328 c 2,79,-1
402 -128 m 1,89,-1
 402 -70 l 1,90,91
 258 -82 258 -82 202 -100 c 0,92,93
 168 -112 168 -112 168 -134 c 2,94,-1
 168 -168 l 1,95,96
 206 -170 206 -170 292 -155 c 128,-1,97
 378 -140 378 -140 402 -128 c 1,89,-1
EndSplineSet
EndChar

StartChar: tm_nya
Encoding: 2974 2974 65
Width: 1306
GlyphClass: 2
Flags: W
LayerCount: 2
Fore
SplineSet
1276 8 m 2,0,1
 1276 -118 1276 -118 1264 -148 c 0,2,3
 1248 -192 1248 -192 1172 -218 c 0,4,5
 1004 -274 1004 -274 664 -310 c 0,6,7
 374 -342 374 -342 160 -342 c 0,8,9
 86 -342 86 -342 58 -319 c 128,-1,10
 30 -296 30 -296 30 -242 c 2,11,-1
 30 514 l 2,12,13
 30 594 30 594 106 642 c 0,14,15
 160 678 160 678 232 686 c 1,16,17
 260 544 260 544 260 418 c 1,18,19
 174 402 174 402 174 322 c 2,20,-1
 174 -28 l 2,21,22
 174 -78 174 -78 200 -88 c 0,23,24
 220 -96 220 -96 316 -96 c 0,25,26
 752 -96 752 -96 1108 2 c 0,27,28
 1124 8 1124 8 1124 84 c 2,29,-1
 1124 348 l 1,30,-1
 968 300 l 1,31,-1
 968 80 l 2,32,33
 968 0 968 0 884 0 c 0,34,35
 808 0 808 0 808 42 c 2,36,-1
 808 594 l 1,37,38
 686 588 686 588 438 500 c 1,39,-1
 438 466 l 1,40,41
 582 510 582 510 648 510 c 0,42,43
 702 510 702 510 719 494 c 128,-1,44
 736 478 736 478 736 428 c 2,45,-1
 736 206 l 2,46,47
 736 102 736 102 712 69 c 128,-1,48
 688 36 688 36 574 16 c 0,49,50
 480 0 480 0 400 0 c 0,51,52
 284 0 284 0 284 114 c 2,53,-1
 284 600 l 2,54,55
 284 662 284 662 334 694 c 0,56,57
 418 748 418 748 702 808 c 0,58,59
 968 864 968 864 1082 864 c 0,60,61
 1200 864 1200 864 1200 746 c 0,62,63
 1200 666 1200 666 1170 632 c 1,64,65
 1112 646 1112 646 978 612 c 1,66,-1
 978 536 l 1,67,68
 1034 550 1034 550 1090 562 c 0,69,70
 1158 578 1158 578 1214 578 c 0,71,72
 1276 578 1276 578 1276 468 c 2,73,-1
 1276 8 l 2,0,1
604 240 m 1,74,-1
 604 296 l 1,75,76
 542 284 542 284 436 254 c 1,77,-1
 436 206 l 1,78,79
 474 210 474 210 517 216 c 128,-1,80
 560 222 560 222 604 240 c 1,74,-1
EndSplineSet
EndChar

StartChar: tm_tta
Encoding: 2975 2975 66
Width: 732
GlyphClass: 2
Flags: W
LayerCount: 2
Fore
SplineSet
708 220 m 0,0,1
 708 122 708 122 686 78 c 1,2,3
 614 40 614 40 466 12 c 0,4,5
 336 -12 336 -12 250 -12 c 0,6,7
 94 -12 94 -12 40 14 c 1,8,-1
 40 734 l 1,9,10
 76 770 76 770 142 770 c 0,11,12
 200 770 200 770 200 712 c 2,13,-1
 200 246 l 1,14,15
 376 248 376 248 674 326 c 1,16,17
 708 302 708 302 708 220 c 0,0,1
EndSplineSet
EndChar

StartChar: tm_nna
Encoding: 2979 2979 67
Width: 1828
GlyphClass: 2
Flags: W
LayerCount: 2
Fore
SplineSet
1804 540 m 1,0,-1
 1664 512 l 1,1,-1
 1664 48 l 2,2,3
 1664 18 1664 18 1639 -4 c 128,-1,4
 1614 -26 1614 -26 1584 -26 c 0,5,6
 1512 -26 1512 -26 1512 32 c 2,7,-1
 1512 490 l 1,8,-1
 1422 462 l 1,9,-1
 1422 150 l 2,10,11
 1422 52 1422 52 1400 36 c 0,12,13
 1334 -10 1334 -10 1154 -10 c 0,14,15
 1060 -10 1060 -10 1028 14 c 0,16,17
 1008 30 1008 30 1008 72 c 2,18,-1
 1008 486 l 1,19,-1
 956 474 l 1,20,-1
 956 138 l 2,21,22
 956 76 956 76 956 74 c 0,23,24
 952 42 952 42 926 30 c 0,25,26
 836 -12 836 -12 640 -12 c 0,27,28
 602 -12 602 -12 568 4 c 128,-1,29
 534 20 534 20 534 46 c 2,30,-1
 534 562 l 1,31,32
 420 558 420 558 192 492 c 1,33,-1
 192 450 l 1,34,35
 328 500 328 500 416 500 c 0,36,37
 476 500 476 500 490 476 c 0,38,39
 496 464 496 464 496 416 c 2,40,-1
 496 144 l 2,41,42
 496 88 496 88 480 70 c 0,43,44
 452 46 452 46 372 26 c 0,45,46
 276 0 276 0 172 0 c 0,47,48
 30 0 30 0 30 128 c 2,49,-1
 30 582 l 2,50,51
 30 644 30 644 82 678 c 0,52,53
 120 702 120 702 246 738 c 0,54,55
 524 818 524 818 870 818 c 0,56,57
 938 818 938 818 956 734 c 1,58,59
 1188 812 1188 812 1300 812 c 0,60,61
 1352 812 1352 812 1370 804 c 0,62,63
 1404 788 1404 788 1420 734 c 1,64,65
 1586 792 1586 792 1758 816 c 1,66,67
 1814 804 1814 804 1814 644 c 0,68,69
 1814 586 1814 586 1804 540 c 1,0,-1
1296 228 m 1,70,-1
 1296 516 l 1,71,72
 1264 524 1264 524 1210 518 c 0,73,74
 1158 512 1158 512 1134 500 c 1,75,-1
 1134 214 l 1,76,77
 1210 202 1210 202 1296 228 c 1,70,-1
832 224 m 1,78,-1
 832 528 l 1,79,80
 820 532 820 532 800 532 c 0,81,82
 758 532 758 532 709 520 c 128,-1,83
 660 508 660 508 656 498 c 1,84,-1
 656 202 l 1,85,86
 734 202 734 202 832 224 c 1,78,-1
376 238 m 1,87,-1
 376 300 l 1,88,89
 308 282 308 282 186 246 c 1,90,-1
 186 200 l 1,91,92
 258 204 258 204 376 238 c 1,87,-1
EndSplineSet
EndChar

StartChar: tm_ta
Encoding: 2980 2980 68
Width: 880
GlyphClass: 2
Flags: W
LayerCount: 2
Fore
SplineSet
850 -86 m 2,0,1
 850 -174 850 -174 818 -200 c 0,2,3
 692 -304 692 -304 -22 -380 c 1,4,5
 -76 -318 -76 -318 -76 -236 c 0,6,7
 -76 -178 -76 -178 -54 -148 c 1,8,9
 106 -144 106 -144 364 -92 c 0,10,11
 608 -42 608 -42 700 0 c 1,12,13
 706 246 706 246 690 328 c 1,14,15
 626 338 626 338 534 312 c 1,16,-1
 534 136 l 2,17,18
 534 42 534 42 494 14 c 0,19,20
 464 -8 464 -8 342 -30 c 0,21,22
 232 -50 232 -50 178 -50 c 0,23,24
 30 -50 30 -50 30 108 c 2,25,-1
 30 346 l 2,26,27
 30 426 30 426 110 458 c 1,28,29
 86 544 86 544 94 694 c 1,30,31
 330 810 330 810 686 850 c 1,32,33
 736 792 736 792 736 724 c 0,34,35
 736 666 736 666 716 622 c 1,36,37
 690 628 690 628 662 628 c 0,38,39
 600 628 600 628 526 598 c 1,40,-1
 526 550 l 1,41,42
 654 580 654 580 736 580 c 0,43,44
 800 580 800 580 814 552 c 0,45,46
 850 480 850 480 850 248 c 2,47,-1
 850 -86 l 2,0,1
380 526 m 1,48,-1
 380 580 l 1,49,50
 370 576 370 576 232 526 c 1,51,-1
 232 484 l 1,52,53
 326 516 326 516 380 526 c 1,48,-1
386 236 m 1,54,-1
 386 298 l 1,55,56
 284 264 284 264 164 244 c 1,57,-1
 164 196 l 1,58,59
 278 192 278 192 386 236 c 1,54,-1
EndSplineSet
EndChar

StartChar: tm_na
Encoding: 2984 2984 69
Width: 826
GlyphClass: 2
Flags: W
LayerCount: 2
Fore
SplineSet
796 238 m 0,0,1
 796 -18 796 -18 794 -62 c 0,2,3
 784 -232 784 -232 740 -262 c 0,4,5
 680 -302 680 -302 494 -342 c 0,6,7
 300 -384 300 -384 156 -384 c 0,8,9
 -6 -384 -6 -384 -6 -232 c 0,10,11
 -6 -198 -6 -198 2 -138 c 1,12,13
 382 -144 382 -144 646 -28 c 1,14,15
 650 224 650 224 644 292 c 1,16,17
 628 298 628 298 608 298 c 0,18,19
 556 298 556 298 502 266 c 1,20,-1
 502 66 l 2,21,22
 502 -26 502 -26 408 -26 c 0,23,24
 384 -26 384 -26 367 -8 c 128,-1,25
 350 10 350 10 350 32 c 2,26,-1
 350 558 l 1,27,28
 304 550 304 550 190 502 c 1,29,-1
 190 74 l 2,30,31
 190 -16 190 -16 110 -16 c 0,32,33
 66 -16 66 -16 53 -1 c 128,-1,34
 40 14 40 14 40 52 c 2,35,-1
 40 616 l 2,36,37
 40 678 40 678 73 708 c 128,-1,38
 106 738 106 738 202 758 c 0,39,40
 316 784 316 784 430 810 c 0,41,42
 586 844 586 844 654 844 c 0,43,44
 676 844 676 844 694 812 c 128,-1,45
 712 780 712 780 712 730 c 0,46,47
 712 664 712 664 682 614 c 1,48,49
 632 614 632 614 502 584 c 1,50,-1
 502 514 l 1,51,52
 670 552 670 552 684 552 c 0,53,54
 770 552 770 552 790 428 c 0,55,56
 796 396 796 396 796 238 c 0,0,1
EndSplineSet
EndChar

StartChar: tm_nnna
Encoding: 2985 2985 70
Width: 1346
GlyphClass: 2
Flags: W
LayerCount: 2
Fore
SplineSet
1330 624 m 0,0,1
 1330 526 1330 526 1312 502 c 1,2,-1
 1190 488 l 1,3,-1
 1190 22 l 2,4,5
 1190 -42 1190 -42 1088 -42 c 0,6,7
 1028 -42 1028 -42 1028 0 c 2,8,-1
 1028 464 l 1,9,-1
 940 450 l 1,10,-1
 940 74 l 2,11,12
 940 12 940 12 902 -12 c 0,13,14
 830 -58 830 -58 620 -58 c 0,15,16
 556 -58 556 -58 528 20 c 1,17,18
 518 92 518 92 516 288 c 0,19,20
 514 504 514 504 530 538 c 1,21,22
 348 520 348 520 192 468 c 1,23,-1
 192 428 l 1,24,25
 292 478 292 478 408 478 c 0,26,27
 476 478 476 478 486 438 c 0,28,29
 490 420 490 420 490 380 c 2,30,-1
 490 158 l 2,31,32
 490 56 490 56 466 34 c 0,33,34
 436 6 436 6 347 -15 c 128,-1,35
 258 -36 258 -36 168 -36 c 0,36,37
 114 -36 114 -36 89 -24 c 128,-1,38
 64 -12 64 -12 46 30 c 1,39,40
 22 356 22 356 52 638 c 1,41,42
 122 694 122 694 276 734 c 0,43,44
 484 788 484 788 770 788 c 0,45,46
 900 788 900 788 932 716 c 1,47,48
 1088 750 1088 750 1100 752 c 0,49,50
 1198 770 1198 770 1284 774 c 1,51,52
 1330 748 1330 748 1330 624 c 0,0,1
796 516 m 1,53,-1
 670 492 l 1,54,55
 664 450 664 450 664 340 c 0,56,57
 664 222 664 222 676 176 c 1,58,-1
 794 198 l 1,59,60
 816 392 816 392 796 516 c 1,53,-1
370 212 m 1,61,-1
 370 262 l 1,62,63
 330 258 330 258 192 224 c 1,64,-1
 192 168 l 1,65,66
 306 182 306 182 370 212 c 1,61,-1
EndSplineSet
EndChar

StartChar: tm_pa
Encoding: 2986 2986 71
Width: 708
GlyphClass: 2
Flags: W
LayerCount: 2
Fore
SplineSet
668 182 m 2,0,1
 668 118 668 118 626 82 c 0,2,3
 530 0 530 0 246 0 c 0,4,5
 40 0 40 0 40 48 c 2,6,-1
 40 718 l 2,7,8
 40 764 40 764 72 780 c 0,9,10
 94 792 94 792 150 792 c 0,11,12
 212 792 212 792 212 708 c 2,13,-1
 212 264 l 1,14,15
 380 260 380 260 506 322 c 1,16,-1
 506 832 l 2,17,18
 506 914 506 914 572 914 c 0,19,20
 668 914 668 914 668 838 c 2,21,-1
 668 182 l 2,0,1
EndSplineSet
EndChar

StartChar: tm_ma
Encoding: 2990 2990 72
Width: 776
GlyphClass: 2
Flags: W
LayerCount: 2
Fore
SplineSet
736 252 m 2,0,1
 736 150 736 150 696 116 c 0,2,3
 632 64 632 64 472 24 c 0,4,5
 324 -12 324 -12 202 -12 c 0,6,7
 40 -12 40 -12 40 80 c 2,8,-1
 40 710 l 2,9,10
 40 732 40 732 74 750 c 128,-1,11
 108 768 108 768 134 768 c 0,12,13
 188 768 188 768 188 714 c 2,14,-1
 188 234 l 1,15,-1
 248 256 l 1,16,-1
 248 576 l 2,17,18
 248 642 248 642 292 674 c 0,19,20
 352 716 352 716 456 748 c 128,-1,21
 560 780 560 780 632 780 c 0,22,23
 736 780 736 780 736 674 c 2,24,-1
 736 252 l 2,0,1
598 350 m 1,25,-1
 598 522 l 1,26,27
 514 514 514 514 388 454 c 1,28,-1
 388 286 l 1,29,30
 420 288 420 288 502 314 c 128,-1,31
 584 340 584 340 598 350 c 1,25,-1
EndSplineSet
EndChar

StartChar: tm_ya
Encoding: 2991 2991 73
Width: 972
GlyphClass: 2
Flags: W
LayerCount: 2
Fore
SplineSet
932 80 m 1,0,1
 914 32 914 32 788 -6 c 128,-1,2
 662 -44 662 -44 498 -44 c 0,3,4
 308 -44 308 -44 308 4 c 2,5,-1
 308 112 l 1,6,7
 256 2 256 2 158 2 c 0,8,9
 40 2 40 2 40 150 c 2,10,-1
 40 774 l 2,11,12
 40 838 40 838 132 838 c 0,13,14
 190 838 190 838 198 812 c 1,15,-1
 198 332 l 2,16,17
 198 278 198 278 244 278 c 0,18,19
 308 278 308 278 308 334 c 2,20,-1
 308 718 l 1,21,22
 336 758 336 758 396 758 c 0,23,24
 450 758 450 758 458 732 c 0,25,26
 462 720 462 720 462 692 c 2,27,-1
 462 224 l 1,28,29
 672 220 672 220 774 272 c 1,30,-1
 774 838 l 1,31,32
 790 868 790 868 848 868 c 0,33,34
 932 868 932 868 932 796 c 2,35,-1
 932 80 l 1,0,1
EndSplineSet
EndChar

StartChar: tm_ra
Encoding: 2992 2992 74
Width: 638
GlyphClass: 2
Flags: W
LayerCount: 2
Fore
SplineSet
624 668 m 0,0,1
 624 612 624 612 594 566 c 1,2,-1
 506 566 l 1,3,-1
 506 -226 l 1,4,5
 342 -282 342 -282 40 -336 c 1,6,7
 12 -324 12 -324 -10 -252 c 0,8,9
 -28 -190 -28 -190 -28 -138 c 0,10,11
 -28 -124 -28 -124 -26 -116 c 1,12,13
 134 -88 134 -88 156 -84 c 0,14,15
 238 -68 238 -68 348 -34 c 1,16,-1
 348 532 l 1,17,-1
 194 482 l 1,18,-1
 194 36 l 2,19,20
 194 10 194 10 167 -9 c 128,-1,21
 140 -28 140 -28 108 -28 c 0,22,23
 50 -28 50 -28 40 0 c 1,24,-1
 40 674 l 1,25,26
 122 714 122 714 286 758 c 0,27,28
 460 804 460 804 550 804 c 0,29,30
 624 804 624 804 624 668 c 0,0,1
EndSplineSet
EndChar

StartChar: tm_rra
Encoding: 2993 2993 75
Width: 868
GlyphClass: 2
Flags: W
LayerCount: 2
Fore
SplineSet
828 -90 m 2,0,1
 828 -146 828 -146 778 -174 c 128,-1,2
 728 -202 728 -202 508 -264 c 0,3,4
 244 -338 244 -338 38 -366 c 1,5,6
 -30 -310 -30 -310 -30 -202 c 0,7,8
 -30 -174 -30 -174 -24 -144 c 1,9,10
 172 -114 172 -114 380 -61 c 128,-1,11
 588 -8 588 -8 648 28 c 0,12,13
 674 44 674 44 674 80 c 2,14,-1
 674 544 l 1,15,16
 512 522 512 522 462 474 c 1,17,-1
 462 92 l 2,18,19
 462 -6 462 -6 336 -6 c 0,20,21
 304 -6 304 -6 304 38 c 2,22,-1
 304 504 l 2,23,24
 304 540 304 540 284 540 c 0,25,26
 216 540 216 540 188 510 c 1,27,-1
 188 84 l 2,28,29
 188 -6 188 -6 96 -6 c 0,30,31
 40 -6 40 -6 40 92 c 2,32,-1
 40 602 l 2,33,34
 40 716 40 716 76 740 c 0,35,36
 192 816 192 816 338 816 c 0,37,38
 374 816 374 816 411 798 c 128,-1,39
 448 780 448 780 448 758 c 2,40,-1
 448 712 l 1,41,42
 582 800 582 800 728 800 c 0,43,44
 828 800 828 800 828 674 c 2,45,-1
 828 -90 l 2,0,1
EndSplineSet
EndChar

StartChar: tm_la
Encoding: 2994 2994 76
Width: 956
GlyphClass: 2
Flags: W
LayerCount: 2
Fore
SplineSet
916 140 m 2,0,1
 916 56 916 56 872 30 c 0,2,3
 774 -28 774 -28 600 -28 c 0,4,5
 546 -28 546 -28 528 -8 c 128,-1,6
 510 12 510 12 510 72 c 2,7,-1
 510 574 l 2,8,9
 510 602 510 602 480 602 c 0,10,11
 430 602 430 602 333 573 c 128,-1,12
 236 544 236 544 182 514 c 1,13,-1
 182 478 l 1,14,15
 288 520 288 520 356 520 c 0,16,17
 412 520 412 520 437 484 c 128,-1,18
 462 448 462 448 462 352 c 2,19,-1
 462 198 l 2,20,21
 462 104 462 104 427 73 c 128,-1,22
 392 42 392 42 304 21 c 128,-1,23
 216 0 216 0 124 0 c 0,24,25
 40 0 40 0 40 126 c 2,26,-1
 40 594 l 2,27,28
 40 696 40 696 208 762 c 0,29,30
 354 820 354 820 530 820 c 0,31,32
 602 820 602 820 624 804 c 0,33,34
 650 782 650 782 650 706 c 2,35,-1
 650 256 l 2,36,37
 650 228 650 228 706 228 c 0,38,39
 774 228 774 228 774 284 c 2,40,-1
 774 516 l 1,41,42
 740 516 740 516 716 508 c 1,43,44
 692 558 692 558 692 656 c 0,45,46
 692 736 692 736 708 764 c 1,47,48
 742 802 742 802 852 802 c 0,49,50
 874 802 874 802 895 782 c 128,-1,51
 916 762 916 762 916 734 c 2,52,-1
 916 140 l 2,0,1
336 240 m 1,53,-1
 336 308 l 1,54,55
 276 296 276 296 262 292 c 0,56,57
 214 278 214 278 190 258 c 1,58,-1
 190 210 l 1,59,60
 264 208 264 208 336 240 c 1,53,-1
EndSplineSet
EndChar

StartChar: tm_lla
Encoding: 2995 2995 77
Width: 1110
GlyphClass: 2
Flags: W
LayerCount: 2
Fore
SplineSet
1096 656 m 0,0,1
 1096 552 1096 552 1068 524 c 1,2,3
 1026 522 1026 522 938 510 c 1,4,-1
 938 26 l 1,5,6
 910 -12 910 -12 852 -12 c 0,7,8
 780 -12 780 -12 780 56 c 2,9,-1
 780 482 l 1,10,11
 708 464 708 464 678 452 c 1,12,-1
 678 32 l 2,13,14
 678 -8 678 -8 580 -8 c 0,15,16
 522 -8 522 -8 522 54 c 2,17,-1
 522 604 l 1,18,19
 458 608 458 608 338 584 c 0,20,21
 210 560 210 560 180 534 c 1,22,-1
 180 482 l 1,23,24
 192 492 192 492 266 512 c 0,25,26
 348 534 348 534 390 534 c 0,27,28
 458 534 458 534 458 436 c 2,29,-1
 458 132 l 2,30,31
 458 58 458 58 410 26 c 0,32,33
 382 8 382 8 297 -6 c 128,-1,34
 212 -20 212 -20 158 -20 c 0,35,36
 40 -20 40 -20 40 100 c 2,37,-1
 40 632 l 2,38,39
 40 718 40 718 248 780 c 0,40,41
 420 832 420 832 558 832 c 0,42,43
 674 832 674 832 674 724 c 1,44,45
 900 788 900 788 1032 788 c 0,46,47
 1096 788 1096 788 1096 656 c 0,0,1
346 246 m 1,48,-1
 346 292 l 1,49,50
 254 286 254 286 166 248 c 1,51,-1
 166 200 l 1,52,53
 268 206 268 206 346 246 c 1,48,-1
EndSplineSet
EndChar

StartChar: tm_llla
Encoding: 2996 2996 78
Width: 800
GlyphClass: 2
Flags: W
LayerCount: 2
Fore
SplineSet
760 276 m 2,0,1
 760 150 760 150 698 108 c 0,2,3
 606 46 606 46 428 16 c 1,4,-1
 428 -60 l 1,5,6
 624 -14 624 -14 704 30 c 1,7,8
 746 -22 746 -22 746 -86 c 0,9,10
 746 -170 746 -170 720 -214 c 1,11,12
 582 -256 582 -256 382 -292 c 0,13,14
 162 -330 162 -330 56 -326 c 1,15,16
 16 -266 16 -266 16 -206 c 0,17,18
 16 -118 16 -118 40 -102 c 1,19,20
 102 -104 102 -104 276 -80 c 1,21,-1
 276 -2 l 1,22,23
 238 -10 238 -10 180 -10 c 0,24,25
 104 -10 104 -10 72 41 c 128,-1,26
 40 92 40 92 40 220 c 2,27,-1
 40 684 l 2,28,29
 40 726 40 726 69 758 c 128,-1,30
 98 790 98 790 146 790 c 0,31,32
 214 790 214 790 214 750 c 0,33,34
 214 740 214 740 205 706 c 128,-1,35
 196 672 196 672 196 648 c 2,36,-1
 196 238 l 1,37,-1
 256 238 l 1,38,-1
 256 570 l 2,39,40
 256 638 256 638 266 658 c 0,41,42
 280 690 280 690 338 714 c 0,43,44
 526 792 526 792 644 792 c 0,45,46
 760 792 760 792 760 628 c 2,47,-1
 760 276 l 2,0,1
614 346 m 1,48,-1
 614 528 l 1,49,50
 524 524 524 524 404 456 c 1,51,-1
 404 274 l 1,52,53
 476 304 476 304 614 346 c 1,48,-1
EndSplineSet
EndChar

StartChar: tm_va
Encoding: 2997 2997 79
Width: 1008
GlyphClass: 2
Flags: W
LayerCount: 2
Fore
SplineSet
966 90 m 2,0,1
 966 46 966 46 800 6 c 0,2,3
 678 -24 678 -24 544 -38 c 1,4,5
 516 -20 516 -20 506 112 c 0,6,7
 498 226 498 226 508 302 c 1,8,9
 558 326 558 326 558 350 c 2,10,-1
 558 632 l 1,11,12
 542 634 542 634 522 634 c 0,13,14
 450 634 450 634 346 610 c 0,15,16
 250 588 250 588 200 564 c 1,17,-1
 200 522 l 1,18,19
 324 562 324 562 380 562 c 0,20,21
 480 562 480 562 480 350 c 0,22,23
 480 196 480 196 470 142 c 0,24,25
 448 34 448 34 372 12 c 0,26,27
 256 -22 256 -22 176 -22 c 0,28,29
 36 -22 36 -22 36 198 c 2,30,-1
 36 582 l 2,31,32
 36 698 36 698 73 744 c 128,-1,33
 110 790 110 790 288 828 c 0,34,35
 448 862 448 862 576 862 c 0,36,37
 716 862 716 862 716 744 c 2,38,-1
 716 382 l 2,39,40
 716 276 716 276 670 222 c 1,41,-1
 784 250 l 2,42,43
 812 256 812 256 812 290 c 2,44,-1
 812 814 l 1,45,46
 844 848 844 848 896 848 c 0,47,48
 940 848 940 848 956 830 c 0,49,50
 966 816 966 816 966 774 c 2,51,-1
 966 90 l 2,0,1
332 270 m 1,52,-1
 332 338 l 1,53,54
 324 334 324 334 260 320 c 0,55,56
 210 306 210 306 188 288 c 1,57,-1
 188 242 l 1,58,59
 256 248 256 248 332 270 c 1,52,-1
EndSplineSet
EndChar

StartChar: tm_ssa
Encoding: 2999 2999 80
Width: 1348
GlyphClass: 2
Flags: W
LayerCount: 2
Fore
SplineSet
1334 218 m 0,0,1
 1334 120 1334 120 1300 62 c 1,2,3
 1074 24 1074 24 962 0 c 1,4,5
 874 -130 874 -130 702 -366 c 1,6,7
 664 -360 664 -360 623 -336 c 128,-1,8
 582 -312 582 -312 576 -286 c 1,9,10
 682 -154 682 -154 786 -12 c 1,11,-1
 540 -26 l 1,12,13
 496 8 496 8 496 210 c 0,14,15
 496 250 496 250 498 290 c 1,16,17
 516 298 516 298 548 312 c 1,18,-1
 548 562 l 2,19,20
 548 622 548 622 508 622 c 0,21,22
 440 622 440 622 340 596 c 128,-1,23
 240 570 240 570 184 542 c 1,24,-1
 184 502 l 1,25,26
 280 542 280 542 376 542 c 0,27,28
 452 542 452 542 452 412 c 2,29,-1
 452 136 l 2,30,31
 452 36 452 36 382 0 c 0,32,33
 320 -32 320 -32 160 -32 c 0,34,35
 40 -32 40 -32 40 206 c 2,36,-1
 40 530 l 2,37,38
 40 666 40 666 66 720 c 0,39,40
 78 746 78 746 238 796 c 0,41,42
 412 850 412 850 534 850 c 0,43,44
 626 850 626 850 659 803 c 128,-1,45
 692 756 692 756 692 616 c 2,46,-1
 692 336 l 2,47,48
 692 256 692 256 642 216 c 1,49,50
 764 216 764 216 854 226 c 1,51,52
 800 254 800 254 786 274 c 0,53,54
 764 302 764 302 764 358 c 2,55,-1
 764 598 l 2,56,57
 764 700 764 700 810 738 c 0,58,59
 850 772 850 772 944 795 c 128,-1,60
 1038 818 1038 818 1122 818 c 0,61,62
 1220 818 1220 818 1220 702 c 2,63,-1
 1220 458 l 2,64,65
 1220 352 1220 352 1146 268 c 1,66,67
 1210 286 1210 286 1288 312 c 1,68,69
 1304 304 1304 304 1319 273 c 128,-1,70
 1334 242 1334 242 1334 218 c 0,0,1
1058 406 m 2,71,-1
 1058 564 l 1,72,73
 1024 556 1024 556 990 550 c 0,74,75
 950 540 950 540 928 516 c 1,76,-1
 928 350 l 2,77,78
 928 288 928 288 990 274 c 1,79,80
 1058 342 1058 342 1058 406 c 2,71,-1
338 262 m 1,81,-1
 338 316 l 1,82,83
 304 314 304 314 184 282 c 1,84,-1
 184 230 l 1,85,86
 268 226 268 226 338 262 c 1,81,-1
EndSplineSet
EndChar

StartChar: tm_sa
Encoding: 3000 3000 81
Width: 1246
GlyphClass: 2
Flags: W
LayerCount: 2
Fore
SplineSet
1206 128 m 2,0,1
 1206 24 1206 24 1144 -18 c 0,2,3
 1076 -62 1076 -62 890 -62 c 0,4,5
 764 -62 764 -62 764 112 c 0,6,7
 764 174 764 174 772 261 c 128,-1,8
 780 348 780 348 780 400 c 0,9,10
 780 444 780 444 773 461 c 128,-1,11
 766 478 766 478 738 478 c 0,12,13
 674 478 674 478 674 410 c 2,14,-1
 674 -2 l 2,15,16
 674 -44 674 -44 590 -44 c 0,17,18
 542 -44 542 -44 536 -28 c 0,19,20
 534 -20 534 -20 534 -6 c 2,21,-1
 534 578 l 1,22,23
 468 586 468 586 344 550 c 0,24,25
 238 518 238 518 184 486 c 1,26,-1
 184 450 l 1,27,28
 224 464 224 464 262 478 c 0,29,30
 310 494 310 494 356 494 c 0,31,32
 420 494 420 494 448 462 c 128,-1,33
 476 430 476 430 476 344 c 0,34,35
 476 68 476 68 414 30 c 0,36,37
 302 -38 302 -38 152 -38 c 0,38,39
 40 -38 40 -38 40 88 c 2,40,-1
 40 562 l 2,41,42
 40 658 40 658 150 716 c 0,43,44
 310 800 310 800 552 800 c 0,45,46
 618 800 618 800 646 786 c 0,47,48
 684 764 684 764 686 702 c 1,49,50
 722 712 722 712 760 724 c 0,51,52
 824 742 824 742 864 742 c 256,53,54
 904 742 904 742 918 730 c 0,55,56
 936 712 936 712 936 662 c 0,57,58
 936 616 936 616 930 501 c 128,-1,59
 924 386 924 386 924 332 c 0,60,61
 924 194 924 194 954 194 c 0,62,63
 1064 194 1064 194 1064 280 c 2,64,-1
 1064 474 l 2,65,66
 1064 546 1064 546 1020 546 c 0,67,68
 1010 546 1010 546 996 544 c 1,69,-1
 996 774 l 1,70,71
 1048 788 1048 788 1090 788 c 0,72,73
 1206 788 1206 788 1206 682 c 2,74,-1
 1206 128 l 2,0,1
344 210 m 1,75,-1
 344 270 l 1,76,77
 268 280 268 280 180 224 c 1,78,-1
 180 176 l 1,79,80
 288 172 288 172 344 210 c 1,75,-1
EndSplineSet
EndChar

StartChar: tm_ha
Encoding: 3001 3001 82
Width: 1646
GlyphClass: 2
Flags: W
LayerCount: 2
Fore
SplineSet
1606 -72 m 2,0,1
 1606 -146 1606 -146 1492 -198 c 0,2,3
 1314 -280 1314 -280 860 -340 c 0,4,5
 444 -396 444 -396 116 -396 c 0,6,7
 38 -396 38 -396 19 -372 c 128,-1,8
 0 -348 0 -348 0 -262 c 0,9,10
 0 -186 0 -186 22 -170 c 1,11,12
 674 -176 674 -176 1142 -66 c 0,13,14
 1448 6 1448 6 1448 70 c 2,15,-1
 1448 532 l 1,16,17
 1342 528 1342 528 1232 474 c 1,18,-1
 1232 48 l 2,19,20
 1232 -20 1232 -20 1116 -20 c 0,21,22
 1078 -20 1078 -20 1078 18 c 2,23,-1
 1078 518 l 2,24,25
 1078 544 1078 544 1054 544 c 0,26,27
 1000 544 1000 544 968 502 c 1,28,-1
 968 76 l 2,29,30
 968 24 968 24 926 0 c 0,31,32
 832 -56 832 -56 502 -72 c 1,33,34
 490 112 490 112 520 274 c 1,35,36
 568 280 568 280 568 326 c 2,37,-1
 568 598 l 1,38,39
 552 602 552 602 528 602 c 0,40,41
 456 602 456 602 350 578 c 0,42,43
 252 556 252 556 218 538 c 1,44,-1
 218 494 l 1,45,46
 340 530 340 530 396 530 c 0,47,48
 492 530 492 530 492 314 c 0,49,50
 492 226 492 226 474 128 c 0,51,52
 460 42 460 42 448 26 c 0,53,54
 428 0 428 0 346 -22 c 128,-1,55
 264 -44 264 -44 168 -44 c 0,56,57
 40 -44 40 -44 40 86 c 2,58,-1
 40 400 l 2,59,60
 40 568 40 568 82 698 c 1,61,62
 126 738 126 738 270 778 c 0,63,64
 426 820 426 820 560 820 c 0,65,66
 728 820 728 820 728 676 c 2,67,-1
 728 438 l 2,68,69
 728 236 728 236 662 186 c 1,70,71
 764 196 764 196 818 220 c 1,72,-1
 818 646 l 2,73,74
 818 720 818 720 860 750 c 0,75,76
 896 776 896 776 982 792 c 0,77,78
 1058 808 1058 808 1120 808 c 0,79,80
 1162 808 1162 808 1196 787 c 128,-1,81
 1230 766 1230 766 1230 730 c 0,82,83
 1230 722 1230 722 1228 712 c 1,84,85
 1360 784 1360 784 1500 784 c 0,86,87
 1606 784 1606 784 1606 694 c 2,88,-1
 1606 -72 l 2,0,1
362 250 m 1,89,-1
 362 314 l 1,90,91
 346 316 346 316 287 299 c 128,-1,92
 228 282 228 282 196 266 c 1,93,-1
 196 216 l 1,94,95
 300 220 300 220 362 250 c 1,89,-1
EndSplineSet
EndChar

StartChar: tm_aakaar
Encoding: 3006 3006 83
Width: 644
GlyphClass: 2
Flags: W
LayerCount: 2
Fore
SplineSet
630 598 m 1,0,1
 580 618 580 618 516 596 c 1,2,-1
 516 48 l 2,3,4
 516 28 516 28 488 10 c 128,-1,5
 460 -8 460 -8 416 -8 c 0,6,7
 342 -8 342 -8 342 58 c 2,8,-1
 342 568 l 1,9,-1
 198 528 l 1,10,-1
 198 70 l 2,11,12
 198 0 198 0 122 0 c 0,13,14
 58 0 58 0 40 26 c 1,15,-1
 40 710 l 1,16,17
 108 758 108 758 276 804 c 0,18,19
 432 844 432 844 518 844 c 0,20,21
 568 844 568 844 599 817 c 128,-1,22
 630 790 630 790 630 752 c 2,23,-1
 630 598 l 1,0,1
EndSplineSet
EndChar

StartChar: tm_ikaar
Encoding: 3007 3007 84
Width: 836
GlyphClass: 2
Flags: W
LayerCount: 2
Fore
SplineSet
1042 48 m 2,0,1
 1042 -24 1042 -24 968 -24 c 0,2,3
 942 -24 942 -24 920 -8 c 128,-1,4
 898 8 898 8 898 26 c 2,5,-1
 898 936 l 2,6,7
 898 964 898 964 874 964 c 0,8,9
 772 964 772 964 670 942 c 0,10,11
 576 922 576 922 542 898 c 1,12,-1
 544 840 l 1,13,-1
 398 808 l 1,14,-1
 398 1060 l 1,15,16
 466 1118 466 1118 624 1158 c 128,-1,17
 782 1198 782 1198 926 1198 c 0,18,19
 968 1198 968 1198 1005 1178 c 128,-1,20
 1042 1158 1042 1158 1042 1128 c 2,21,-1
 1042 48 l 2,0,1
EndSplineSet
EndChar

StartChar: tm_iikaar
Encoding: 3008 3008 85
Width: 890
GlyphClass: 4
Flags: W
LayerCount: 2
Fore
SplineSet
366 802 m 1,0,1
 292 838 292 838 292 1038 c 0,2,3
 292 1228 292 1228 323 1275 c 128,-1,4
 354 1322 354 1322 462 1352 c 0,5,6
 546 1374 546 1374 610 1374 c 0,7,8
 692 1374 692 1374 692 1282 c 2,9,-1
 692 1086 l 2,10,11
 692 992 692 992 671 963 c 128,-1,12
 650 934 650 934 605 917 c 128,-1,13
 560 900 560 900 532 900 c 0,14,15
 484 900 484 900 466 922 c 1,16,17
 450 840 450 840 544 838 c 1,18,-1
 366 802 l 1,0,1
560 1118 m 1,19,-1
 560 1170 l 1,20,21
 502 1186 502 1186 462 1150 c 1,22,-1
 462 1092 l 1,23,24
 538 1102 538 1102 560 1118 c 1,19,-1
EndSplineSet
EndChar

StartChar: tm_ukaar
Encoding: 3009 3009 86
Width: 641
GlyphClass: 4
Flags: W
LayerCount: 2
Fore
SplineSet
588 653 m 0,0,1
 588 555 588 555 586 537 c 0,2,3
 578 467 578 467 542 437 c 0,4,5
 458 371 458 371 264 371 c 0,6,7
 210 371 210 371 174 409 c 128,-1,8
 138 447 138 447 138 487 c 2,9,-1
 138 571 l 1,10,-1
 -22 559 l 1,11,-1
 -22 787 l 1,12,13
 140 807 140 807 266 829 c 128,-1,14
 392 851 392 851 450 851 c 0,15,16
 532 851 532 851 560 808 c 128,-1,17
 588 765 588 765 588 653 c 0,0,1
446 601 m 1,18,-1
 446 657 l 1,19,20
 436 659 436 659 424 659 c 0,21,22
 376 659 376 659 276 623 c 1,23,-1
 276 575 l 1,24,25
 348 555 348 555 446 601 c 1,18,-1
EndSplineSet
EndChar

StartChar: tm_uukaar
Encoding: 3010 3010 87
Width: 648
GlyphClass: 4
Flags: W
LayerCount: 2
Fore
SplineSet
588 720 m 0,0,1
 588 512 588 512 560 474 c 0,2,3
 526 428 526 428 412 404 c 0,4,5
 328 384 328 384 246 384 c 0,6,7
 146 384 146 384 146 462 c 2,8,-1
 146 590 l 1,9,10
 116 588 116 588 -32 560 c 1,11,-1
 -28 788 l 1,12,13
 8 802 8 802 146 806 c 1,14,-1
 146 960 l 2,15,16
 146 1050 146 1050 216 1104 c 0,17,18
 262 1140 262 1140 364 1174 c 128,-1,19
 466 1208 466 1208 522 1208 c 0,20,21
 584 1208 584 1208 584 1086 c 0,22,23
 584 1026 584 1026 566 992 c 1,24,25
 496 984 496 984 388 944 c 128,-1,26
 280 904 280 904 280 888 c 2,27,-1
 280 840 l 1,28,29
 366 874 366 874 472 874 c 0,30,31
 546 874 546 874 570 830 c 0,32,33
 588 800 588 800 588 720 c 0,0,1
456 630 m 1,34,-1
 456 686 l 1,35,36
 386 686 386 686 280 644 c 1,37,-1
 280 596 l 1,38,39
 354 584 354 584 456 630 c 1,34,-1
EndSplineSet
EndChar

StartChar: tm_ekaar
Encoding: 3014 3014 88
Width: 786
GlyphClass: 2
Flags: W
LayerCount: 2
Fore
SplineSet
746 14 m 2,0,1
 746 -68 746 -68 674 -68 c 0,2,3
 622 -68 622 -68 603 -52 c 128,-1,4
 584 -36 584 -36 584 8 c 2,5,-1
 584 698 l 2,6,7
 584 740 584 740 540 740 c 0,8,9
 478 740 478 740 350 694 c 128,-1,10
 222 648 222 648 194 614 c 1,11,-1
 194 470 l 1,12,13
 342 516 342 516 414 516 c 0,14,15
 506 516 506 516 506 432 c 2,16,-1
 506 176 l 2,17,18
 506 82 506 82 462 52 c 0,19,20
 384 0 384 0 152 0 c 0,21,22
 40 0 40 0 40 116 c 2,23,-1
 40 602 l 2,24,25
 40 718 40 718 70 772 c 128,-1,26
 100 826 100 826 182 866 c 0,27,28
 376 962 376 962 638 962 c 0,29,30
 746 962 746 962 746 862 c 2,31,-1
 746 14 l 2,0,1
368 240 m 1,32,-1
 368 298 l 1,33,34
 244 280 244 280 196 250 c 1,35,-1
 196 204 l 1,36,37
 220 198 220 198 280 212 c 128,-1,38
 340 226 340 226 368 240 c 1,32,-1
EndSplineSet
EndChar

StartChar: tm_eekaar
Encoding: 3015 3015 89
Width: 724
GlyphClass: 2
Flags: W
LayerCount: 2
Fore
SplineSet
694 236 m 2,0,1
 694 98 694 98 637 56 c 128,-1,2
 580 14 580 14 428 -18 c 0,3,4
 292 -48 292 -48 196 -48 c 0,5,6
 106 -48 106 -48 73 -6 c 128,-1,7
 40 36 40 36 40 150 c 2,8,-1
 40 906 l 2,9,10
 40 1020 40 1020 96 1068 c 0,11,12
 144 1110 144 1110 306 1154 c 0,13,14
 456 1196 456 1196 526 1196 c 0,15,16
 670 1196 670 1196 670 1044 c 2,17,-1
 670 860 l 2,18,19
 670 772 670 772 648 734 c 0,20,21
 632 706 632 706 578 678 c 0,22,23
 476 624 476 624 358 624 c 0,24,25
 256 624 256 624 256 742 c 2,26,-1
 256 860 l 1,27,28
 184 840 184 840 184 768 c 2,29,-1
 184 292 l 2,30,31
 184 230 184 230 264 236 c 1,32,-1
 264 430 l 2,33,34
 264 520 264 520 318 552 c 0,35,36
 358 576 358 576 446 596 c 0,37,38
 522 612 522 612 558 612 c 0,39,40
 636 612 636 612 665 583 c 128,-1,41
 694 554 694 554 694 474 c 2,42,-1
 694 236 l 2,0,1
522 872 m 1,43,-1
 522 922 l 1,44,45
 518 922 518 922 382 884 c 1,46,-1
 382 836 l 1,47,48
 460 838 460 838 522 872 c 1,43,-1
550 298 m 1,49,-1
 550 416 l 1,50,-1
 406 370 l 1,51,-1
 406 250 l 1,52,-1
 550 298 l 1,49,-1
EndSplineSet
EndChar

StartChar: tm_aikaar
Encoding: 3016 3016 90
Width: 1250
GlyphClass: 2
Flags: W
LayerCount: 2
Fore
SplineSet
1210 152 m 2,0,1
 1210 48 1210 48 1157 -6 c 128,-1,2
 1104 -60 1104 -60 1024 -60 c 0,3,4
 982 -60 982 -60 982 -22 c 2,5,-1
 982 158 l 1,6,7
 1052 178 1052 178 1052 228 c 2,8,-1
 1052 486 l 1,9,10
 1036 496 1036 496 1014 496 c 0,11,12
 978 496 978 496 958 474 c 1,13,-1
 958 74 l 2,14,15
 958 34 958 34 884 4 c 0,16,17
 800 -28 800 -28 664 -28 c 0,18,19
 598 -28 598 -28 574 -16 c 0,20,21
 538 4 538 4 538 66 c 2,22,-1
 538 530 l 2,23,24
 538 558 538 558 512 558 c 0,25,26
 388 558 388 558 184 488 c 1,27,-1
 184 452 l 1,28,29
 304 498 304 498 432 498 c 0,30,31
 506 498 506 498 506 408 c 2,32,-1
 506 206 l 2,33,34
 506 96 506 96 482 66 c 128,-1,35
 458 36 458 36 351 9 c 128,-1,36
 244 -18 244 -18 164 -18 c 0,37,38
 94 -18 94 -18 67 10 c 128,-1,39
 40 38 40 38 40 120 c 2,40,-1
 40 592 l 2,41,42
 40 650 40 650 72 672 c 0,43,44
 148 724 148 724 350 766 c 0,45,46
 574 812 574 812 802 812 c 0,47,48
 950 812 950 812 956 732 c 1,49,50
 1038 770 1038 770 1120 770 c 0,51,52
 1210 770 1210 770 1210 668 c 2,53,-1
 1210 152 l 2,0,1
826 224 m 1,54,55
 844 484 844 484 818 528 c 1,56,57
 724 534 724 534 660 500 c 1,58,-1
 660 200 l 1,59,60
 684 198 684 198 743 206 c 128,-1,61
 802 214 802 214 826 224 c 1,54,55
376 240 m 1,62,-1
 376 296 l 1,63,64
 308 288 308 288 184 246 c 1,65,-1
 184 198 l 1,66,67
 230 184 230 184 376 240 c 1,62,-1
EndSplineSet
EndChar

StartChar: tm_halant
Encoding: 3021 3021 94
Width: 339
GlyphClass: 4
Flags: W
LayerCount: 2
Fore
SplineSet
223 1149 m 0,0,1
 157 1149 157 1149 109.5 1196.5 c 128,-1,2
 62 1244 62 1244 62 1310 c 0,3,4
 62 1378 62 1378 109.5 1424.5 c 128,-1,5
 157 1471 157 1471 223 1471 c 0,6,7
 290 1471 290 1471 337 1424.5 c 128,-1,8
 384 1378 384 1378 384 1310 c 0,9,10
 384 1244 384 1244 337 1196.5 c 128,-1,11
 290 1149 290 1149 223 1149 c 0,0,1
EndSplineSet
EndChar

StartChar: tm_two
Encoding: 3048 3048 97
Width: 1425
GlyphClass: 2
Flags: W
LayerCount: 2
Fore
SplineSet
1244 70 m 1,0,-1
 1226 0 l 1,1,-1
 586 0 l 2,2,3
 429 0 429 0 429 106 c 0,4,5
 429 153 429 153 478 181.5 c 128,-1,6
 527 210 527 210 586 210 c 2,7,-1
 779 210 l 2,8,9
 867 210 867 210 928 271.5 c 128,-1,10
 989 333 989 333 989 420 c 0,11,12
 989 500 989 500 945 560.5 c 128,-1,13
 901 621 901 621 831 621 c 0,14,15
 793 621 793 621 744 595 c 1,16,17
 814 555 814 555 814 437 c 0,18,19
 814 382 814 382 772.5 344.5 c 128,-1,20
 731 307 731 307 675 307 c 0,21,22
 618 307 618 307 580 351 c 128,-1,23
 542 395 542 395 542 455 c 0,24,25
 542 565 542 565 646.5 632.5 c 128,-1,26
 751 700 751 700 884 700 c 0,27,28
 987 700 987 700 1058 629 c 128,-1,29
 1129 558 1129 558 1129 455 c 0,30,31
 1129 321 1129 321 1025.5 230.5 c 128,-1,32
 922 140 922 140 779 140 c 2,33,-1
 595 140 l 2,34,35
 551 140 551 140 551 106 c 0,36,37
 551 70 551 70 604 70 c 2,38,-1
 1244 70 l 1,0,-1
675 560 m 1,39,40
 621 516 621 516 621 473 c 0,41,42
 621 386 621 386 666 386 c 0,43,44
 709 386 709 386 709 473 c 0,45,46
 709 518 709 518 675 560 c 1,39,40
EndSplineSet
EndChar

StartChar: tm_three
Encoding: 3049 3049 98
Width: 1424
GlyphClass: 2
Flags: W
LayerCount: 2
Fore
SplineSet
1270 70 m 1,0,-1
 1252 0 l 1,1,-1
 640 0 l 1,2,-1
 657 70 l 1,3,-1
 780 70 l 2,4,5
 874 70 874 70 941 130.5 c 128,-1,6
 1008 191 1008 191 1008 280 c 0,7,8
 1008 317 1008 317 982.5 342.5 c 128,-1,9
 957 368 957 368 920 368 c 0,10,11
 890 368 890 368 865 341 c 128,-1,12
 840 314 840 314 833 280 c 2,13,-1
 815 193 l 1,14,-1
 675 193 l 1,15,-1
 764 630 l 1,16,-1
 571 630 l 1,17,-1
 444 0 l 1,18,-1
 378 0 l 1,19,-1
 517 700 l 1,20,-1
 1095 700 l 1,21,-1
 1077 630 l 1,22,-1
 902 630 l 1,23,-1
 859 403 l 1,24,25
 918 455 918 455 990 455 c 0,26,27
 1057 455 1057 455 1102.5 403.5 c 128,-1,28
 1148 352 1148 352 1148 280 c 0,29,30
 1148 209 1148 209 1090 151 c 128,-1,31
 1032 93 1032 93 947 70 c 1,32,-1
 1270 70 l 1,0,-1
EndSplineSet
EndChar

StartChar: tm_four
Encoding: 3050 3050 99
Width: 1427
GlyphClass: 2
Flags: W
LayerCount: 2
Fore
SplineSet
915 316 m 1,0,-1
 644 316 l 2,1,2
 601 316 601 316 570.5 291 c 128,-1,3
 540 266 540 266 540 228 c 0,4,5
 540 158 540 158 609.5 114 c 128,-1,6
 679 70 679 70 766 70 c 0,7,8
 811 70 811 70 844 99.5 c 128,-1,9
 877 129 877 129 887 175 c 2,10,-1
 915 316 l 1,0,-1
979 630 m 1,11,-1
 784 630 l 1,12,-1
 735 386 l 1,13,-1
 930 386 l 1,14,-1
 979 630 l 1,11,-1
1042 245 m 2,15,16
 1017 125 1017 125 940 62.5 c 128,-1,17
 863 0 863 0 766 0 c 0,18,19
 651 0 651 0 559.5 64 c 128,-1,20
 468 128 468 128 468 228 c 0,21,22
 468 294 468 294 520.5 340 c 128,-1,23
 573 386 573 386 644 386 c 2,24,-1
 669 386 l 1,25,-1
 731 700 l 1,26,-1
 1344 700 l 1,27,-1
 1329 630 l 1,28,-1
 1118 630 l 1,29,-1
 1068 386 l 1,30,-1
 1232 386 l 1,31,-1
 1248 464 l 1,32,-1
 1309 464 l 1,33,-1
 1279 316 l 1,34,-1
 1055 316 l 1,35,-1
 1042 245 l 2,15,16
EndSplineSet
EndChar

StartChar: tm_five
Encoding: 3051 3051 100
Width: 1424
GlyphClass: 2
Flags: W
LayerCount: 2
Fore
SplineSet
1412 517 m 1,0,-1
 1359 526 l 1,1,2
 1369 563 1369 563 1369 598 c 0,3,4
 1369 723 1369 723 1253.5 825.5 c 128,-1,5
 1138 928 1138 928 965 928 c 0,6,7
 728 928 728 928 575.5 716 c 128,-1,8
 423 504 423 504 423 228 c 0,9,10
 423 -43 423 -43 515 -179.5 c 128,-1,11
 607 -316 607 -316 790 -316 c 0,12,13
 979 -316 979 -316 1103.5 -163.5 c 128,-1,14
 1228 -11 1228 -11 1228 193 c 0,15,16
 1228 257 1228 257 1200 304.5 c 128,-1,17
 1172 352 1172 352 1126 352 c 0,18,19
 1099 352 1099 352 1072.5 336.5 c 128,-1,20
 1046 321 1046 321 1039 298 c 2,21,-1
 980 0 l 1,22,-1
 840 0 l 1,23,-1
 965 630 l 1,24,-1
 759 630 l 1,25,-1
 634 0 l 1,26,-1
 566 0 l 1,27,-1
 706 700 l 1,28,-1
 1237 700 l 1,29,-1
 1219 630 l 1,30,-1
 1105 630 l 1,31,-1
 1057 386 l 1,32,33
 1101 437 1101 437 1171 437 c 0,34,35
 1261 437 1261 437 1314.5 368.5 c 128,-1,36
 1368 300 1368 300 1368 193 c 0,37,38
 1368 -47 1368 -47 1202.5 -216 c 128,-1,39
 1037 -385 1037 -385 799 -385 c 0,40,41
 589 -385 589 -385 471.5 -223 c 128,-1,42
 354 -61 354 -61 354 193 c 0,43,44
 354 513 354 513 519 764 c 128,-1,45
 684 1015 684 1015 948 1015 c 0,46,47
 1152 1015 1152 1015 1288.5 889.5 c 128,-1,48
 1425 764 1425 764 1425 613 c 0,49,50
 1425 566 1425 566 1412 517 c 1,0,-1
EndSplineSet
EndChar

StartChar: tm_six
Encoding: 3052 3052 101
Width: 1424
GlyphClass: 2
Flags: W
LayerCount: 2
Fore
SplineSet
784 316 m 1,0,-1
 513 316 l 2,1,2
 469 316 469 316 438 291 c 128,-1,3
 407 266 407 266 407 228 c 0,4,5
 407 158 407 158 477 114 c 128,-1,6
 547 70 547 70 635 70 c 0,7,8
 680 70 680 70 713 99.5 c 128,-1,9
 746 129 746 129 756 175 c 2,10,-1
 784 316 l 1,0,-1
846 630 m 1,11,-1
 653 630 l 1,12,-1
 603 386 l 1,13,-1
 798 386 l 1,14,-1
 846 630 l 1,11,-1
910 245 m 2,15,16
 884 125 884 125 808 62.5 c 128,-1,17
 732 0 732 0 635 0 c 0,18,19
 518 0 518 0 428 64 c 128,-1,20
 338 128 338 128 338 228 c 0,21,22
 338 294 338 294 389.5 340 c 128,-1,23
 441 386 441 386 513 386 c 2,24,-1
 537 386 l 1,25,-1
 600 700 l 1,26,-1
 1229 700 l 1,27,-1
 1213 630 l 1,28,-1
 988 630 l 1,29,-1
 938 386 l 1,30,-1
 1422 386 l 1,31,-1
 1410 316 l 1,32,-1
 1353 316 l 1,33,-1
 1291 0 l 1,34,-1
 1151 0 l 1,35,-1
 1213 316 l 1,36,-1
 1116 316 l 1,37,-1
 1055 0 l 1,38,-1
 967 0 l 1,39,-1
 1028 316 l 1,40,-1
 924 316 l 1,41,-1
 910 245 l 2,15,16
EndSplineSet
EndChar

StartChar: tm_seven
Encoding: 3053 3053 102
Width: 1425
GlyphClass: 2
Flags: W
LayerCount: 2
Fore
SplineSet
643 88 m 1,0,1
 706 88 706 88 753 128 c 128,-1,2
 800 168 800 168 800 228 c 0,3,4
 800 269 800 269 781 301 c 128,-1,5
 762 333 762 333 729 333 c 0,6,7
 684 333 684 333 654.5 296.5 c 128,-1,8
 625 260 625 260 625 210 c 0,9,10
 625 135 625 135 643 88 c 1,0,1
1042 0 m 1,11,-1
 1167 630 l 1,12,-1
 852 630 l 2,13,14
 704 630 704 630 594.5 540.5 c 128,-1,15
 485 451 485 451 485 316 c 0,16,17
 485 247 485 247 507 194.5 c 128,-1,18
 529 142 529 142 572 106 c 1,19,20
 555 135 555 135 555 228 c 256,21,22
 555 321 555 321 614.5 388 c 128,-1,23
 674 455 674 455 765 455 c 0,24,25
 837 455 837 455 884 398 c 128,-1,26
 931 341 931 341 931 263 c 0,27,28
 931 155 931 155 863 77.5 c 128,-1,29
 795 0 795 0 695 0 c 0,30,31
 576 0 576 0 495.5 94 c 128,-1,32
 415 188 415 188 415 316 c 0,33,34
 415 481 415 481 545.5 590.5 c 128,-1,35
 676 700 676 700 852 700 c 2,36,-1
 1430 700 l 1,37,-1
 1412 630 l 1,38,-1
 1307 630 l 1,39,-1
 1181 0 l 1,40,-1
 1042 0 l 1,11,-1
EndSplineSet
EndChar

StartChar: tm_eight
Encoding: 3054 3054 103
Width: 1427
GlyphClass: 2
Flags: W
LayerCount: 2
Fore
SplineSet
849 629 m 1,0,1
 745 611 745 611 670 548.5 c 128,-1,2
 595 486 595 486 595 402 c 0,3,4
 595 338 595 338 638.5 291 c 128,-1,5
 682 244 682 244 744 244 c 0,6,7
 817 244 817 244 864 307.5 c 128,-1,8
 911 371 911 371 911 454 c 0,9,10
 911 580 911 580 849 629 c 1,0,1
1024 140 m 1,11,-1
 411 140 l 2,12,13
 381 140 381 140 357 125 c 128,-1,14
 333 110 333 110 333 87 c 0,15,16
 333 43 333 43 412 -13.5 c 128,-1,17
 491 -70 491 -70 639 -70 c 0,18,19
 743 -70 743 -70 839.5 -18 c 128,-1,20
 936 34 936 34 1024 140 c 1,11,-1
1414 -245 m 1,21,-1
 1269 -245 l 1,22,-1
 1348 140 l 1,23,-1
 1164 140 l 1,24,25
 1051 4 1051 4 915 -63.5 c 128,-1,26
 779 -131 779 -131 621 -131 c 0,27,28
 421 -131 421 -131 311.5 -52.5 c 128,-1,29
 202 26 202 26 202 123 c 0,30,31
 202 160 202 160 233 184.5 c 128,-1,32
 264 209 264 209 307 209 c 2,33,-1
 666 209 l 1,34,35
 604 231 604 231 565 284.5 c 128,-1,36
 526 338 526 338 526 402 c 0,37,38
 526 534 526 534 652 617 c 128,-1,39
 778 700 778 700 937 700 c 0,40,41
 1069 700 1069 700 1169 620.5 c 128,-1,42
 1269 541 1269 541 1269 420 c 0,43,44
 1269 306 1269 306 1213 209 c 1,45,-1
 1364 209 l 1,46,-1
 1463 700 l 1,47,-1
 1603 700 l 1,48,-1
 1414 -245 l 1,21,-1
989 620 m 1,49,50
 1042 530 1042 530 1042 411 c 0,51,52
 1042 267 1042 267 919 209 c 1,53,-1
 1077 209 l 1,54,55
 1146 308 1146 308 1146 402 c 0,56,57
 1146 486 1146 486 1103 553 c 128,-1,58
 1060 620 1060 620 989 620 c 1,49,50
EndSplineSet
EndChar

StartChar: tm_nine
Encoding: 3055 3055 104
Width: 1427
GlyphClass: 2
Flags: W
LayerCount: 2
Fore
SplineSet
692 316 m 1,0,-1
 422 316 l 2,1,2
 379 316 379 316 348 291 c 128,-1,3
 317 266 317 266 317 228 c 0,4,5
 317 158 317 158 387 114 c 128,-1,6
 457 70 457 70 544 70 c 0,7,8
 589 70 589 70 622 99.5 c 128,-1,9
 655 129 655 129 665 175 c 2,10,-1
 692 316 l 1,0,-1
756 630 m 1,11,-1
 562 630 l 1,12,-1
 513 386 l 1,13,-1
 707 386 l 1,14,-1
 756 630 l 1,11,-1
1157 175 m 0,15,16
 1157 259 1157 259 1052 298 c 1,17,18
 982 240 982 240 982 158 c 0,19,20
 982 121 982 121 1007.5 95.5 c 128,-1,21
 1033 70 1033 70 1068 70 c 0,22,23
 1107 70 1107 70 1132 101.5 c 128,-1,24
 1157 133 1157 133 1157 175 c 0,15,16
1297 0 m 1,25,26
 1375 93 1375 93 1375 193 c 0,27,28
 1375 263 1375 263 1332.5 315.5 c 128,-1,29
 1290 368 1290 368 1226 368 c 0,30,31
 1163 368 1163 368 1113 342 c 1,32,33
 1167 322 1167 322 1201 276.5 c 128,-1,34
 1235 231 1235 231 1235 175 c 0,35,36
 1235 104 1235 104 1187 52 c 128,-1,37
 1139 0 1139 0 1068 0 c 0,38,39
 1005 0 1005 0 958.5 46.5 c 128,-1,40
 912 93 912 93 912 158 c 0,41,42
 912 257 912 257 982 316 c 1,43,-1
 833 316 l 1,44,-1
 819 245 l 2,45,46
 795 125 795 125 718.5 62.5 c 128,-1,47
 642 0 642 0 544 0 c 0,48,49
 428 0 428 0 337 64 c 128,-1,50
 246 128 246 128 246 228 c 0,51,52
 246 294 246 294 299 340 c 128,-1,53
 352 386 352 386 422 386 c 2,54,-1
 446 386 l 1,55,-1
 508 700 l 1,56,-1
 1122 700 l 1,57,-1
 1104 630 l 1,58,-1
 896 630 l 1,59,-1
 847 386 l 1,60,-1
 947 386 l 2,61,62
 1014 386 1014 386 1052 368 c 1,63,64
 1111 420 1111 420 1226 420 c 0,65,66
 1327 420 1327 420 1399.5 354.5 c 128,-1,67
 1472 289 1472 289 1472 193 c 0,68,69
 1472 109 1472 109 1410 0 c 1,70,-1
 1297 0 l 1,25,26
EndSplineSet
EndChar

StartChar: tm_ten
Encoding: 3056 3056 105
Width: 1260
GlyphClass: 2
Flags: W
LayerCount: 2
Fore
SplineSet
597 149 m 1,0,1
 558 74 558 74 508 37 c 128,-1,2
 458 0 458 0 395 0 c 0,3,4
 302 0 302 0 242 64 c 128,-1,5
 182 128 182 128 182 200 c 0,6,7
 182 224 182 224 186 244 c 2,8,-1
 279 700 l 1,9,-1
 419 700 l 1,10,-1
 325 244 l 2,11,12
 320 223 320 223 320 205 c 0,13,14
 320 155 320 155 346.5 112.5 c 128,-1,15
 373 70 373 70 413 70 c 0,16,17
 472 70 472 70 525 146 c 128,-1,18
 578 222 578 222 606 359 c 2,19,-1
 675 700 l 1,20,-1
 815 700 l 1,21,-1
 746 351 l 2,22,23
 728 262 728 262 728 204 c 0,24,25
 728 150 728 150 760.5 110 c 128,-1,26
 793 70 793 70 841 70 c 0,27,28
 957 70 957 70 1026 204 c 128,-1,29
 1095 338 1095 338 1095 500 c 0,30,31
 1095 691 1095 691 995.5 840 c 128,-1,32
 896 989 896 989 737 989 c 1,33,-1
 755 1042 l 1,34,35
 960 1042 960 1042 1097.5 880.5 c 128,-1,36
 1235 719 1235 719 1235 500 c 0,37,38
 1235 300 1235 300 1118.5 150 c 128,-1,39
 1002 0 1002 0 824 0 c 0,40,41
 739 0 739 0 673.5 40.5 c 128,-1,42
 608 81 608 81 597 149 c 1,0,1
EndSplineSet
EndChar

StartChar: tm_hundred
Encoding: 3057 3057 106
Width: 1166
GlyphClass: 2
Flags: W
LayerCount: 2
Fore
SplineSet
1284 700 m 1,0,-1
 1267 629 l 1,1,-1
 1117 629 l 1,2,-1
 991 0 l 1,3,-1
 851 0 l 1,4,-1
 977 629 l 1,5,-1
 770 629 l 1,6,-1
 644 0 l 1,7,-1
 504 0 l 1,8,-1
 599 472 l 2,9,10
 606 507 606 507 606 534 c 0,11,12
 606 579 606 579 589 613 c 128,-1,13
 572 647 572 647 540 647 c 0,14,15
 483 647 483 647 440 595.5 c 128,-1,16
 397 544 397 544 382 472 c 2,17,-1
 285 0 l 1,18,-1
 146 0 l 1,19,-1
 242 472 l 2,20,21
 263 577 263 577 336.5 647 c 128,-1,22
 410 717 410 717 503 717 c 0,23,24
 567 717 567 717 614 679.5 c 128,-1,25
 661 642 661 642 661 585 c 1,26,-1
 685 700 l 1,27,-1
 1284 700 l 1,0,-1
EndSplineSet
EndChar

StartChar: tm_thousand
Encoding: 3058 3058 107
Width: 1256
GlyphClass: 2
Flags: W
LayerCount: 2
Fore
SplineSet
551 316 m 1,0,-1
 280 316 l 2,1,2
 237 316 237 316 206 291 c 128,-1,3
 175 266 175 266 175 228 c 0,4,5
 175 158 175 158 245.5 114 c 128,-1,6
 316 70 316 70 402 70 c 0,7,8
 447 70 447 70 480 99.5 c 128,-1,9
 513 129 513 129 523 175 c 2,10,-1
 551 316 l 1,0,-1
615 630 m 1,11,-1
 420 630 l 1,12,-1
 371 386 l 1,13,-1
 565 386 l 1,14,-1
 615 630 l 1,11,-1
677 245 m 2,15,16
 653 125 653 125 576 62.5 c 128,-1,17
 499 0 499 0 402 0 c 0,18,19
 285 0 285 0 195 64 c 128,-1,20
 105 128 105 128 105 228 c 0,21,22
 105 294 105 294 156.5 340 c 128,-1,23
 208 386 208 386 280 386 c 2,24,-1
 304 386 l 1,25,-1
 367 700 l 1,26,-1
 997 700 l 1,27,-1
 983 630 l 1,28,-1
 755 630 l 1,29,-1
 705 386 l 1,30,-1
 1120 386 l 1,31,-1
 1105 316 l 1,32,-1
 971 316 l 1,33,-1
 945 175 l 1,34,35
 990 228 990 228 1067 228 c 0,36,37
 1134 228 1134 228 1179.5 176 c 128,-1,38
 1225 124 1225 124 1225 53 c 0,39,40
 1225 -78 1225 -78 1108 -161 c 128,-1,41
 991 -244 991 -244 840 -244 c 0,42,43
 740 -244 740 -244 542 -205 c 0,44,45
 346 -167 346 -167 244 -167 c 0,46,47
 181 -167 181 -167 134 -206.5 c 128,-1,48
 87 -246 87 -246 87 -307 c 0,49,50
 87 -384 87 -384 158 -411 c 1,51,-1
 149 -445 l 1,52,53
 82 -433 82 -433 36.5 -387 c 128,-1,54
 -9 -341 -9 -341 -9 -280 c 0,55,56
 -9 -205 -9 -205 70.5 -159.5 c 128,-1,57
 150 -114 150 -114 244 -114 c 0,58,59
 346 -114 346 -114 542 -153 c 0,60,61
 740 -192 740 -192 840 -192 c 0,62,63
 938 -192 938 -192 1011.5 -135 c 128,-1,64
 1085 -78 1085 -78 1085 9 c 0,65,66
 1085 61 1085 61 1061 100.5 c 128,-1,67
 1037 140 1037 140 997 140 c 256,68,69
 957 140 957 140 927 88 c 1,70,-1
 910 0 l 1,71,-1
 769 0 l 1,72,-1
 831 316 l 1,73,-1
 691 316 l 1,74,-1
 677 245 l 2,15,16
EndSplineSet
EndChar

StartChar: zerowidthnonjoiner
Encoding: 8204 8204 108
Width: 0
GlyphClass: 2
Flags: W
LayerCount: 2
Fore
SplineSet
315 1225 m 1,0,-1
 -34 -516 l 1,1,-1
 -103 -516 l 1,2,-1
 244 1225 l 1,3,-1
 315 1225 l 1,0,-1
EndSplineSet
EndChar

StartChar: zerowidthjoiner
Encoding: 8205 8205 109
Width: 0
GlyphClass: 2
Flags: W
LayerCount: 2
Fore
SplineSet
415 997 m 1,0,-1
 363 953 l 1,1,-1
 270 1073 l 1,2,-1
 -24 -441 l 1,3,-1
 -87 -441 l 1,4,-1
 206 1073 l 1,5,-1
 65 953 l 1,6,-1
 32 997 l 1,7,-1
 210 1145 l 1,8,-1
 89 1292 l 1,9,-1
 140 1334 l 1,10,-1
 260 1185 l 1,11,-1
 437 1334 l 1,12,-1
 472 1292 l 1,13,-1
 294 1145 l 1,14,-1
 415 997 l 1,0,-1
EndSplineSet
EndChar

StartChar: u2013
Encoding: 8211 8211 110
Width: 722
GlyphClass: 2
Flags: W
LayerCount: 2
Fore
SplineSet
733 319 m 1,0,-1
 -12 319 l 1,1,-1
 -12 370 l 1,2,-1
 733 370 l 1,3,-1
 733 319 l 1,0,-1
EndSplineSet
EndChar

StartChar: u2014
Encoding: 8212 8212 111
Width: 1284
GlyphClass: 2
Flags: W
LayerCount: 2
Fore
SplineSet
1296 318 m 1,0,-1
 -13 319 l 1,1,-1
 -13 371 l 1,2,-1
 1296 370 l 1,3,-1
 1296 318 l 1,0,-1
EndSplineSet
EndChar

StartChar: u2018
Encoding: 8216 8216 112
Width: 294
GlyphClass: 2
Flags: W
LayerCount: 2
Fore
SplineSet
270 670 m 0,0,1
 270 606 270 606 256 588 c 0,2,3
 234 560 234 560 158 560 c 0,4,5
 74 560 74 560 52 582 c 1,6,7
 26 616 26 616 26 708 c 0,8,9
 26 786 26 786 30 796 c 0,10,11
 44 830 44 830 112 884 c 0,12,13
 166 926 166 926 190 936 c 1,14,15
 202 932 202 932 224 914 c 1,16,17
 230 900 230 900 242 870 c 1,18,19
 216 854 216 854 196 838 c 0,20,21
 146 800 146 800 138 766 c 1,22,23
 160 770 160 770 178 770 c 0,24,25
 270 770 270 770 270 670 c 0,0,1
EndSplineSet
EndChar

StartChar: u2019
Encoding: 8217 8217 113
Width: 294
GlyphClass: 2
Flags: W
LayerCount: 2
Fore
SplineSet
268 782 m 0,0,1
 268 704 268 704 264 694 c 0,2,3
 250 660 250 660 182 606 c 0,4,5
 128 564 128 564 104 554 c 1,6,7
 92 558 92 558 70 576 c 1,8,9
 66 590 66 590 52 620 c 1,10,11
 78 636 78 636 98 652 c 0,12,13
 148 690 148 690 156 724 c 1,14,15
 134 720 134 720 116 720 c 0,16,17
 24 720 24 720 24 820 c 0,18,19
 24 884 24 884 38 902 c 0,20,21
 60 930 60 930 136 930 c 0,22,23
 220 930 220 930 242 908 c 1,24,25
 268 874 268 874 268 782 c 0,0,1
EndSplineSet
EndChar

StartChar: u201C
Encoding: 8220 8220 114
Width: 571
GlyphClass: 2
Flags: W
LayerCount: 2
Fore
SplineSet
270 670 m 0,0,1
 270 606 270 606 256 588 c 0,2,3
 234 560 234 560 158 560 c 0,4,5
 74 560 74 560 52 582 c 1,6,7
 26 616 26 616 26 708 c 0,8,9
 26 786 26 786 30 796 c 0,10,11
 44 830 44 830 112 884 c 0,12,13
 166 926 166 926 190 936 c 1,14,15
 202 932 202 932 224 914 c 1,16,17
 230 900 230 900 242 870 c 1,18,19
 216 854 216 854 196 838 c 0,20,21
 146 800 146 800 138 766 c 1,22,23
 160 770 160 770 178 770 c 0,24,25
 270 770 270 770 270 670 c 0,0,1
540 670 m 0,26,27
 540 606 540 606 526 588 c 0,28,29
 504 560 504 560 428 560 c 0,30,31
 344 560 344 560 322 582 c 1,32,33
 296 616 296 616 296 708 c 0,34,35
 296 786 296 786 300 796 c 0,36,37
 314 830 314 830 382 884 c 0,38,39
 436 926 436 926 460 936 c 1,40,41
 472 932 472 932 494 914 c 1,42,43
 500 900 500 900 512 870 c 1,44,45
 486 854 486 854 466 838 c 0,46,47
 416 800 416 800 408 766 c 1,48,49
 430 770 430 770 448 770 c 0,50,51
 540 770 540 770 540 670 c 0,26,27
EndSplineSet
EndChar

StartChar: u201D
Encoding: 8221 8221 115
Width: 557
GlyphClass: 2
Flags: W
LayerCount: 2
Fore
SplineSet
268 782 m 0,0,1
 268 704 268 704 264 694 c 0,2,3
 250 660 250 660 182 606 c 0,4,5
 128 564 128 564 104 554 c 1,6,7
 92 558 92 558 70 576 c 1,8,9
 66 590 66 590 52 620 c 1,10,11
 78 636 78 636 98 652 c 0,12,13
 148 690 148 690 156 724 c 1,14,15
 134 720 134 720 116 720 c 0,16,17
 24 720 24 720 24 820 c 0,18,19
 24 884 24 884 38 902 c 0,20,21
 60 930 60 930 136 930 c 0,22,23
 220 930 220 930 242 908 c 1,24,25
 268 874 268 874 268 782 c 0,0,1
528 772 m 0,26,27
 528 694 528 694 524 684 c 0,28,29
 510 650 510 650 442 596 c 0,30,31
 388 554 388 554 364 544 c 1,32,33
 352 548 352 548 330 566 c 1,34,35
 326 580 326 580 312 610 c 1,36,37
 338 626 338 626 358 642 c 0,38,39
 408 680 408 680 416 714 c 1,40,41
 394 710 394 710 376 710 c 0,42,43
 284 710 284 710 284 810 c 0,44,45
 284 874 284 874 298 892 c 0,46,47
 320 920 320 920 396 920 c 0,48,49
 480 920 480 920 502 898 c 1,50,51
 528 864 528 864 528 772 c 0,26,27
EndSplineSet
EndChar

StartChar: u2026
Encoding: 8230 8230 116
Width: 1283
GlyphClass: 2
Flags: W
LayerCount: 2
Fore
SplineSet
265 136 m 0,0,1
 298 136 298 136 320.5 114 c 128,-1,2
 343 92 343 92 343 58 c 0,3,4
 343 26 343 26 320.5 3 c 128,-1,5
 298 -20 298 -20 265 -20 c 0,6,7
 233 -20 233 -20 210 3 c 128,-1,8
 187 26 187 26 187 58 c 0,9,10
 187 92 187 92 210 114 c 128,-1,11
 233 136 233 136 265 136 c 0,0,1
638 136 m 256,12,13
 670 136 670 136 693 114 c 128,-1,14
 716 92 716 92 716 58 c 0,15,16
 716 26 716 26 692.5 3 c 128,-1,17
 669 -20 669 -20 638 -20 c 0,18,19
 606 -20 606 -20 583 3 c 128,-1,20
 560 26 560 26 560 58 c 0,21,22
 560 92 560 92 583 114 c 128,-1,23
 606 136 606 136 638 136 c 256,12,13
1010 136 m 0,24,25
 1043 136 1043 136 1066 114 c 128,-1,26
 1089 92 1089 92 1089 58 c 0,27,28
 1089 26 1089 26 1065.5 3 c 128,-1,29
 1042 -20 1042 -20 1010 -20 c 256,30,31
 978 -20 978 -20 955.5 3 c 128,-1,32
 933 26 933 26 933 58 c 0,33,34
 933 92 933 92 955.5 114 c 128,-1,35
 978 136 978 136 1010 136 c 0,24,25
EndSplineSet
EndChar

StartChar: u2212
Encoding: 8722 8722 117
Width: 974
GlyphClass: 2
Flags: W
LayerCount: 2
Fore
SplineSet
133 450 m 1,0,-1
 133 508 l 1,1,-1
 894 508 l 1,2,-1
 894 450 l 1,3,-1
 133 450 l 1,0,-1
EndSplineSet
EndChar

StartChar: u25CC
Encoding: 9676 9676 118
Width: 1167
GlyphClass: 2
Flags: W
LayerCount: 2
Fore
SplineSet
654 665 m 0,0,1
 626 665 626 665 612 679 c 128,-1,2
 598 693 598 693 598 724 c 0,3,4
 598 746 598 746 615 762.5 c 128,-1,5
 632 779 632 779 654 779 c 0,6,7
 683 779 683 779 697.5 765 c 128,-1,8
 712 751 712 751 712 724 c 0,9,10
 712 693 712 693 697.5 679 c 128,-1,11
 683 665 683 665 654 665 c 0,0,1
840 616 m 0,12,13
 811 616 811 616 796.5 630.5 c 128,-1,14
 782 645 782 645 782 674 c 0,15,16
 782 701 782 701 796.5 715 c 128,-1,17
 811 729 811 729 840 729 c 0,18,19
 862 729 862 729 879 713 c 128,-1,20
 896 697 896 697 896 674 c 0,21,22
 896 645 896 645 882 630.5 c 128,-1,23
 868 616 868 616 840 616 c 0,12,13
470 616 m 0,24,25
 442 616 442 616 428 630.5 c 128,-1,26
 414 645 414 645 414 674 c 0,27,28
 414 697 414 697 431 713 c 128,-1,29
 448 729 448 729 470 729 c 0,30,31
 494 729 494 729 510 713 c 128,-1,32
 526 697 526 697 526 674 c 0,33,34
 526 645 526 645 512.5 630.5 c 128,-1,35
 499 616 499 616 470 616 c 0,24,25
973 482 m 0,36,37
 951 482 951 482 933.5 498 c 128,-1,38
 916 514 916 514 916 538 c 0,39,40
 916 567 916 567 930.5 581 c 128,-1,41
 945 595 945 595 973 595 c 256,42,43
 1001 595 1001 595 1014.5 581 c 128,-1,44
 1028 567 1028 567 1028 538 c 0,45,46
 1028 514 1028 514 1012 498 c 128,-1,47
 996 482 996 482 973 482 c 0,36,37
336 482 m 0,48,49
 307 482 307 482 293 495.5 c 128,-1,50
 279 509 279 509 279 538 c 256,51,52
 279 567 279 567 293 581 c 128,-1,53
 307 595 307 595 336 595 c 0,54,55
 364 595 364 595 378 581 c 128,-1,56
 392 567 392 567 392 538 c 0,57,58
 392 514 392 514 375 498 c 128,-1,59
 358 482 358 482 336 482 c 0,48,49
1024 298 m 0,60,61
 994 298 994 298 979.5 311.5 c 128,-1,62
 965 325 965 325 965 354 c 0,63,64
 965 382 965 382 979.5 396 c 128,-1,65
 994 410 994 410 1024 410 c 0,66,67
 1046 410 1046 410 1063 393 c 128,-1,68
 1080 376 1080 376 1080 354 c 0,69,70
 1080 331 1080 331 1063 314.5 c 128,-1,71
 1046 298 1046 298 1024 298 c 0,60,61
287 298 m 0,72,73
 257 298 257 298 243 311.5 c 128,-1,74
 229 325 229 325 229 354 c 0,75,76
 229 382 229 382 243 396 c 128,-1,77
 257 410 257 410 287 410 c 0,78,79
 310 410 310 410 326.5 393 c 128,-1,80
 343 376 343 376 343 354 c 0,81,82
 343 331 343 331 326.5 314.5 c 128,-1,83
 310 298 310 298 287 298 c 0,72,73
973 112 m 256,84,85
 945 112 945 112 930.5 126.5 c 128,-1,86
 916 141 916 141 916 169 c 0,87,88
 916 193 916 193 933.5 209.5 c 128,-1,89
 951 226 951 226 973 226 c 0,90,91
 996 226 996 226 1012 209.5 c 128,-1,92
 1028 193 1028 193 1028 169 c 0,93,94
 1028 141 1028 141 1014.5 126.5 c 128,-1,95
 1001 112 1001 112 973 112 c 256,84,85
336 112 m 0,96,97
 307 112 307 112 293 126.5 c 128,-1,98
 279 141 279 141 279 169 c 0,99,100
 279 198 279 198 293 212 c 128,-1,101
 307 226 307 226 336 226 c 0,102,103
 358 226 358 226 375 209.5 c 128,-1,104
 392 193 392 193 392 169 c 0,105,106
 392 141 392 141 378 126.5 c 128,-1,107
 364 112 364 112 336 112 c 0,96,97
840 -22 m 0,108,109
 811 -22 811 -22 796.5 -8 c 128,-1,110
 782 6 782 6 782 34 c 0,111,112
 782 63 782 63 796.5 78 c 128,-1,113
 811 93 811 93 840 93 c 0,114,115
 863 93 863 93 879.5 75 c 128,-1,116
 896 57 896 57 896 34 c 256,117,118
 896 11 896 11 879 -5.5 c 128,-1,119
 862 -22 862 -22 840 -22 c 0,108,109
470 -22 m 0,120,121
 448 -22 448 -22 431 -5.5 c 128,-1,122
 414 11 414 11 414 34 c 256,123,124
 414 57 414 57 430.5 75 c 128,-1,125
 447 93 447 93 470 93 c 0,126,127
 495 93 495 93 510.5 75 c 128,-1,128
 526 57 526 57 526 34 c 256,129,130
 526 11 526 11 510 -5.5 c 128,-1,131
 494 -22 494 -22 470 -22 c 0,120,121
654 -72 m 0,132,133
 632 -72 632 -72 615 -55 c 128,-1,134
 598 -38 598 -38 598 -16 c 0,135,136
 598 14 598 14 612 28.5 c 128,-1,137
 626 43 626 43 654 43 c 0,138,139
 683 43 683 43 697.5 28.5 c 128,-1,140
 712 14 712 14 712 -16 c 0,141,142
 712 -44 712 -44 697.5 -58 c 128,-1,143
 683 -72 683 -72 654 -72 c 0,132,133
EndSplineSet
EndChar

StartChar: tm_k_ikaar
Encoding: 65539 -1 119
Width: 1082
GlyphClass: 2
Flags: W
LayerCount: 2
Fore
SplineSet
1042 48 m 2,0,1
 1042 -24 1042 -24 968 -24 c 0,2,3
 942 -24 942 -24 920 -8 c 128,-1,4
 898 8 898 8 898 26 c 2,5,-1
 898 936 l 2,6,7
 898 964 898 964 874 964 c 0,8,9
 772 964 772 964 670 942 c 0,10,11
 576 922 576 922 542 898 c 1,12,-1
 544 840 l 1,13,14
 648 870 648 870 710 856 c 1,15,16
 758 822 758 822 758 738 c 0,17,18
 758 642 758 642 738 628 c 1,19,20
 716 640 716 640 676 640 c 0,21,22
 608 640 608 640 534 616 c 1,23,-1
 534 564 l 1,24,25
 706 588 706 588 768 588 c 0,26,27
 820 588 820 588 834 548 c 0,28,29
 842 528 842 528 842 466 c 2,30,-1
 842 64 l 2,31,32
 842 38 842 38 820 16 c 128,-1,33
 798 -6 798 -6 709 -30 c 128,-1,34
 620 -54 620 -54 560 -54 c 0,35,36
 520 -54 520 -54 520 -16 c 2,37,-1
 520 36 l 1,38,39
 418 16 418 16 316 -4 c 0,40,41
 230 -18 230 -18 144 -18 c 0,42,43
 30 -18 30 -18 30 108 c 2,44,-1
 30 380 l 2,45,46
 30 448 30 448 112 488 c 1,47,-1
 112 726 l 1,48,49
 196 756 196 756 228 766 c 0,50,51
 304 790 304 790 398 808 c 1,52,-1
 398 1060 l 1,53,54
 466 1118 466 1118 624 1158 c 128,-1,55
 782 1198 782 1198 926 1198 c 0,56,57
 968 1198 968 1198 1005 1178 c 128,-1,58
 1042 1158 1042 1158 1042 1128 c 2,59,-1
 1042 48 l 2,0,1
712 208 m 1,60,-1
 712 348 l 1,61,62
 594 332 594 332 534 336 c 1,63,-1
 534 180 l 1,64,65
 628 178 628 178 712 208 c 1,60,-1
398 542 m 1,66,-1
 398 600 l 1,67,68
 398 600 398 600 244 558 c 1,69,-1
 244 512 l 1,70,71
 376 542 376 542 398 542 c 1,66,-1
398 256 m 1,72,-1
 398 314 l 1,73,74
 320 300 320 300 158 274 c 1,75,-1
 158 220 l 1,76,77
 306 224 306 224 398 256 c 1,72,-1
EndSplineSet
Ligature2: "'psts' Post Base Substitutions lookup 8 subtable" tm_ka tm_ikaar
EndChar

StartChar: tm_ng_ikaar
Encoding: 65540 -1 120
Width: 1288
GlyphClass: 2
Flags: W
LayerCount: 2
Fore
SplineSet
1014 122 m 2,0,1
 1014 30 1014 30 962 4 c 0,2,3
 892 -32 892 -32 632 -56 c 1,4,5
 572 -18 572 -18 572 104 c 0,6,7
 572 144 572 144 584 160 c 128,-1,8
 596 176 596 176 644 176 c 1,9,-1
 644 272 l 2,10,11
 644 316 644 316 610 310 c 2,12,-1
 550 298 l 2,13,14
 500 288 500 288 500 238 c 2,15,-1
 500 62 l 2,16,17
 500 -10 500 -10 418 -10 c 0,18,19
 364 -10 364 -10 356 10 c 0,20,21
 352 20 352 20 352 40 c 2,22,-1
 352 574 l 1,23,24
 244 548 244 548 186 520 c 1,25,-1
 186 134 l 2,26,27
 186 52 186 52 174 30 c 0,28,29
 158 0 158 0 96 0 c 0,30,31
 40 0 40 0 40 60 c 2,32,-1
 40 652 l 2,33,34
 40 706 40 706 86 730 c 0,35,36
 144 762 144 762 376 806 c 0,37,38
 590 848 590 848 594 848 c 0,39,40
 616 848 616 848 636 824 c 0,41,42
 658 794 658 794 658 748 c 0,43,44
 658 642 658 642 630 620 c 1,45,46
 566 614 566 614 500 596 c 1,47,-1
 500 520 l 1,48,49
 602 558 602 558 690 558 c 0,50,51
 786 558 786 558 786 442 c 2,52,-1
 786 194 l 1,53,-1
 856 210 l 1,54,-1
 856 699 l 1,55,56
 783 678 783 678 757 678 c 0,57,58
 661 678 661 678 661 822 c 2,59,-1
 661 1108 l 2,60,61
 661 1200 661 1200 689 1228 c 0,62,63
 737 1276 737 1276 861 1307 c 128,-1,64
 985 1338 985 1338 1107 1338 c 0,65,66
 1247 1338 1247 1338 1247 1186 c 2,67,-1
 1247 302 l 2,68,69
 1247 218 1247 218 1155 218 c 0,70,71
 1117 218 1117 218 1105 229 c 128,-1,72
 1093 240 1093 240 1093 282 c 2,73,-1
 1093 1060 l 2,74,75
 1093 1098 1093 1098 1061 1098 c 0,76,77
 979 1098 979 1098 897 1076 c 0,78,79
 799 1052 799 1052 799 1012 c 2,80,-1
 799 932 l 2,81,82
 799 914 799 914 814 901 c 128,-1,83
 829 888 829 888 843 888 c 256,84,85
 857 888 857 888 857 902 c 2,86,-1
 857 962 l 1,87,88
 881 986 881 986 949 986 c 0,89,90
 1019 986 1019 986 1019 878 c 2,91,-1
 1019 442 l 2,92,93
 1019 377 1019 377 1014 339 c 1,94,-1
 1014 122 l 2,0,1
EndSplineSet
Ligature2: "'psts' Post Base Substitutions lookup 8 subtable" tm_nga tm_ikaar
EndChar

StartChar: tm_c_ikaar
Encoding: 65541 -1 121
Width: 1006
GlyphClass: 2
Flags: W
LayerCount: 2
Fore
SplineSet
966 88 m 2,0,1
 966 -10 966 -10 878 -10 c 0,2,3
 832 -10 832 -10 820 10 c 0,4,5
 812 24 812 24 812 72 c 2,6,-1
 812 888 l 2,7,8
 812 938 812 938 774 938 c 0,9,10
 732 938 732 938 656 922 c 0,11,12
 568 902 568 902 550 880 c 0,13,14
 542 868 542 868 542 848 c 2,15,-1
 542 818 l 1,16,17
 624 842 624 842 674 840 c 1,18,19
 732 794 732 794 732 724 c 0,20,21
 732 664 732 664 712 614 c 1,22,23
 628 618 628 618 548 596 c 1,24,-1
 548 540 l 1,25,26
 620 558 620 558 670 558 c 0,27,28
 726 558 726 558 770 536 c 1,29,30
 788 436 788 436 780 308 c 1,31,32
 712 336 712 336 544 308 c 1,33,-1
 544 68 l 2,34,35
 544 28 544 28 510 12 c 0,36,37
 442 -22 442 -22 218 -22 c 0,38,39
 106 -22 106 -22 68 2 c 128,-1,40
 30 26 30 26 30 90 c 2,41,-1
 30 328 l 2,42,43
 30 438 30 438 116 464 c 1,44,-1
 116 702 l 1,45,46
 332 780 332 780 400 782 c 1,47,-1
 400 1000 l 2,48,49
 400 1040 400 1040 412 1056 c 0,50,51
 454 1100 454 1100 592 1144 c 0,52,53
 738 1188 738 1188 868 1188 c 0,54,55
 966 1188 966 1188 966 1004 c 2,56,-1
 966 88 l 2,0,1
400 518 m 1,57,-1
 400 576 l 1,58,59
 308 554 308 554 244 532 c 1,60,-1
 244 482 l 1,61,62
 290 498 290 498 400 518 c 1,57,-1
400 236 m 1,63,-1
 400 292 l 1,64,65
 318 276 318 276 170 252 c 1,66,-1
 170 194 l 1,67,68
 210 194 210 194 291 208 c 128,-1,69
 372 222 372 222 400 236 c 1,63,-1
EndSplineSet
Ligature2: "'psts' Post Base Substitutions lookup 8 subtable" tm_ca tm_ikaar
EndChar

StartChar: tm_j_ikaar
Encoding: 65542 -1 122
Width: 1068
GlyphClass: 2
Flags: W
LayerCount: 2
Fore
SplineSet
1028 38 m 2,0,1
 1028 -22 1028 -22 924 -22 c 0,2,3
 884 -22 884 -22 884 18 c 2,4,-1
 884 838 l 1,5,6
 878 844 878 844 856 844 c 0,7,8
 818 844 818 844 782 830 c 0,9,10
 740 812 740 812 740 784 c 256,11,12
 740 756 740 756 822 756 c 1,13,-1
 822 244 l 2,14,15
 822 38 822 38 746 18 c 1,16,17
 800 -26 800 -26 800 -98 c 2,18,-1
 800 -268 l 2,19,20
 800 -428 800 -428 582 -434 c 1,21,22
 556 -404 556 -404 556 -338 c 0,23,24
 556 -288 556 -288 578 -178 c 1,25,26
 658 -166 658 -166 658 -92 c 0,27,28
 658 -48 658 -48 626 -40 c 1,29,30
 590 -36 590 -36 552 -64 c 1,31,32
 534 -96 534 -96 531 -207 c 128,-1,33
 528 -318 528 -318 512 -338 c 0,34,35
 450 -414 450 -414 170 -414 c 0,36,37
 98 -414 98 -414 69 -387 c 128,-1,38
 40 -360 40 -360 40 -292 c 2,39,-1
 40 -70 l 2,40,41
 40 42 40 42 80 82 c 0,42,43
 114 116 114 116 226 130 c 2,44,-1
 528 170 l 2,45,46
 606 180 606 180 626 192 c 0,47,48
 658 212 658 212 658 268 c 2,49,-1
 658 456 l 2,50,51
 658 508 658 508 634 508 c 0,52,53
 572 508 572 508 572 464 c 2,54,-1
 572 272 l 2,55,56
 572 224 572 224 478 224 c 0,57,58
 428 224 428 224 428 272 c 2,59,-1
 428 558 l 2,60,61
 428 604 428 604 390 604 c 0,62,63
 360 604 360 604 286 582 c 0,64,65
 204 558 204 558 184 538 c 1,66,-1
 184 504 l 1,67,68
 232 526 232 526 296 526 c 0,69,70
 380 526 380 526 380 408 c 2,71,-1
 380 298 l 2,72,73
 380 230 380 230 342 190 c 0,74,75
 322 170 322 170 250 151 c 128,-1,76
 178 132 178 132 132 132 c 256,77,78
 86 132 86 132 70 162 c 0,79,80
 58 184 58 184 58 238 c 2,81,-1
 58 560 l 2,82,83
 58 650 58 650 74 688 c 0,84,85
 98 742 98 742 190 778 c 0,86,87
 296 820 296 820 458 820 c 0,88,89
 568 820 568 820 568 750 c 0,90,91
 568 738 568 738 566 726 c 1,92,-1
 608 736 l 1,93,-1
 608 950 l 1,94,95
 626 996 626 996 723 1040 c 128,-1,96
 820 1084 820 1084 928 1084 c 0,97,98
 988 1084 988 1084 1008 1055 c 128,-1,99
 1028 1026 1028 1026 1028 962 c 2,100,-1
 1028 38 l 2,0,1
242 330 m 2,101,-1
 242 360 l 2,102,103
 242 374 242 374 218 374 c 0,104,105
 188 374 188 374 188 356 c 2,106,-1
 188 330 l 2,107,108
 188 316 188 316 216 316 c 0,109,110
 242 316 242 316 242 330 c 2,101,-1
404 -126 m 1,111,-1
 404 -68 l 1,112,113
 330 -76 330 -76 204 -102 c 1,114,115
 168 -114 168 -114 168 -134 c 2,116,-1
 168 -168 l 1,117,118
 208 -170 208 -170 298 -154 c 0,119,120
 380 -138 380 -138 404 -126 c 1,111,-1
EndSplineSet
Ligature2: "'psts' Post Base Substitutions lookup 8 subtable" tm_ja tm_ikaar
EndChar

StartChar: tm_ny_ikaar
Encoding: 65543 -1 123
Width: 1500
GlyphClass: 2
Flags: W
LayerCount: 2
Fore
SplineSet
1276 8 m 2,0,1
 1276 -118 1276 -118 1264 -148 c 0,2,3
 1248 -192 1248 -192 1172 -218 c 0,4,5
 1004 -274 1004 -274 664 -310 c 0,6,7
 374 -342 374 -342 160 -342 c 0,8,9
 86 -342 86 -342 58 -319 c 128,-1,10
 30 -296 30 -296 30 -242 c 2,11,-1
 30 514 l 2,12,13
 30 594 30 594 106 642 c 0,14,15
 160 678 160 678 232 686 c 1,16,17
 260 544 260 544 260 418 c 1,18,19
 174 402 174 402 174 322 c 2,20,-1
 174 -28 l 2,21,22
 174 -78 174 -78 200 -88 c 0,23,24
 220 -96 220 -96 316 -96 c 0,25,26
 752 -96 752 -96 1108 2 c 0,27,28
 1124 8 1124 8 1124 84 c 2,29,-1
 1124 348 l 1,30,-1
 968 300 l 1,31,-1
 968 80 l 2,32,33
 968 0 968 0 884 0 c 0,34,35
 808 0 808 0 808 42 c 2,36,-1
 808 594 l 1,37,38
 686 588 686 588 438 500 c 1,39,-1
 438 466 l 1,40,41
 582 510 582 510 648 510 c 0,42,43
 702 510 702 510 719 494 c 128,-1,44
 736 478 736 478 736 428 c 2,45,-1
 736 206 l 2,46,47
 736 102 736 102 712 69 c 128,-1,48
 688 36 688 36 574 16 c 0,49,50
 480 0 480 0 400 0 c 0,51,52
 284 0 284 0 284 114 c 2,53,-1
 284 600 l 2,54,55
 284 662 284 662 334 694 c 0,56,57
 418 748 418 748 702 808 c 0,58,59
 759 820 759 820 810 829 c 1,60,-1
 810 1010 l 2,61,62
 810 1050 810 1050 822 1066 c 0,63,64
 864 1110 864 1110 1002 1154 c 1,65,66
 1238 1198 1238 1198 1368 1198 c 0,67,68
 1466 1198 1466 1198 1466 1014 c 2,69,-1
 1466 98 l 2,70,71
 1466 0 1466 0 1378 0 c 0,72,73
 1332 0 1332 0 1320 20 c 0,74,75
 1312 34 1312 34 1312 82 c 2,76,-1
 1312 898 l 2,77,78
 1312 948 1312 948 1274 948 c 0,79,80
 1232 948 1232 948 1066 932 c 1,81,82
 978 912 978 912 960 890 c 0,83,84
 952 878 952 878 952 858 c 2,85,-1
 952 853 l 1,86,87
 1032 864 1032 864 1082 864 c 0,88,89
 1200 864 1200 864 1200 746 c 0,90,91
 1200 666 1200 666 1170 632 c 1,92,93
 1112 646 1112 646 978 612 c 1,94,-1
 978 536 l 1,95,96
 1034 550 1034 550 1090 562 c 0,97,98
 1158 578 1158 578 1214 578 c 0,99,100
 1276 578 1276 578 1276 468 c 2,101,-1
 1276 8 l 2,0,1
604 240 m 1,102,-1
 604 296 l 1,103,104
 542 284 542 284 436 254 c 1,105,-1
 436 206 l 1,106,107
 474 210 474 210 517 216 c 128,-1,108
 560 222 560 222 604 240 c 1,102,-1
810 792 m 1,109,-1
 810 802 l 1,110,111
 767 790 767 790 810 792 c 1,109,-1
952 834 m 1,112,-1
 952 828 l 1,113,114
 1011 845 1011 845 952 834 c 1,112,-1
EndSplineSet
Ligature2: "'psts' Post Base Substitutions lookup 8 subtable" tm_nya tm_ikaar
EndChar

StartChar: tm_tt_ikaar
Encoding: 65544 -1 124
Width: 900
GlyphClass: 2
Flags: W
LayerCount: 2
Fore
SplineSet
870 300 m 1,0,1
 886 280 886 280 886 206 c 0,2,3
 886 112 886 112 868 62 c 1,4,5
 730 34 730 34 540 20 c 1,6,7
 410 -140 410 -140 250 -330 c 1,8,9
 158 -340 158 -340 112 -268 c 1,10,11
 198 -168 198 -168 332 2 c 1,12,13
 256 -4 256 -4 200 -4 c 0,14,15
 40 -4 40 -4 40 50 c 2,16,-1
 40 742 l 1,17,18
 100 770 100 770 148 770 c 0,19,20
 184 770 184 770 195 761 c 128,-1,21
 206 752 206 752 206 718 c 2,22,-1
 206 216 l 1,23,24
 280 210 280 210 418 224 c 1,25,26
 336 282 336 282 336 330 c 2,27,-1
 336 590 l 2,28,29
 336 678 336 678 366 708 c 0,30,31
 412 754 412 754 528 782 c 0,32,33
 622 806 622 806 692 806 c 0,34,35
 728 806 728 806 752 778 c 128,-1,36
 776 750 776 750 776 720 c 2,37,-1
 776 424 l 2,38,39
 776 336 776 336 732 270 c 1,40,41
 772 276 772 276 870 300 c 1,0,1
630 432 m 2,42,-1
 630 556 l 1,43,-1
 498 508 l 1,44,-1
 498 350 l 2,45,46
 498 330 498 330 517 305 c 128,-1,47
 536 280 536 280 556 274 c 1,48,49
 580 288 580 288 605 336 c 128,-1,50
 630 384 630 384 630 432 c 2,42,-1
EndSplineSet
Ligature2: "'psts' Post Base Substitutions lookup 8 subtable" tm_tta tm_ikaar
EndChar

StartChar: tm_nn_ikaar
Encoding: 65545 -1 125
Width: 2030
GlyphClass: 2
Flags: W
LayerCount: 2
Fore
SplineSet
1990 54 m 2,0,1
 1990 -22 1990 -22 1906 -22 c 0,2,3
 1834 -22 1834 -22 1834 26 c 2,4,-1
 1834 914 l 1,5,6
 1744 918 1744 918 1672 892 c 1,7,-1
 1672 816 l 1,8,9
 1732 832 1732 832 1750 832 c 256,10,11
 1768 832 1768 832 1784 808 c 0,12,13
 1802 778 1802 778 1802 730 c 2,14,-1
 1802 556 l 1,15,-1
 1672 532 l 1,16,-1
 1672 28 l 2,17,18
 1672 -20 1672 -20 1570 -20 c 0,19,20
 1534 -20 1534 -20 1521 -9 c 128,-1,21
 1508 2 1508 2 1508 40 c 2,22,-1
 1508 496 l 1,23,-1
 1426 478 l 1,24,-1
 1426 176 l 2,25,26
 1426 68 1426 68 1412 48 c 128,-1,27
 1398 28 1398 28 1321 10 c 128,-1,28
 1244 -8 1244 -8 1162 -8 c 0,29,30
 1068 -8 1068 -8 1046 2 c 0,31,32
 1000 22 1000 22 1000 100 c 2,33,-1
 1000 490 l 1,34,-1
 962 478 l 1,35,-1
 962 128 l 2,36,37
 962 82 962 82 958 70 c 0,38,39
 952 42 952 42 922 26 c 0,40,41
 852 -14 852 -14 638 -14 c 0,42,43
 572 -14 572 -14 546 20 c 0,44,45
 524 48 524 48 524 124 c 2,46,-1
 524 550 l 1,47,48
 486 552 486 552 350 522 c 0,49,50
 230 496 230 496 188 480 c 1,51,-1
 188 440 l 1,52,53
 288 492 288 492 418 492 c 0,54,55
 478 492 478 492 492 462 c 0,56,57
 500 440 500 440 500 386 c 2,58,-1
 500 118 l 2,59,60
 500 0 500 0 172 0 c 0,61,62
 90 0 90 0 60 25 c 128,-1,63
 30 50 30 50 30 124 c 2,64,-1
 30 592 l 2,65,66
 30 646 30 646 72 672 c 0,67,68
 168 732 168 732 389 775 c 128,-1,69
 610 818 610 818 824 818 c 0,70,71
 950 818 950 818 956 734 c 1,72,73
 1226 814 1226 814 1306 814 c 0,74,75
 1402 814 1402 814 1418 736 c 1,76,77
 1464 764 1464 764 1514 770 c 1,78,-1
 1514 1018 l 1,79,80
 1596 1142 1596 1142 1842 1142 c 0,81,82
 1926 1142 1926 1142 1958 1117 c 128,-1,83
 1990 1092 1990 1092 1990 1016 c 2,84,-1
 1990 54 l 2,0,1
1292 236 m 1,85,-1
 1292 526 l 1,86,87
 1278 528 1278 528 1258 528 c 0,88,89
 1188 528 1188 528 1130 508 c 1,90,-1
 1130 212 l 1,91,92
 1198 204 1198 204 1292 236 c 1,85,-1
822 220 m 1,93,-1
 822 528 l 1,94,95
 812 530 812 530 796 530 c 0,96,97
 746 530 746 530 654 508 c 1,98,-1
 654 192 l 1,99,100
 718 202 718 202 822 220 c 1,93,-1
374 230 m 1,101,-1
 374 288 l 1,102,103
 310 272 310 272 186 232 c 1,104,-1
 186 188 l 1,105,106
 276 190 276 190 374 230 c 1,101,-1
EndSplineSet
Ligature2: "'psts' Post Base Substitutions lookup 8 subtable" tm_nna tm_ikaar
EndChar

StartChar: tm_t_ikaar
Encoding: 65546 -1 126
Width: 1098
GlyphClass: 2
Flags: W
LayerCount: 2
Fore
SplineSet
1058 40 m 2,0,1
 1058 -44 1058 -44 974 -44 c 0,2,3
 908 -44 908 -44 908 16 c 2,4,-1
 908 952 l 1,5,6
 888 958 888 958 858 958 c 0,7,8
 756 958 756 958 546 892 c 1,9,-1
 546 826 l 1,10,11
 586 838 586 838 684 852 c 1,12,13
 736 806 736 806 736 722 c 0,14,15
 736 694 736 694 718 622 c 1,16,17
 638 638 638 638 534 602 c 1,18,-1
 534 552 l 1,19,20
 670 580 670 580 752 580 c 0,21,22
 824 580 824 580 846 504 c 0,23,24
 856 466 856 466 856 368 c 2,25,-1
 856 -46 l 2,26,27
 856 -168 856 -168 818 -202 c 0,28,29
 768 -246 768 -246 544 -294 c 0,30,31
 312 -344 312 -344 -16 -380 c 1,32,33
 -74 -334 -74 -334 -74 -234 c 0,34,35
 -74 -190 -74 -190 -58 -152 c 1,36,37
 66 -150 66 -150 328 -102 c 0,38,39
 612 -48 612 -48 698 2 c 1,40,-1
 698 328 l 1,41,42
 668 330 668 330 534 316 c 1,43,-1
 534 166 l 2,44,45
 534 38 534 38 500 18 c 0,46,47
 454 -8 454 -8 336 -30 c 0,48,49
 232 -48 232 -48 172 -48 c 0,50,51
 114 -48 114 -48 72 -16 c 128,-1,52
 30 16 30 16 30 72 c 2,53,-1
 30 336 l 2,54,55
 30 424 30 424 112 460 c 1,56,57
 82 514 82 514 92 694 c 1,58,59
 262 766 262 766 400 790 c 1,60,-1
 400 994 l 2,61,62
 400 1080 400 1080 600 1148 c 0,63,64
 784 1210 784 1210 966 1210 c 0,65,66
 1058 1210 1058 1210 1058 1128 c 2,67,-1
 1058 40 l 2,0,1
380 528 m 1,68,-1
 380 582 l 1,69,70
 350 572 350 572 232 524 c 1,71,-1
 232 484 l 1,72,73
 336 522 336 522 380 528 c 1,68,-1
386 238 m 1,74,-1
 386 294 l 1,75,76
 198 252 198 252 164 252 c 1,77,-1
 164 194 l 1,78,79
 336 206 336 206 386 238 c 1,74,-1
EndSplineSet
Ligature2: "'psts' Post Base Substitutions lookup 8 subtable" tm_ta tm_ikaar
EndChar

StartChar: tm_n_ikaar
Encoding: 65547 -1 127
Width: 1036
GlyphClass: 2
Flags: W
LayerCount: 2
Fore
SplineSet
996 70 m 2,0,1
 996 22 996 22 980 0 c 128,-1,2
 964 -22 964 -22 914 -22 c 0,3,4
 854 -22 854 -22 854 46 c 2,5,-1
 854 956 l 1,6,7
 776 960 776 960 669 939 c 128,-1,8
 562 918 562 918 502 886 c 1,9,-1
 502 824 l 1,10,11
 552 838 552 838 660 846 c 1,12,13
 712 806 712 806 712 726 c 0,14,15
 712 662 712 662 684 616 c 1,16,17
 616 610 616 610 502 586 c 1,18,-1
 502 514 l 1,19,20
 630 550 630 550 696 550 c 0,21,22
 796 550 796 550 796 358 c 2,23,-1
 796 52 l 2,24,25
 796 -222 796 -222 744 -258 c 0,26,27
 672 -308 672 -308 484 -346 c 128,-1,28
 296 -384 296 -384 122 -384 c 0,29,30
 -6 -384 -6 -384 -6 -232 c 0,31,32
 -6 -164 -6 -164 10 -140 c 1,33,34
 398 -136 398 -136 648 -28 c 1,35,-1
 648 268 l 2,36,37
 648 298 648 298 624 298 c 0,38,39
 542 298 542 298 502 264 c 1,40,-1
 502 40 l 2,41,42
 502 14 502 14 475 -6 c 128,-1,43
 448 -26 448 -26 418 -26 c 0,44,45
 350 -26 350 -26 350 50 c 2,46,-1
 350 562 l 1,47,48
 296 550 296 550 190 504 c 1,49,-1
 190 50 l 2,50,51
 190 -18 190 -18 100 -18 c 0,52,53
 40 -18 40 -18 40 40 c 2,54,-1
 40 586 l 2,55,56
 40 672 40 672 58 692 c 0,57,58
 90 740 90 740 350 790 c 1,59,-1
 350 916 l 2,60,61
 350 1024 350 1024 426 1076 c 0,62,63
 492 1122 492 1122 624 1153 c 128,-1,64
 756 1184 756 1184 878 1184 c 0,65,66
 996 1184 996 1184 996 1078 c 2,67,-1
 996 70 l 2,0,1
EndSplineSet
Ligature2: "'psts' Post Base Substitutions lookup 8 subtable" tm_na tm_ikaar
EndChar

StartChar: tm_nnn_ikaar
Encoding: 65548 -1 128
Width: 1564
GlyphClass: 2
Flags: W
LayerCount: 2
Fore
SplineSet
1524 86 m 2,0,1
 1524 -22 1524 -22 1418 -22 c 0,2,3
 1380 -22 1380 -22 1372 -2 c 0,4,5
 1366 8 1366 8 1366 52 c 2,6,-1
 1366 858 l 1,7,8
 1348 864 1348 864 1322 864 c 0,9,10
 1228 864 1228 864 1198 824 c 1,11,-1
 1198 770 l 1,12,13
 1284 770 1284 770 1284 770 c 1,14,15
 1336 740 1336 740 1336 646 c 0,16,17
 1336 510 1336 510 1312 498 c 1,18,-1
 1182 482 l 1,19,-1
 1182 20 l 2,20,21
 1182 -42 1182 -42 1098 -42 c 0,22,23
 1030 -42 1030 -42 1030 -2 c 2,24,-1
 1030 462 l 1,25,-1
 948 448 l 1,26,-1
 948 106 l 2,27,28
 948 24 948 24 934 8 c 0,29,30
 878 -56 878 -56 630 -56 c 0,31,32
 568 -56 568 -56 544 -17 c 128,-1,33
 520 22 520 22 520 118 c 2,34,-1
 520 536 l 1,35,36
 308 508 308 508 198 472 c 1,37,-1
 198 426 l 1,38,39
 308 476 308 476 410 476 c 0,40,41
 468 476 468 476 482 446 c 0,42,43
 492 428 492 428 492 364 c 2,44,-1
 492 134 l 2,45,46
 492 56 492 56 472 34 c 0,47,48
 444 4 444 4 332 -18 c 0,49,50
 236 -38 236 -38 168 -38 c 0,51,52
 68 -38 68 -38 48 38 c 1,53,54
 40 122 40 122 42 320 c 0,55,56
 42 524 42 524 52 626 c 1,57,58
 106 694 106 694 320 742 c 0,59,60
 528 788 528 788 758 788 c 0,61,62
 898 788 898 788 936 716 c 1,63,-1
 1054 736 l 1,64,-1
 1054 976 l 1,65,66
 1096 1032 1096 1032 1192 1067 c 128,-1,67
 1288 1102 1288 1102 1396 1102 c 0,68,69
 1524 1102 1524 1102 1524 988 c 2,70,-1
 1524 86 l 2,0,1
798 510 m 1,71,-1
 676 498 l 1,72,73
 668 482 668 482 666 346 c 0,74,75
 664 206 664 206 674 174 c 1,76,-1
 794 198 l 1,77,78
 802 240 802 240 804 358 c 0,79,80
 804 470 804 470 798 510 c 1,71,-1
366 208 m 1,81,-1
 366 262 l 1,82,83
 308 254 308 254 198 222 c 1,84,-1
 198 170 l 1,85,86
 318 190 318 190 366 208 c 1,81,-1
EndSplineSet
Ligature2: "'psts' Post Base Substitutions lookup 8 subtable" tm_nnna tm_ikaar
EndChar

StartChar: tm_p_ikaar
Encoding: 65549 -1 129
Width: 926
GlyphClass: 2
Flags: W
LayerCount: 2
Fore
SplineSet
886 82 m 2,0,1
 886 -2 886 -2 794 -2 c 0,2,3
 756 -2 756 -2 744 9 c 128,-1,4
 732 20 732 20 732 62 c 2,5,-1
 732 840 l 2,6,7
 732 878 732 878 700 878 c 0,8,9
 618 878 618 878 536 856 c 0,10,11
 438 832 438 832 438 792 c 2,12,-1
 438 712 l 2,13,14
 438 694 438 694 453 681 c 128,-1,15
 468 668 468 668 482 668 c 256,16,17
 496 668 496 668 496 682 c 2,18,-1
 496 742 l 1,19,20
 520 766 520 766 588 766 c 0,21,22
 658 766 658 766 658 658 c 2,23,-1
 658 222 l 2,24,25
 658 98 658 98 640 74 c 0,26,27
 604 28 604 28 479 -1 c 128,-1,28
 354 -30 354 -30 208 -30 c 0,29,30
 94 -30 94 -30 40 12 c 1,31,-1
 40 730 l 1,32,33
 70 758 70 758 144 758 c 0,34,35
 208 758 208 758 208 682 c 2,36,-1
 208 248 l 1,37,38
 368 248 368 248 496 298 c 1,39,-1
 496 480 l 1,40,41
 422 458 422 458 396 458 c 0,42,43
 300 458 300 458 300 602 c 2,44,-1
 300 888 l 2,45,46
 300 980 300 980 328 1008 c 0,47,48
 376 1056 376 1056 500 1087 c 128,-1,49
 624 1118 624 1118 746 1118 c 0,50,51
 886 1118 886 1118 886 966 c 2,52,-1
 886 82 l 2,0,1
EndSplineSet
Ligature2: "'psts' Post Base Substitutions lookup 8 subtable" tm_pa tm_ikaar
EndChar

StartChar: tm_m_ikaar
Encoding: 65550 -1 130
Width: 986
GlyphClass: 2
Flags: W
LayerCount: 2
Fore
SplineSet
946 36 m 1,0,1
 908 0 908 0 856 0 c 0,2,3
 836 0 836 0 816 13 c 128,-1,4
 796 26 796 26 796 46 c 2,5,-1
 796 882 l 1,6,7
 764 886 764 886 734 886 c 0,8,9
 656 886 656 886 564 846 c 1,10,-1
 564 772 l 1,11,12
 596 780 596 780 640 780 c 0,13,14
 682 780 682 780 709 754 c 128,-1,15
 736 728 736 728 736 688 c 2,16,-1
 736 218 l 2,17,18
 736 164 736 164 712 134 c 0,19,20
 666 74 666 74 490 30 c 0,21,22
 328 -12 328 -12 190 -12 c 0,23,24
 40 -12 40 -12 40 98 c 2,25,-1
 40 722 l 1,26,27
 74 768 74 768 130 768 c 0,28,29
 188 768 188 768 188 732 c 2,30,-1
 188 234 l 1,31,-1
 248 258 l 1,32,-1
 248 602 l 2,33,34
 248 646 248 646 304 682 c 0,35,36
 314 688 314 688 420 738 c 1,37,-1
 420 960 l 2,38,39
 420 1012 420 1012 542 1065 c 128,-1,40
 664 1118 664 1118 808 1118 c 0,41,42
 946 1118 946 1118 946 1012 c 2,43,-1
 946 36 l 1,0,1
600 346 m 1,44,-1
 600 522 l 1,45,46
 534 520 534 520 388 452 c 1,47,-1
 388 284 l 1,48,-1
 600 346 l 1,44,-1
EndSplineSet
Ligature2: "'psts' Post Base Substitutions lookup 8 subtable" tm_ma tm_ikaar
EndChar

StartChar: tm_y_ikaar
Encoding: 65551 -1 131
Width: 1188
GlyphClass: 2
Flags: W
LayerCount: 2
Fore
SplineSet
1148 -4 m 1,0,1
 1124 -36 1124 -36 1062 -36 c 0,2,3
 994 -36 994 -36 994 20 c 2,4,-1
 994 786 l 2,5,6
 994 842 994 842 958 842 c 0,7,8
 892 842 892 842 726 782 c 1,9,-1
 726 644 l 1,10,-1
 778 654 l 1,11,-1
 778 722 l 2,12,13
 778 784 778 784 894 784 c 0,14,15
 928 784 928 784 928 756 c 2,16,-1
 928 100 l 1,17,18
 918 40 918 40 812 0 c 0,19,20
 692 -44 692 -44 488 -44 c 0,21,22
 304 -44 304 -44 304 0 c 2,23,-1
 304 96 l 1,24,25
 252 0 252 0 142 0 c 0,26,27
 100 0 100 0 70 35 c 128,-1,28
 40 70 40 70 40 116 c 2,29,-1
 40 782 l 2,30,31
 40 840 40 840 136 840 c 0,32,33
 188 840 188 840 198 810 c 1,34,-1
 198 328 l 2,35,36
 198 272 198 272 246 272 c 0,37,38
 304 272 304 272 304 336 c 2,39,-1
 304 714 l 1,40,41
 336 756 336 756 396 756 c 0,42,43
 442 756 442 756 454 749 c 128,-1,44
 466 742 466 742 466 708 c 2,45,-1
 466 230 l 1,46,47
 502 222 502 222 540 222 c 0,48,49
 640 222 640 222 778 272 c 1,50,-1
 778 448 l 1,51,52
 730 432 730 432 670 432 c 0,53,54
 572 432 572 432 572 576 c 2,55,-1
 572 902 l 2,56,57
 572 984 572 984 740 1036 c 0,58,59
 880 1080 880 1080 1024 1080 c 0,60,61
 1148 1080 1148 1080 1148 990 c 2,62,-1
 1148 -4 l 1,0,1
EndSplineSet
Ligature2: "'psts' Post Base Substitutions lookup 8 subtable" tm_ya tm_ikaar
EndChar

StartChar: tm_r_ikaar
Encoding: 65552 -1 132
Width: 860
GlyphClass: 2
Flags: W
LayerCount: 2
Fore
SplineSet
820 60 m 2,0,1
 820 34 820 34 790 16 c 128,-1,2
 760 -2 760 -2 726 -2 c 0,3,4
 662 -2 662 -2 662 48 c 2,5,-1
 662 882 l 2,6,7
 662 942 662 942 626 942 c 256,8,9
 590 942 590 942 549 923 c 128,-1,10
 508 904 508 904 512 888 c 1,11,-1
 512 846 l 1,12,13
 564 856 564 856 594 832 c 0,14,15
 632 800 632 800 632 704 c 0,16,17
 632 624 632 624 610 610 c 1,18,19
 604 611 604 611 598 612 c 0,20,21
 596 609 596 609 594 606 c 2,22,-1
 512 606 l 1,23,-1
 511 -186 l 1,24,25
 342 -242 342 -242 40 -296 c 1,26,27
 12 -284 12 -284 -10 -212 c 0,28,29
 -28 -150 -28 -150 -28 -98 c 0,30,31
 -28 -84 -28 -84 -26 -76 c 1,32,33
 134 -48 134 -48 156 -44 c 0,34,35
 238 -28 238 -28 348 6 c 1,36,-1
 348 572 l 1,37,-1
 206 526 l 1,38,-1
 206 40 l 1,39,40
 178 -2 178 -2 112 -2 c 0,41,42
 60 -2 60 -2 40 36 c 1,43,-1
 40 714 l 1,44,45
 47 717 47 717 54 720 c 0,46,47
 147 777 147 777 350 818 c 1,48,-1
 350 1060 l 1,49,50
 398 1118 398 1118 508 1156 c 0,51,52
 606 1190 606 1190 694 1190 c 0,53,54
 820 1190 820 1190 820 1072 c 2,55,-1
 820 60 l 2,0,1
EndSplineSet
Ligature2: "'psts' Post Base Substitutions lookup 8 subtable" tm_ra tm_ikaar
EndChar

StartChar: tm_rr_ikaar
Encoding: 65553 -1 133
Width: 1078
GlyphClass: 2
Flags: W
LayerCount: 2
Fore
SplineSet
1038 58 m 2,0,1
 1038 8 1038 8 942 8 c 0,2,3
 888 8 888 8 888 48 c 2,4,-1
 888 890 l 1,5,6
 844 896 844 896 790 886 c 0,7,8
 726 874 726 874 706 842 c 1,9,-1
 706 806 l 1,10,11
 760 810 760 810 795 773 c 128,-1,12
 830 736 830 736 830 684 c 2,13,-1
 830 -52 l 2,14,15
 830 -140 830 -140 794 -166 c 0,16,17
 750 -200 750 -200 528 -260 c 0,18,19
 298 -324 298 -324 44 -368 c 1,20,21
 -30 -310 -30 -310 -30 -200 c 0,22,23
 -30 -170 -30 -170 -24 -144 c 1,24,25
 190 -112 190 -112 410 -56 c 0,26,27
 610 -4 610 -4 652 22 c 0,28,29
 674 36 674 36 674 84 c 2,30,-1
 674 520 l 2,31,32
 674 542 674 542 646 542 c 0,33,34
 600 542 600 542 537 519 c 128,-1,35
 474 496 474 496 446 464 c 1,36,-1
 446 78 l 2,37,38
 446 -6 446 -6 336 -6 c 0,39,40
 306 -6 306 -6 306 42 c 2,41,-1
 306 526 l 2,42,43
 306 544 306 544 276 544 c 0,44,45
 224 544 224 544 184 504 c 1,46,-1
 184 50 l 1,47,48
 170 -6 170 -6 98 -6 c 0,49,50
 40 -6 40 -6 40 66 c 2,51,-1
 40 618 l 2,52,53
 40 720 40 720 78 743 c 128,-1,54
 116 766 116 766 186 788 c 0,55,56
 274 816 274 816 338 816 c 0,57,58
 446 816 446 816 446 738 c 2,59,-1
 446 716 l 1,60,61
 490 756 490 756 562 770 c 1,62,-1
 562 964 l 2,63,64
 562 1038 562 1038 678 1088 c 0,65,66
 784 1134 784 1134 912 1134 c 0,67,68
 1038 1134 1038 1134 1038 1022 c 2,69,-1
 1038 58 l 2,0,1
EndSplineSet
Ligature2: "'psts' Post Base Substitutions lookup 8 subtable" tm_rra tm_ikaar
EndChar

StartChar: tm_l_ikaar
Encoding: 65554 -1 134
Width: 1146
GlyphClass: 2
Flags: W
LayerCount: 2
Fore
SplineSet
1106 90 m 2,0,1
 1106 38 1106 38 1020 38 c 0,2,3
 964 38 964 38 964 70 c 2,4,-1
 964 858 l 2,5,6
 964 898 964 898 946 904 c 0,7,8
 936 908 936 908 914 908 c 0,9,10
 864 908 864 908 780 888 c 0,11,12
 682 864 682 864 682 838 c 2,13,-1
 682 746 l 2,14,15
 682 730 682 730 700 724 c 0,16,17
 716 716 716 716 734 726 c 1,18,-1
 734 782 l 1,19,20
 762 806 762 806 818 806 c 0,21,22
 900 806 900 806 900 706 c 2,23,-1
 900 90 l 2,24,25
 900 34 900 34 784 0 c 0,26,27
 692 -28 692 -28 606 -28 c 0,28,29
 550 -28 550 -28 525 -9 c 128,-1,30
 500 10 500 10 500 68 c 2,31,-1
 500 606 l 1,32,33
 380 612 380 612 174 514 c 1,34,-1
 174 480 l 1,35,36
 196 482 196 482 252 501 c 128,-1,37
 308 520 308 520 350 520 c 0,38,39
 446 520 446 520 446 356 c 2,40,-1
 446 232 l 2,41,42
 446 98 446 98 415 67 c 128,-1,43
 384 36 384 36 272 16 c 0,44,45
 184 0 184 0 126 0 c 0,46,47
 40 0 40 0 40 126 c 2,48,-1
 40 610 l 2,49,50
 40 700 40 700 208 764 c 0,51,52
 358 820 358 820 528 820 c 1,53,-1
 528 606 l 2,54,55
 528 490 528 490 636 480 c 1,56,-1
 636 262 l 2,57,58
 636 238 636 238 652 234 c 0,59,60
 658 232 658 232 692 232 c 0,61,62
 758 232 758 232 758 280 c 2,63,-1
 758 502 l 2,64,65
 758 522 758 522 736 522 c 0,66,67
 724 522 724 522 687 511 c 128,-1,68
 650 500 650 500 634 500 c 0,69,70
 596 500 596 500 571 524 c 128,-1,71
 546 548 546 548 546 586 c 2,72,-1
 546 964 l 2,73,74
 546 1056 546 1056 712 1104 c 0,75,76
 834 1140 834 1140 980 1140 c 0,77,78
 1028 1140 1028 1140 1067 1116 c 128,-1,79
 1106 1092 1106 1092 1106 1050 c 2,80,-1
 1106 90 l 2,0,1
328 236 m 1,81,82
 332 286 332 286 328 304 c 1,83,84
 290 298 290 298 176 256 c 1,85,-1
 176 206 l 1,86,87
 242 196 242 196 328 236 c 1,81,82
EndSplineSet
Ligature2: "'psts' Post Base Substitutions lookup 8 subtable" tm_la tm_ikaar
EndChar

StartChar: tm_ll_ikaar
Encoding: 65555 -1 135
Width: 1304
GlyphClass: 2
Flags: W
LayerCount: 2
Fore
SplineSet
1264 62 m 2,0,1
 1264 34 1264 34 1239 14 c 128,-1,2
 1214 -6 1214 -6 1176 -6 c 0,3,4
 1126 -6 1126 -6 1116 26 c 1,5,-1
 1116 856 l 2,6,7
 1116 882 1116 882 1078 882 c 0,8,9
 992 882 992 882 944 834 c 1,10,-1
 944 784 l 1,11,12
 1048 792 1048 792 1042 792 c 1,13,14
 1096 792 1096 792 1096 664 c 0,15,16
 1096 604 1096 604 1084 538 c 1,17,18
 1068 540 1068 540 944 522 c 1,19,-1
 944 18 l 1,20,21
 926 -10 926 -10 860 -10 c 256,22,23
 794 -10 794 -10 794 64 c 2,24,-1
 794 490 l 1,25,26
 750 480 750 480 684 450 c 1,27,-1
 684 48 l 2,28,29
 684 -10 684 -10 584 -10 c 0,30,31
 526 -10 526 -10 526 60 c 2,32,-1
 526 602 l 1,33,34
 326 606 326 606 184 538 c 1,35,-1
 184 482 l 1,36,37
 282 532 282 532 396 532 c 0,38,39
 442 532 442 532 454 472 c 0,40,41
 458 450 458 450 458 358 c 2,42,-1
 458 210 l 2,43,44
 458 52 458 52 431 34 c 128,-1,45
 404 16 404 16 319 -2 c 128,-1,46
 234 -20 234 -20 184 -20 c 0,47,48
 96 -20 96 -20 68 5 c 128,-1,49
 40 30 40 30 40 96 c 2,50,-1
 40 580 l 2,51,52
 40 664 40 664 74 698 c 0,53,54
 124 748 124 748 279 791 c 128,-1,55
 434 834 434 834 556 834 c 0,56,57
 680 834 680 834 680 720 c 1,58,59
 728 750 728 750 794 758 c 1,60,-1
 794 950 l 2,61,62
 794 1016 794 1016 906 1068 c 0,63,64
 1012 1118 1012 1118 1132 1118 c 0,65,66
 1178 1118 1178 1118 1218 1100 c 0,67,68
 1264 1076 1264 1076 1264 1038 c 2,69,-1
 1264 62 l 2,0,1
344 244 m 1,70,-1
 344 292 l 1,71,72
 254 286 254 286 168 252 c 1,73,-1
 168 202 l 1,74,75
 266 206 266 206 344 244 c 1,70,-1
EndSplineSet
Ligature2: "'psts' Post Base Substitutions lookup 8 subtable" tm_lla tm_ikaar
EndChar

StartChar: tm_lll_ikaar
Encoding: 65556 -1 136
Width: 1012
GlyphClass: 2
Flags: W
LayerCount: 2
Fore
SplineSet
972 94 m 2,0,1
 972 48 972 48 882 42 c 0,2,3
 816 38 816 38 816 78 c 2,4,-1
 816 882 l 2,5,6
 816 894 816 894 784 894 c 0,7,8
 730 894 730 894 658 872 c 128,-1,9
 586 850 586 850 586 828 c 2,10,-1
 586 790 l 1,11,12
 598 790 598 790 628 794 c 0,13,14
 650 798 650 798 664 798 c 0,15,16
 760 798 760 798 760 644 c 2,17,-1
 760 314 l 2,18,19
 760 262 760 262 746 204 c 0,20,21
 730 128 730 128 700 110 c 0,22,23
 574 38 574 38 416 14 c 1,24,-1
 416 -64 l 1,25,26
 588 -28 588 -28 694 18 c 1,27,28
 732 -6 732 -6 736 -90 c 0,29,30
 740 -178 740 -178 712 -220 c 1,31,32
 402 -324 402 -324 80 -324 c 1,33,34
 38 -274 38 -274 38 -220 c 0,35,36
 38 -132 38 -132 52 -104 c 1,37,38
 134 -106 134 -106 274 -84 c 1,39,-1
 274 -4 l 1,40,41
 218 -12 218 -12 182 -12 c 0,42,43
 92 -12 92 -12 64 42 c 0,44,45
 40 86 40 86 40 220 c 2,46,-1
 40 684 l 2,47,48
 40 728 40 728 68 760 c 128,-1,49
 96 792 96 792 146 792 c 0,50,51
 206 792 206 792 206 750 c 0,52,53
 206 722 206 722 199 683 c 128,-1,54
 192 644 192 644 192 620 c 2,55,-1
 192 240 l 1,56,-1
 254 240 l 1,57,-1
 254 590 l 2,58,59
 254 710 254 710 450 756 c 1,60,-1
 450 970 l 2,61,62
 450 1026 450 1026 564 1080 c 0,63,64
 694 1140 694 1140 878 1140 c 0,65,66
 916 1140 916 1140 944 1117 c 128,-1,67
 972 1094 972 1094 972 1062 c 2,68,-1
 972 94 l 2,0,1
610 348 m 1,69,-1
 610 530 l 1,70,71
 590 534 590 534 519 509 c 128,-1,72
 448 484 448 484 402 460 c 1,73,-1
 402 278 l 1,74,75
 482 308 482 308 610 348 c 1,69,-1
EndSplineSet
Ligature2: "'psts' Post Base Substitutions lookup 8 subtable" tm_llla tm_ikaar
EndChar

StartChar: tm_v_ikaar
Encoding: 65557 -1 137
Width: 1214
GlyphClass: 2
Flags: W
LayerCount: 2
Fore
SplineSet
1174 72 m 2,0,1
 1174 10 1174 10 1084 10 c 0,2,3
 1020 10 1020 10 1020 48 c 2,4,-1
 1020 848 l 2,5,6
 1020 884 1020 884 990 884 c 0,7,8
 952 884 952 884 870 862 c 0,9,10
 782 838 782 838 760 818 c 1,11,12
 740 808 740 808 740 780 c 2,13,-1
 740 706 l 2,14,15
 740 690 740 690 766 690 c 0,16,17
 812 690 812 690 812 716 c 2,18,-1
 812 756 l 2,19,20
 812 812 812 812 872 812 c 0,21,22
 934 812 934 812 954 782 c 0,23,24
 968 760 968 760 968 692 c 2,25,-1
 968 82 l 1,26,27
 872 0 872 0 546 -34 c 1,28,29
 520 -4 520 -4 508 122 c 0,30,31
 496 234 496 234 504 310 c 1,32,33
 556 314 556 314 556 354 c 2,34,-1
 556 606 l 2,35,36
 556 638 556 638 538 638 c 0,37,38
 452 638 452 638 328 608 c 0,39,40
 198 576 198 576 198 548 c 2,41,-1
 198 518 l 1,42,43
 308 560 308 560 404 560 c 0,44,45
 480 560 480 560 480 298 c 0,46,47
 480 94 480 94 430 48 c 0,48,49
 360 -16 360 -16 174 -16 c 0,50,51
 96 -16 96 -16 62 64 c 0,52,53
 40 114 40 114 40 182 c 2,54,-1
 40 626 l 2,55,56
 40 706 40 706 78 742 c 0,57,58
 108 770 108 770 214 804 c 0,59,60
 396 862 396 862 598 862 c 1,61,-1
 598 582 l 2,62,63
 598 508 598 508 700 470 c 1,64,-1
 700 342 l 2,65,66
 700 272 700 272 654 228 c 1,67,68
 702 236 702 236 810 266 c 1,69,-1
 810 492 l 1,70,71
 740 478 740 478 726 478 c 0,72,73
 682 478 682 478 648 510 c 0,74,75
 608 546 608 546 608 610 c 2,76,-1
 608 962 l 2,77,78
 608 1012 608 1012 759 1065 c 128,-1,79
 910 1118 910 1118 1052 1118 c 0,80,81
 1174 1118 1174 1118 1174 1030 c 2,82,-1
 1174 72 l 2,0,1
328 278 m 1,83,-1
 328 338 l 1,84,85
 286 324 286 324 192 294 c 1,86,-1
 192 246 l 1,87,88
 254 252 254 252 328 278 c 1,83,-1
EndSplineSet
Ligature2: "'psts' Post Base Substitutions lookup 8 subtable" tm_va tm_ikaar
EndChar

StartChar: tm_ss_ikaar
Encoding: 65558 -1 138
Width: 1478
GlyphClass: 2
Flags: W
LayerCount: 2
Fore
SplineSet
1438 56 m 2,0,1
 1438 8 1438 8 1362 8 c 0,2,3
 1292 8 1292 8 1292 38 c 2,4,-1
 1292 872 l 1,5,6
 1194 882 1194 882 1080 834 c 1,7,-1
 1080 768 l 1,8,9
 1098 774 1098 774 1114 774 c 0,10,11
 1150 774 1150 774 1173 753 c 128,-1,12
 1196 732 1196 732 1196 704 c 2,13,-1
 1196 354 l 2,14,15
 1196 308 1196 308 1132 262 c 1,16,-1
 1260 312 l 1,17,18
 1278 288 1278 288 1278 192 c 0,19,20
 1278 84 1278 84 1248 60 c 1,21,22
 1146 34 1146 34 960 -2 c 1,23,24
 858 -146 858 -146 676 -388 c 1,25,26
 578 -370 578 -370 550 -306 c 1,27,28
 554 -292 554 -292 636 -186 c 0,29,30
 736 -60 736 -60 764 -16 c 1,31,-1
 532 -26 l 1,32,33
 490 34 490 34 490 202 c 0,34,35
 490 254 490 254 496 290 c 1,36,37
 544 308 544 308 544 340 c 2,38,-1
 544 572 l 2,39,40
 544 622 544 622 496 622 c 0,41,42
 434 622 434 622 316 588 c 0,43,44
 216 560 216 560 184 544 c 1,45,-1
 184 496 l 1,46,47
 308 542 308 542 380 542 c 0,48,49
 404 542 404 542 424 508 c 0,50,51
 450 466 450 466 450 398 c 2,52,-1
 450 174 l 2,53,54
 450 54 450 54 418 20 c 0,55,56
 370 -32 370 -32 186 -32 c 0,57,58
 40 -32 40 -32 40 144 c 2,59,-1
 40 446 l 2,60,61
 40 694 40 694 68 722 c 0,62,63
 112 766 112 766 268 808 c 128,-1,64
 424 850 424 850 536 850 c 0,65,66
 642 850 642 850 670 796 c 0,67,68
 690 754 690 754 690 600 c 2,69,-1
 690 340 l 2,70,71
 690 256 690 256 630 218 c 1,72,73
 802 208 802 208 846 226 c 1,74,75
 758 264 758 264 758 338 c 2,76,-1
 758 540 l 2,77,78
 758 644 758 644 793 690 c 128,-1,79
 828 736 828 736 934 754 c 1,80,-1
 934 972 l 1,81,82
 1062 1100 1062 1100 1322 1100 c 0,83,84
 1438 1100 1438 1100 1438 1004 c 2,85,-1
 1438 56 l 2,0,1
1056 424 m 2,86,-1
 1056 564 l 1,87,88
 968 552 968 552 924 512 c 1,89,-1
 924 340 l 1,90,91
 938 308 938 308 986 268 c 1,92,93
 1056 348 1056 348 1056 424 c 2,86,-1
334 256 m 1,94,-1
 334 318 l 1,95,96
 314 320 314 320 182 282 c 1,97,-1
 182 226 l 1,98,99
 266 222 266 222 334 256 c 1,94,-1
EndSplineSet
Ligature2: "'psts' Post Base Substitutions lookup 8 subtable" tm_ssa tm_ikaar
EndChar

StartChar: tm_s_ikaar
Encoding: 65559 -1 139
Width: 1458
GlyphClass: 2
Flags: W
LayerCount: 2
Fore
SplineSet
1418 6 m 2,0,1
 1418 -56 1418 -56 1316 -56 c 0,2,3
 1268 -56 1268 -56 1268 -26 c 2,4,-1
 1268 854 l 2,5,6
 1268 886 1268 886 1246 886 c 0,7,8
 1096 886 1096 886 980 822 c 1,9,-1
 980 768 l 1,10,11
 1028 782 1028 782 1088 782 c 0,12,13
 1204 782 1204 782 1204 686 c 2,14,-1
 1204 134 l 2,15,16
 1204 10 1204 10 1130 -26 c 0,17,18
 1048 -66 1048 -66 860 -66 c 0,19,20
 772 -66 772 -66 772 66 c 0,21,22
 772 136 772 136 778 261 c 128,-1,23
 784 386 784 386 784 410 c 0,24,25
 784 442 784 442 778 456 c 128,-1,26
 772 470 772 470 746 470 c 0,27,28
 710 470 710 470 700 464 c 0,29,30
 678 450 678 450 678 402 c 2,31,-1
 678 10 l 2,32,33
 678 -46 678 -46 598 -46 c 0,34,35
 534 -46 534 -46 534 12 c 2,36,-1
 534 570 l 1,37,38
 516 574 516 574 494 574 c 0,39,40
 418 574 418 574 308 534 c 0,41,42
 220 504 220 504 194 484 c 0,43,44
 184 474 184 474 190 446 c 1,45,46
 306 492 306 492 354 492 c 0,47,48
 476 492 476 492 476 396 c 2,49,-1
 476 148 l 2,50,51
 476 62 476 62 414 24 c 0,52,53
 314 -38 314 -38 164 -38 c 0,54,55
 40 -38 40 -38 40 102 c 2,56,-1
 40 502 l 2,57,58
 40 622 40 622 106 678 c 0,59,60
 244 796 244 796 562 796 c 0,61,62
 684 796 684 796 684 720 c 0,63,64
 684 710 684 710 682 696 c 1,65,66
 742 718 742 718 836 734 c 1,67,68
 832 706 832 706 832 682 c 0,69,70
 832 570 832 570 922 520 c 1,71,-1
 922 218 l 2,72,73
 922 186 922 186 976 186 c 0,74,75
 1062 186 1062 186 1062 262 c 2,76,-1
 1062 484 l 2,77,78
 1062 538 1062 538 1032 538 c 0,79,80
 1026 538 1026 538 1007 535 c 128,-1,81
 988 532 988 532 978 532 c 0,82,83
 934 532 934 532 896 556 c 0,84,85
 850 586 850 586 850 634 c 2,86,-1
 850 958 l 2,87,88
 850 998 850 998 892 1024 c 0,89,90
 942 1060 942 1060 1065 1089 c 128,-1,91
 1188 1118 1188 1118 1306 1118 c 0,92,93
 1418 1118 1418 1118 1418 994 c 2,94,-1
 1418 6 l 2,0,1
350 208 m 1,95,-1
 350 268 l 1,96,97
 272 278 272 278 184 222 c 1,98,-1
 184 174 l 1,99,100
 292 170 292 170 350 208 c 1,95,-1
EndSplineSet
Ligature2: "'psts' Post Base Substitutions lookup 8 subtable" tm_sa tm_ikaar
EndChar

StartChar: tm_h_ikaar
Encoding: 65560 -1 140
Width: 1862
GlyphClass: 2
Flags: W
LayerCount: 2
Fore
SplineSet
1822 0 m 2,0,1
 1822 -16 1822 -16 1788 -27 c 128,-1,2
 1754 -38 1754 -38 1720 -38 c 0,3,4
 1676 -38 1676 -38 1676 12 c 2,5,-1
 1676 836 l 2,6,7
 1676 884 1676 884 1644 884 c 0,8,9
 1588 884 1588 884 1522 864 c 128,-1,10
 1456 844 1456 844 1456 826 c 2,11,-1
 1456 784 l 1,12,13
 1480 788 1480 788 1500 788 c 0,14,15
 1596 788 1596 788 1596 692 c 2,16,-1
 1596 -72 l 2,17,18
 1596 -126 1596 -126 1564 -148 c 0,19,20
 1446 -232 1446 -232 1014 -306 c 128,-1,21
 582 -380 582 -380 58 -406 c 1,22,23
 -2 -372 -2 -372 -2 -276 c 0,24,25
 -2 -190 -2 -190 36 -176 c 1,26,27
 524 -178 524 -178 996 -92 c 0,28,29
 1442 -12 1442 -12 1442 60 c 2,30,-1
 1442 536 l 1,31,32
 1320 528 1320 528 1226 472 c 1,33,-1
 1226 50 l 2,34,35
 1226 -16 1226 -16 1104 -16 c 0,36,37
 1072 -16 1072 -16 1072 26 c 2,38,-1
 1072 528 l 2,39,40
 1072 544 1072 544 1050 544 c 0,41,42
 1000 544 1000 544 962 512 c 1,43,-1
 962 64 l 2,44,45
 962 24 962 24 944 10 c 0,46,47
 862 -58 862 -58 500 -76 c 1,48,49
 500 146 500 146 514 272 c 1,50,51
 564 278 564 278 564 324 c 2,52,-1
 564 572 l 2,53,54
 564 596 564 596 542 596 c 0,55,56
 482 596 482 596 386 580 c 0,57,58
 270 560 270 560 214 532 c 1,59,-1
 214 490 l 1,60,61
 344 526 344 526 388 526 c 0,62,63
 428 526 428 526 455 492 c 128,-1,64
 482 458 482 458 482 416 c 2,65,-1
 482 240 l 2,66,67
 482 64 482 64 442 20 c 0,68,69
 382 -48 382 -48 166 -48 c 0,70,71
 120 -48 120 -48 84 -22 c 0,72,73
 40 12 40 12 40 74 c 2,74,-1
 40 444 l 2,75,76
 40 492 40 492 52 574 c 0,77,78
 66 676 66 676 84 696 c 0,79,80
 130 744 130 744 281 782 c 128,-1,81
 432 820 432 820 574 820 c 0,82,83
 718 820 718 820 718 680 c 2,84,-1
 718 362 l 2,85,86
 718 222 718 222 658 184 c 1,87,88
 758 194 758 194 814 218 c 1,89,-1
 814 658 l 2,90,91
 814 710 814 710 860 744 c 0,92,93
 946 808 946 808 1114 808 c 0,94,95
 1156 808 1156 808 1191 790 c 128,-1,96
 1226 772 1226 772 1226 736 c 0,97,98
 1226 724 1226 724 1220 710 c 1,99,100
 1252 736 1252 736 1328 754 c 1,101,-1
 1328 976 l 2,102,103
 1328 1032 1328 1032 1456 1081 c 128,-1,104
 1584 1130 1584 1130 1732 1130 c 0,105,106
 1822 1130 1822 1130 1822 1046 c 2,107,-1
 1822 0 l 2,0,1
362 240 m 1,108,-1
 362 310 l 1,109,110
 300 298 300 298 196 264 c 1,111,-1
 196 212 l 1,112,113
 260 214 260 214 362 240 c 1,108,-1
EndSplineSet
Ligature2: "'psts' Post Base Substitutions lookup 8 subtable" tm_ha tm_ikaar
EndChar

StartChar: tm_k_iikaar
Encoding: 65561 -1 141
Width: 872
GlyphClass: 2
Flags: W
LayerCount: 2
Fore
SplineSet
842 86 m 2,0,1
 842 24 842 24 806 3 c 128,-1,2
 770 -18 770 -18 693 -36 c 128,-1,3
 616 -54 616 -54 576 -54 c 0,4,5
 520 -54 520 -54 520 -24 c 2,6,-1
 520 38 l 1,7,8
 222 -20 222 -20 162 -20 c 0,9,10
 30 -20 30 -20 30 110 c 2,11,-1
 30 400 l 2,12,13
 30 454 30 454 112 492 c 1,14,-1
 112 724 l 1,15,16
 206 758 206 758 366 802 c 1,17,18
 292 838 292 838 292 1038 c 0,19,20
 292 1228 292 1228 323 1275 c 128,-1,21
 354 1322 354 1322 462 1352 c 0,22,23
 546 1374 546 1374 610 1374 c 0,24,25
 692 1374 692 1374 692 1282 c 2,26,-1
 692 1086 l 2,27,28
 692 992 692 992 671 963 c 128,-1,29
 650 934 650 934 605 917 c 128,-1,30
 560 900 560 900 532 900 c 0,31,32
 484 900 484 900 466 922 c 1,33,34
 450 840 450 840 544 838 c 1,35,36
 618 860 618 860 680 860 c 0,37,38
 758 860 758 860 758 746 c 0,39,40
 758 668 758 668 742 628 c 1,41,42
 710 638 710 638 668 638 c 0,43,44
 632 638 632 638 534 618 c 1,45,-1
 534 564 l 1,46,47
 666 586 666 586 772 586 c 0,48,49
 816 586 816 586 832 558 c 0,50,51
 842 538 842 538 842 486 c 2,52,-1
 842 86 l 2,0,1
560 1118 m 1,53,-1
 560 1170 l 1,54,55
 502 1186 502 1186 462 1150 c 1,56,-1
 462 1092 l 1,57,58
 538 1102 538 1102 560 1118 c 1,53,-1
712 208 m 1,59,-1
 712 350 l 1,60,61
 632 332 632 332 534 336 c 1,62,-1
 534 180 l 1,63,64
 636 180 636 180 712 208 c 1,59,-1
398 542 m 1,65,-1
 398 600 l 1,66,67
 320 586 320 586 244 556 c 1,68,-1
 244 508 l 1,69,70
 374 542 374 542 398 542 c 1,65,-1
398 254 m 1,71,-1
 398 318 l 1,72,73
 316 304 316 304 158 274 c 1,74,-1
 158 220 l 1,75,76
 186 214 186 214 282 228 c 0,77,78
 370 242 370 242 398 254 c 1,71,-1
EndSplineSet
Ligature2: "'abvs' Above Base Substitutions lookup 6 subtable" tm_ka tm_iikaar
EndChar

StartChar: tm_ng_iikaar
Encoding: 65562 -1 142
Width: 1089
GlyphClass: 2
Flags: W
LayerCount: 2
Fore
SplineSet
1014 122 m 2,0,1
 1014 30 1014 30 962 4 c 0,2,3
 892 -32 892 -32 632 -56 c 1,4,5
 572 -18 572 -18 572 104 c 0,6,7
 572 144 572 144 584 160 c 128,-1,8
 596 176 596 176 644 176 c 1,9,-1
 644 272 l 2,10,11
 644 316 644 316 610 310 c 2,12,-1
 550 298 l 2,13,14
 500 288 500 288 500 238 c 2,15,-1
 500 62 l 2,16,17
 500 -10 500 -10 418 -10 c 0,18,19
 364 -10 364 -10 356 10 c 0,20,21
 352 20 352 20 352 40 c 2,22,-1
 352 574 l 1,23,24
 244 548 244 548 186 520 c 1,25,-1
 186 134 l 2,26,27
 186 52 186 52 174 30 c 0,28,29
 158 0 158 0 96 0 c 0,30,31
 40 0 40 0 40 60 c 2,32,-1
 40 652 l 2,33,34
 40 706 40 706 86 730 c 0,35,36
 144 762 144 762 376 806 c 1,37,38
 530 848 530 848 584 848 c 0,39,40
 606 848 606 848 626 824 c 0,41,42
 648 794 648 794 648 748 c 0,43,44
 648 642 648 642 620 620 c 1,45,46
 546 614 546 614 500 596 c 1,47,-1
 500 520 l 1,48,49
 602 558 602 558 690 558 c 0,50,51
 786 558 786 558 786 442 c 2,52,-1
 786 194 l 1,53,-1
 856 210 l 1,54,-1
 856 654 l 1,55,56
 798 640 798 640 755 640 c 0,57,58
 653 640 653 640 653 760 c 2,59,-1
 653 1302 l 2,60,61
 653 1392 653 1392 761 1438 c 0,62,63
 841 1470 841 1470 941 1470 c 0,64,65
 977 1470 977 1470 1007 1447 c 128,-1,66
 1037 1424 1037 1424 1037 1390 c 2,67,-1
 1037 1188 l 2,68,69
 1037 1100 1037 1100 1003 1058 c 0,70,71
 977 1028 977 1028 917 1004 c 0,72,73
 865 986 865 986 835 986 c 0,74,75
 795 986 795 986 779 1010 c 1,76,-1
 779 916 l 2,77,78
 779 890 779 890 787 882 c 128,-1,79
 795 874 795 874 821 874 c 0,80,81
 869 874 869 874 869 900 c 2,82,-1
 869 934 l 1,83,84
 903 964 903 964 963 964 c 0,85,86
 1037 964 1037 964 1037 854 c 2,87,-1
 1014 122 l 2,0,1
903 1206 m 1,88,-1
 903 1278 l 1,89,90
 889 1274 889 1274 779 1234 c 1,91,-1
 779 1174 l 1,92,93
 849 1186 849 1186 903 1206 c 1,88,-1
EndSplineSet
Ligature2: "'abvs' Above Base Substitutions lookup 6 subtable" tm_nga tm_iikaar
EndChar

StartChar: tm_c_iikaar
Encoding: 65563 -1 143
Width: 798
GlyphClass: 2
Flags: W
LayerCount: 2
Fore
SplineSet
786 520 m 1,0,-1
 784 308 l 1,1,2
 746 324 746 324 668 322 c 0,3,4
 596 320 596 320 544 306 c 1,5,6
 544 220 544 220 546 134 c 0,7,8
 544 42 544 42 528 20 c 1,9,10
 456 -22 456 -22 228 -22 c 0,11,12
 106 -22 106 -22 68 4 c 128,-1,13
 30 30 30 30 30 98 c 2,14,-1
 30 342 l 2,15,16
 30 386 30 386 55 423 c 128,-1,17
 80 460 80 460 116 462 c 1,18,-1
 116 702 l 1,19,20
 276 764 276 764 384 774 c 1,21,22
 320 822 320 822 320 922 c 2,23,-1
 320 1126 l 2,24,25
 320 1248 320 1248 350 1282 c 0,26,27
 404 1344 404 1344 598 1344 c 0,28,29
 708 1344 708 1344 708 1242 c 2,30,-1
 708 1064 l 2,31,32
 708 966 708 966 670 927 c 128,-1,33
 632 888 632 888 544 888 c 0,34,35
 494 888 494 888 468 908 c 1,36,37
 478 812 478 812 578 812 c 0,38,39
 600 812 600 812 639 821 c 128,-1,40
 678 830 678 830 704 830 c 1,41,42
 764 800 764 800 764 704 c 0,43,44
 764 668 764 668 742 598 c 1,45,46
 708 612 708 612 548 600 c 1,47,-1
 548 542 l 1,48,49
 668 558 668 558 678 558 c 0,50,51
 756 558 756 558 786 520 c 1,0,-1
574 1092 m 1,52,53
 582 1136 582 1136 574 1158 c 1,54,55
 554 1154 554 1154 482 1136 c 1,56,57
 482 1136 482 1136 482 1076 c 1,58,59
 502 1072 502 1072 534 1080 c 0,60,61
 554 1086 554 1086 574 1092 c 1,52,53
400 514 m 1,62,-1
 400 574 l 1,63,64
 348 560 348 560 246 534 c 1,65,-1
 246 486 l 1,66,67
 314 510 314 510 400 514 c 1,62,-1
402 232 m 1,68,-1
 402 296 l 1,69,70
 276 264 276 264 170 256 c 1,71,-1
 170 196 l 1,72,73
 258 190 258 190 402 232 c 1,68,-1
EndSplineSet
Ligature2: "'abvs' Above Base Substitutions lookup 6 subtable" tm_ca tm_iikaar
EndChar

StartChar: tm_j_iikaar
Encoding: 65564 -1 144
Width: 856
GlyphClass: 2
Flags: W
LayerCount: 2
Fore
SplineSet
978 984 m 2,0,1
 978 834 978 834 842 834 c 0,2,3
 808 834 808 834 762 844 c 1,4,5
 732 820 732 820 754 772 c 1,6,7
 794 772 794 772 805 751 c 128,-1,8
 816 730 816 730 816 664 c 2,9,-1
 816 242 l 2,10,11
 816 88 816 88 746 14 c 1,12,13
 796 -28 796 -28 796 -100 c 2,14,-1
 796 -272 l 2,15,16
 796 -422 796 -422 586 -428 c 1,17,18
 562 -406 562 -406 562 -314 c 0,19,20
 562 -236 562 -236 584 -178 c 1,21,22
 664 -156 664 -156 664 -96 c 0,23,24
 664 -54 664 -54 634 -42 c 1,25,26
 594 -38 594 -38 556 -62 c 1,27,28
 538 -108 538 -108 536 -214 c 0,29,30
 534 -306 534 -306 512 -334 c 0,31,32
 448 -414 448 -414 178 -414 c 0,33,34
 104 -414 104 -414 72 -388 c 128,-1,35
 40 -362 40 -362 40 -296 c 2,36,-1
 40 -74 l 2,37,38
 40 40 40 40 76 77 c 128,-1,39
 112 114 112 114 222 130 c 2,40,-1
 582 184 l 2,41,42
 656 196 656 196 656 266 c 2,43,-1
 656 458 l 2,44,45
 656 488 656 488 651 499 c 128,-1,46
 646 510 646 510 622 510 c 0,47,48
 570 510 570 510 570 460 c 2,49,-1
 570 280 l 2,50,51
 570 224 570 224 488 224 c 0,52,53
 426 224 426 224 426 268 c 2,54,-1
 426 564 l 2,55,56
 426 606 426 606 382 606 c 0,57,58
 352 606 352 606 278 582 c 0,59,60
 196 556 196 556 184 536 c 1,61,-1
 184 510 l 1,62,63
 234 534 234 534 298 534 c 0,64,65
 378 534 378 534 378 448 c 2,66,-1
 378 294 l 2,67,68
 378 224 378 224 344 188 c 0,69,70
 324 168 324 168 251 149 c 128,-1,71
 178 130 178 130 132 130 c 0,72,73
 52 130 52 130 52 234 c 2,74,-1
 52 488 l 2,75,76
 52 656 52 656 66 688 c 0,77,78
 124 824 124 824 464 824 c 0,79,80
 552 824 552 824 562 730 c 1,81,82
 588 736 588 736 634 750 c 1,83,84
 594 782 594 782 594 846 c 2,85,-1
 594 1128 l 2,86,87
 594 1212 594 1212 702 1254 c 0,88,89
 786 1288 786 1288 900 1288 c 0,90,91
 978 1288 978 1288 978 1176 c 2,92,-1
 978 984 l 2,0,1
848 1034 m 1,93,-1
 848 1094 l 1,94,95
 786 1094 786 1094 748 1066 c 1,96,-1
 748 1010 l 1,97,98
 790 1010 790 1010 848 1034 c 1,93,-1
250 334 m 2,99,-1
 250 364 l 2,100,101
 250 378 250 378 226 378 c 0,102,103
 194 378 194 378 194 360 c 2,104,-1
 194 334 l 2,105,106
 194 320 194 320 222 320 c 256,107,108
 250 320 250 320 250 334 c 2,99,-1
410 -122 m 1,109,-1
 410 -64 l 1,110,111
 334 -72 334 -72 206 -96 c 1,112,113
 172 -108 172 -108 172 -130 c 2,114,-1
 172 -164 l 1,115,116
 212 -166 212 -166 302 -150 c 0,117,118
 384 -134 384 -134 410 -122 c 1,109,-1
EndSplineSet
Ligature2: "'abvs' Above Base Substitutions lookup 6 subtable" tm_ja tm_iikaar
EndChar

StartChar: tm_ny_iikaar
Encoding: 65565 -1 145
Width: 1327
GlyphClass: 2
Flags: W
LayerCount: 2
Fore
SplineSet
1276 8 m 2,0,1
 1276 -118 1276 -118 1264 -148 c 0,2,3
 1248 -192 1248 -192 1172 -218 c 0,4,5
 1004 -274 1004 -274 664 -310 c 0,6,7
 374 -342 374 -342 160 -342 c 0,8,9
 86 -342 86 -342 58 -319 c 128,-1,10
 30 -296 30 -296 30 -242 c 2,11,-1
 30 514 l 2,12,13
 30 594 30 594 106 642 c 0,14,15
 160 678 160 678 232 686 c 1,16,17
 260 544 260 544 260 418 c 1,18,19
 174 402 174 402 174 322 c 2,20,-1
 174 -28 l 2,21,22
 174 -78 174 -78 200 -88 c 0,23,24
 220 -96 220 -96 316 -96 c 0,25,26
 752 -96 752 -96 1108 2 c 0,27,28
 1124 8 1124 8 1124 84 c 2,29,-1
 1124 348 l 1,30,-1
 968 300 l 1,31,-1
 968 80 l 2,32,33
 968 0 968 0 884 0 c 0,34,35
 808 0 808 0 808 42 c 2,36,-1
 808 594 l 1,37,38
 686 588 686 588 438 500 c 1,39,-1
 438 466 l 1,40,41
 582 510 582 510 648 510 c 0,42,43
 702 510 702 510 719 494 c 128,-1,44
 736 478 736 478 736 428 c 2,45,-1
 736 206 l 2,46,47
 736 102 736 102 712 69 c 128,-1,48
 688 36 688 36 574 16 c 0,49,50
 480 0 480 0 400 0 c 0,51,52
 284 0 284 0 284 114 c 2,53,-1
 284 600 l 2,54,55
 284 662 284 662 334 694 c 0,56,57
 408 741 408 741 638 794 c 1,58,-1
 636 794 l 1,59,-1
 640 794 l 1,60,61
 670 801 670 801 702 808 c 0,62,63
 717 811 717 811 731 814 c 1,64,65
 680 862 680 862 680 952 c 2,66,-1
 680 1156 l 2,67,68
 680 1278 680 1278 710 1312 c 0,69,70
 764 1374 764 1374 958 1374 c 0,71,72
 1068 1374 1068 1374 1068 1272 c 2,73,-1
 1068 1094 l 2,74,75
 1068 996 1068 996 1030 957 c 128,-1,76
 992 918 992 918 904 918 c 0,77,78
 854 918 854 918 828 938 c 1,79,80
 836 860 836 860 902 846 c 1,81,82
 1017 864 1017 864 1082 864 c 0,83,84
 1200 864 1200 864 1200 746 c 0,85,86
 1200 666 1200 666 1170 632 c 1,87,88
 1112 646 1112 646 978 612 c 1,89,-1
 978 536 l 1,90,91
 1034 550 1034 550 1090 562 c 0,92,93
 1158 578 1158 578 1214 578 c 0,94,95
 1276 578 1276 578 1276 468 c 2,96,-1
 1276 8 l 2,0,1
604 240 m 1,97,-1
 604 296 l 1,98,99
 542 284 542 284 436 254 c 1,100,-1
 436 206 l 1,101,102
 474 210 474 210 517 216 c 128,-1,103
 560 222 560 222 604 240 c 1,97,-1
934 1122 m 1,104,105
 942 1166 942 1166 934 1188 c 1,106,107
 914 1184 914 1184 842 1166 c 1,108,-1
 842 1106 l 1,109,110
 862 1102 862 1102 894 1110 c 2,111,-1
 934 1122 l 1,104,105
EndSplineSet
Ligature2: "'abvs' Above Base Substitutions lookup 6 subtable" tm_nya tm_iikaar
EndChar

StartChar: tm_tt_iikaar
Encoding: 65566 -1 146
Width: 888
GlyphClass: 2
Flags: W
LayerCount: 2
Fore
SplineSet
858 80 m 1,0,1
 480 -4 480 -4 192 -4 c 0,2,3
 40 -4 40 -4 40 66 c 2,4,-1
 40 714 l 2,5,6
 40 772 40 772 162 772 c 0,7,8
 206 772 206 772 206 722 c 2,9,-1
 206 216 l 1,10,11
 268 210 268 210 420 222 c 1,12,13
 372 252 372 252 358 272 c 0,14,15
 336 298 336 298 336 342 c 2,16,-1
 336 628 l 2,17,18
 336 674 336 674 375 711 c 128,-1,19
 414 748 414 748 507 777 c 128,-1,20
 600 806 600 806 672 806 c 0,21,22
 714 806 714 806 745 786 c 128,-1,23
 776 766 776 766 776 734 c 2,24,-1
 776 488 l 2,25,26
 776 416 776 416 702 374 c 0,27,28
 640 340 640 340 554 340 c 0,29,30
 510 340 510 340 486 354 c 1,31,32
 524 280 524 280 614 280 c 0,33,34
 698 280 698 280 852 330 c 1,35,36
 874 274 874 274 874 194 c 0,37,38
 874 130 874 130 858 80 c 1,0,1
612 518 m 1,39,-1
 612 562 l 1,40,41
 548 552 548 552 492 518 c 1,42,-1
 492 476 l 1,43,44
 562 466 562 466 612 518 c 1,39,-1
EndSplineSet
Ligature2: "'abvs' Above Base Substitutions lookup 5 subtable" tm_tta tm_iikaar
EndChar

StartChar: tm_nn_iikaar
Encoding: 65567 -1 147
Width: 1824
GlyphClass: 2
Flags: W
LayerCount: 2
Fore
SplineSet
1816 1072 m 2,0,1
 1816 878 1816 878 1662 878 c 0,2,3
 1628 878 1628 878 1584 886 c 1,4,5
 1582 874 1582 874 1582 864 c 0,6,7
 1582 796 1582 796 1644 796 c 0,8,9
 1670 796 1670 796 1704 806 c 0,10,11
 1754 822 1754 822 1756 822 c 0,12,13
 1778 814 1778 814 1794 784 c 128,-1,14
 1810 754 1810 754 1810 728 c 2,15,-1
 1810 544 l 1,16,-1
 1666 514 l 1,17,-1
 1666 82 l 2,18,19
 1666 -24 1666 -24 1584 -24 c 0,20,21
 1504 -24 1504 -24 1504 50 c 2,22,-1
 1504 486 l 1,23,-1
 1426 464 l 1,24,-1
 1426 190 l 2,25,26
 1426 68 1426 68 1396 38 c 0,27,28
 1348 -10 1348 -10 1138 -10 c 0,29,30
 1044 -10 1044 -10 1024 4 c 128,-1,31
 1004 18 1004 18 1004 102 c 2,32,-1
 1004 486 l 1,33,-1
 960 474 l 1,34,-1
 960 124 l 2,35,36
 960 52 960 52 920 26 c 0,37,38
 860 -14 860 -14 638 -14 c 0,39,40
 572 -14 572 -14 552 12 c 0,41,42
 534 32 534 32 534 94 c 2,43,-1
 534 560 l 1,44,45
 496 562 496 562 377 537 c 128,-1,46
 258 512 258 512 192 490 c 1,47,-1
 192 448 l 1,48,49
 340 500 340 500 406 500 c 0,50,51
 460 500 460 500 478 483 c 128,-1,52
 496 466 496 466 496 402 c 2,53,-1
 496 176 l 2,54,55
 496 92 496 92 482 76 c 0,56,57
 456 48 456 48 374 26 c 0,58,59
 280 0 280 0 160 0 c 0,60,61
 30 0 30 0 30 122 c 2,62,-1
 30 620 l 2,63,64
 30 680 30 680 264 746 c 0,65,66
 510 818 510 818 778 818 c 0,67,68
 896 818 896 818 928 798 c 0,69,70
 942 788 942 788 954 736 c 1,71,72
 1026 758 1026 758 1098 780 c 0,73,74
 1212 812 1212 812 1278 812 c 0,75,76
 1348 812 1348 812 1372 802 c 0,77,78
 1414 786 1414 786 1412 730 c 1,79,80
 1436 740 1436 740 1496 754 c 1,81,82
 1416 796 1416 796 1416 906 c 2,83,-1
 1416 1134 l 2,84,85
 1416 1232 1416 1232 1447 1266 c 128,-1,86
 1478 1300 1478 1300 1564 1325 c 128,-1,87
 1650 1350 1650 1350 1722 1350 c 0,88,89
 1816 1350 1816 1350 1816 1250 c 2,90,-1
 1816 1072 l 2,0,1
1676 1082 m 1,91,-1
 1676 1146 l 1,92,93
 1654 1142 1654 1142 1580 1124 c 1,94,-1
 1580 1066 l 1,95,96
 1616 1060 1616 1060 1676 1082 c 1,91,-1
1296 232 m 1,97,-1
 1296 524 l 1,98,99
 1196 524 1196 524 1134 510 c 1,100,-1
 1134 208 l 1,101,102
 1224 208 1224 208 1296 232 c 1,97,-1
832 226 m 1,103,-1
 832 532 l 1,104,105
 770 538 770 538 654 506 c 1,106,-1
 654 200 l 1,107,108
 734 196 734 196 832 226 c 1,103,-1
376 240 m 1,109,-1
 376 298 l 1,110,111
 280 276 280 276 186 248 c 1,112,-1
 186 202 l 1,113,114
 216 198 216 198 286 212 c 128,-1,115
 356 226 356 226 376 240 c 1,109,-1
EndSplineSet
Ligature2: "'abvs' Above Base Substitutions lookup 6 subtable" tm_nna tm_iikaar
EndChar

StartChar: tm_t_iikaar
Encoding: 65568 -1 148
Width: 876
GlyphClass: 2
Flags: W
LayerCount: 2
Fore
SplineSet
846 -6 m 2,0,1
 846 -166 846 -166 802 -210 c 0,2,3
 768 -244 768 -244 552 -292 c 0,4,5
 308 -346 308 -346 -20 -380 c 1,6,7
 -76 -342 -76 -342 -76 -230 c 0,8,9
 -76 -184 -76 -184 -60 -148 c 1,10,11
 46 -154 46 -154 302 -104 c 128,-1,12
 558 -54 558 -54 692 -2 c 1,13,-1
 692 330 l 1,14,-1
 528 314 l 1,15,-1
 528 152 l 2,16,17
 528 48 528 48 493 23 c 128,-1,18
 458 -2 458 -2 362 -22 c 0,19,20
 256 -44 256 -44 146 -44 c 0,21,22
 30 -44 30 -44 30 64 c 2,23,-1
 30 350 l 2,24,25
 30 422 30 422 110 458 c 1,26,27
 100 484 100 484 94 566 c 0,28,29
 88 650 88 650 94 696 c 1,30,31
 186 732 186 732 384 794 c 1,32,33
 312 836 312 836 312 950 c 2,34,-1
 312 1212 l 2,35,36
 312 1294 312 1294 362 1332 c 0,37,38
 406 1364 406 1364 494 1386 c 0,39,40
 568 1404 568 1404 622 1404 c 0,41,42
 654 1404 654 1404 675 1375 c 128,-1,43
 696 1346 696 1346 696 1308 c 2,44,-1
 696 1096 l 2,45,46
 696 924 696 924 526 924 c 0,47,48
 484 924 484 924 464 952 c 1,49,-1
 464 894 l 2,50,51
 464 864 464 864 494 846 c 128,-1,52
 524 828 524 828 558 828 c 0,53,54
 572 828 572 828 686 844 c 1,55,56
 744 806 744 806 744 726 c 0,57,58
 744 672 744 672 720 618 c 1,59,60
 676 626 676 626 528 600 c 1,61,-1
 528 544 l 1,62,63
 662 570 662 570 740 570 c 0,64,65
 846 570 846 570 846 414 c 2,66,-1
 846 -6 l 2,0,1
572 1140 m 1,67,-1
 572 1200 l 1,68,69
 516 1192 516 1192 464 1164 c 1,70,-1
 464 1104 l 1,71,72
 530 1114 530 1114 572 1140 c 1,67,-1
390 524 m 1,73,-1
 390 578 l 1,74,-1
 234 532 l 1,75,-1
 234 486 l 1,76,77
 310 514 310 514 390 524 c 1,73,-1
390 236 m 1,78,-1
 390 294 l 1,79,-1
 156 254 l 1,80,-1
 154 200 l 1,81,82
 258 198 258 198 390 236 c 1,78,-1
EndSplineSet
Ligature2: "'abvs' Above Base Substitutions lookup 6 subtable" tm_ta tm_iikaar
EndChar

StartChar: tm_n_iikaar
Encoding: 65569 -1 149
Width: 826
GlyphClass: 2
Flags: W
LayerCount: 2
Fore
SplineSet
796 -20 m 2,0,1
 796 -218 796 -218 738 -260 c 0,2,3
 654 -320 654 -320 418 -356 c 0,4,5
 240 -384 240 -384 112 -384 c 0,6,7
 56 -384 56 -384 24 -336 c 128,-1,8
 -8 -288 -8 -288 -8 -222 c 0,9,10
 -8 -164 -8 -164 14 -138 c 1,11,12
 124 -146 124 -146 322 -114 c 0,13,14
 530 -78 530 -78 648 -28 c 1,15,-1
 648 284 l 1,16,17
 634 298 634 298 608 298 c 0,18,19
 568 298 568 298 502 268 c 1,20,-1
 502 44 l 2,21,22
 502 18 502 18 477 -4 c 128,-1,23
 452 -26 452 -26 410 -26 c 0,24,25
 350 -26 350 -26 350 40 c 2,26,-1
 350 560 l 1,27,28
 254 540 254 540 190 498 c 1,29,-1
 190 40 l 2,30,31
 190 -16 190 -16 100 -16 c 0,32,33
 66 -16 66 -16 53 -4 c 128,-1,34
 40 8 40 8 40 48 c 2,35,-1
 40 620 l 2,36,37
 40 686 40 686 58 700 c 0,38,39
 94 730 94 730 216 764 c 0,40,41
 324 792 324 792 378 796 c 1,42,43
 310 824 310 824 310 912 c 2,44,-1
 310 1190 l 2,45,46
 310 1252 310 1252 349 1283 c 128,-1,47
 388 1314 388 1314 474 1338 c 0,48,49
 552 1358 552 1358 612 1358 c 0,50,51
 696 1358 696 1358 696 1266 c 2,52,-1
 696 1040 l 2,53,54
 696 900 696 900 556 900 c 0,55,56
 504 900 504 900 480 910 c 1,57,58
 466 830 466 830 562 830 c 0,59,60
 570 830 570 830 600 835 c 128,-1,61
 630 840 630 840 648 840 c 0,62,63
 668 840 668 840 690 810 c 128,-1,64
 712 780 712 780 712 734 c 0,65,66
 712 656 712 656 686 614 c 1,67,68
 632 610 632 610 502 584 c 1,69,-1
 502 510 l 1,70,71
 600 548 600 548 686 548 c 0,72,73
 796 548 796 548 796 396 c 2,74,-1
 796 -20 l 2,0,1
566 1104 m 1,75,-1
 566 1160 l 1,76,77
 540 1162 540 1162 468 1138 c 1,78,-1
 468 1076 l 1,79,80
 534 1090 534 1090 566 1104 c 1,75,-1
EndSplineSet
Ligature2: "'abvs' Above Base Substitutions lookup 6 subtable" tm_na tm_iikaar
EndChar

StartChar: tm_nnn_iikaar
Encoding: 65570 -1 150
Width: 1346
GlyphClass: 2
Flags: W
LayerCount: 2
Fore
SplineSet
1394 990 m 2,0,1
 1394 850 1394 850 1238 850 c 0,2,3
 1204 850 1204 850 1160 854 c 1,4,-1
 1160 810 l 2,5,6
 1160 768 1160 768 1240 768 c 0,7,8
 1270 768 1270 768 1292 778 c 1,9,10
 1332 738 1332 738 1332 640 c 0,11,12
 1332 518 1332 518 1306 504 c 1,13,-1
 1192 486 l 1,14,-1
 1192 12 l 2,15,16
 1192 -52 1192 -52 1104 -52 c 0,17,18
 1034 -52 1034 -52 1034 -12 c 2,19,-1
 1034 462 l 1,20,-1
 952 448 l 1,21,-1
 952 110 l 2,22,23
 952 32 952 32 930 6 c 0,24,25
 872 -60 872 -60 638 -60 c 0,26,27
 526 -60 526 -60 526 70 c 2,28,-1
 526 544 l 1,29,30
 324 520 324 520 200 478 c 1,31,-1
 200 434 l 1,32,33
 320 484 320 484 414 484 c 0,34,35
 472 484 472 484 488 452 c 0,36,37
 496 432 496 432 496 368 c 2,38,-1
 496 162 l 2,39,40
 496 64 496 64 466 32 c 128,-1,41
 436 0 436 0 328 -20 c 0,42,43
 242 -36 242 -36 170 -36 c 0,44,45
 66 -36 66 -36 44 38 c 1,46,47
 38 124 38 124 40 326 c 0,48,49
 42 536 42 536 52 636 c 1,50,51
 136 704 136 704 336 746 c 128,-1,52
 536 788 536 788 766 788 c 0,53,54
 844 788 844 788 868 780 c 0,55,56
 912 768 912 768 934 716 c 1,57,-1
 1060 742 l 1,58,59
 1022 770 1022 770 1014 788 c 0,60,61
 996 820 996 820 996 896 c 2,62,-1
 996 1152 l 2,63,64
 996 1226 996 1226 1104 1270 c 0,65,66
 1196 1310 1196 1310 1314 1310 c 0,67,68
 1394 1310 1394 1310 1394 1190 c 2,69,-1
 1394 990 l 2,0,1
1256 1052 m 1,70,-1
 1256 1112 l 1,71,72
 1204 1106 1204 1106 1160 1082 c 1,73,-1
 1160 1028 l 1,74,75
 1210 1030 1210 1030 1256 1052 c 1,70,-1
802 198 m 1,76,77
 812 246 812 246 814 358 c 0,78,79
 814 476 814 476 802 512 c 1,80,-1
 682 498 l 1,81,82
 662 438 662 438 662 292 c 0,83,84
 662 202 662 202 674 172 c 1,85,-1
 802 198 l 1,76,77
370 212 m 1,86,-1
 370 268 l 1,87,88
 310 258 310 258 200 228 c 1,89,-1
 200 172 l 1,90,91
 314 192 314 192 370 212 c 1,86,-1
EndSplineSet
Ligature2: "'abvs' Above Base Substitutions lookup 6 subtable" tm_nnna tm_iikaar
EndChar

StartChar: tm_p_iikaar
Encoding: 65571 -1 151
Width: 698
GlyphClass: 2
Flags: W
LayerCount: 2
Fore
SplineSet
658 222 m 2,0,1
 658 94 658 94 640 72 c 0,2,3
 604 26 604 26 479 -2 c 128,-1,4
 354 -30 354 -30 208 -30 c 0,5,6
 86 -30 86 -30 40 0 c 1,7,-1
 40 728 l 1,8,9
 68 758 68 758 144 758 c 0,10,11
 184 758 184 758 196 741 c 128,-1,12
 208 724 208 724 208 678 c 2,13,-1
 208 248 l 1,14,15
 378 244 378 244 496 300 c 1,16,-1
 496 452 l 1,17,18
 426 432 426 432 376 432 c 0,19,20
 274 432 274 432 274 552 c 2,21,-1
 274 1094 l 2,22,23
 274 1184 274 1184 382 1230 c 0,24,25
 462 1262 462 1262 562 1262 c 0,26,27
 598 1262 598 1262 628 1239 c 128,-1,28
 658 1216 658 1216 658 1182 c 2,29,-1
 658 980 l 2,30,31
 658 892 658 892 624 850 c 0,32,33
 598 820 598 820 538 796 c 0,34,35
 486 778 486 778 456 778 c 0,36,37
 416 778 416 778 400 802 c 1,38,-1
 400 708 l 2,39,40
 400 682 400 682 408 674 c 128,-1,41
 416 666 416 666 442 666 c 0,42,43
 490 666 490 666 490 692 c 2,44,-1
 490 726 l 1,45,46
 524 756 524 756 584 756 c 0,47,48
 658 756 658 756 658 646 c 2,49,-1
 658 222 l 2,0,1
524 998 m 1,50,-1
 524 1070 l 1,51,52
 510 1066 510 1066 400 1026 c 1,53,-1
 400 966 l 1,54,55
 470 978 470 978 524 998 c 1,50,-1
EndSplineSet
Ligature2: "'abvs' Above Base Substitutions lookup 6 subtable" tm_pa tm_iikaar
EndChar

StartChar: tm_m_iikaar
Encoding: 65572 -1 152
Width: 776
GlyphClass: 2
Flags: W
LayerCount: 2
Fore
SplineSet
750 1032 m 2,0,1
 750 940 750 940 718 898 c 128,-1,2
 686 856 686 856 600 856 c 0,3,4
 546 856 546 856 528 868 c 1,5,6
 524 778 524 778 642 778 c 0,7,8
 736 778 736 778 736 688 c 2,9,-1
 736 208 l 2,10,11
 736 158 736 158 706 126 c 0,12,13
 640 56 640 56 450 18 c 0,14,15
 308 -10 308 -10 174 -10 c 256,16,17
 40 -10 40 -10 40 100 c 2,18,-1
 40 726 l 1,19,20
 82 768 82 768 130 768 c 0,21,22
 188 768 188 768 188 708 c 2,23,-1
 188 234 l 1,24,-1
 248 256 l 1,25,-1
 248 610 l 2,26,27
 248 656 248 656 320 698 c 0,28,29
 376 730 376 730 444 748 c 1,30,31
 370 788 370 788 370 880 c 2,32,-1
 370 1172 l 2,33,34
 370 1304 370 1304 640 1304 c 0,35,36
 750 1304 750 1304 750 1174 c 2,37,-1
 750 1032 l 2,0,1
622 1060 m 1,38,-1
 622 1116 l 1,39,40
 614 1116 614 1116 526 1096 c 1,41,-1
 526 1034 l 1,42,43
 592 1040 592 1040 622 1060 c 1,38,-1
598 348 m 1,44,-1
 598 524 l 1,45,46
 498 510 498 510 388 458 c 1,47,-1
 388 286 l 1,48,49
 510 312 510 312 598 348 c 1,44,-1
EndSplineSet
Ligature2: "'abvs' Above Base Substitutions lookup 6 subtable" tm_ma tm_iikaar
EndChar

StartChar: tm_y_iikaar
Encoding: 65573 -1 153
Width: 978
GlyphClass: 2
Flags: W
LayerCount: 2
Fore
SplineSet
962 928 m 2,0,1
 962 858 962 858 886 816 c 0,2,3
 824 780 824 780 752 780 c 0,4,5
 722 780 722 780 704 800 c 1,6,-1
 704 646 l 1,7,-1
 776 660 l 1,8,-1
 776 696 l 2,9,10
 776 758 776 758 866 758 c 0,11,12
 926 758 926 758 938 740 c 1,13,-1
 938 144 l 2,14,15
 938 62 938 62 880 28 c 0,16,17
 756 -44 756 -44 528 -44 c 0,18,19
 386 -44 386 -44 345 -29 c 128,-1,20
 304 -14 304 -14 304 32 c 2,21,-1
 304 106 l 1,22,23
 278 44 278 44 249 23 c 128,-1,24
 220 2 220 2 156 2 c 0,25,26
 40 2 40 2 40 142 c 2,27,-1
 40 768 l 2,28,29
 40 838 40 838 140 838 c 0,30,31
 180 838 180 838 204 814 c 1,32,-1
 204 324 l 2,33,34
 204 274 204 274 250 274 c 0,35,36
 304 274 304 274 304 332 c 2,37,-1
 304 718 l 1,38,39
 332 756 332 756 408 756 c 0,40,41
 448 756 448 756 458 743 c 128,-1,42
 468 730 468 730 468 692 c 2,43,-1
 468 228 l 1,44,45
 500 224 500 224 538 224 c 0,46,47
 690 224 690 224 770 268 c 1,48,-1
 770 460 l 1,49,50
 686 432 686 432 656 432 c 0,51,52
 564 432 564 432 564 572 c 2,53,-1
 564 1076 l 2,54,55
 564 1146 564 1146 610 1184 c 0,56,57
 640 1210 640 1210 740 1236 c 0,58,59
 828 1258 828 1258 860 1258 c 0,60,61
 902 1258 902 1258 932 1231 c 128,-1,62
 962 1204 962 1204 962 1164 c 2,63,-1
 962 928 l 2,0,1
832 998 m 1,64,-1
 832 1064 l 1,65,-1
 708 1020 l 1,66,-1
 708 964 l 1,67,68
 784 972 784 972 832 998 c 1,64,-1
EndSplineSet
Ligature2: "'abvs' Above Base Substitutions lookup 6 subtable" tm_ya tm_iikaar
EndChar

StartChar: tm_r_iikaar
Encoding: 65574 -1 154
Width: 644
GlyphClass: 2
Flags: W
LayerCount: 2
Fore
SplineSet
630 718 m 0,0,1
 630 630 630 630 616 606 c 1,2,3
 570 618 570 618 508 598 c 1,4,-1
 513 -176 l 1,5,6
 342 -232 342 -232 40 -286 c 1,7,8
 12 -274 12 -274 -10 -202 c 0,9,10
 -28 -140 -28 -140 -28 -88 c 0,11,12
 -28 -74 -28 -74 -26 -66 c 1,13,14
 134 -38 134 -38 156 -34 c 0,15,16
 238 -18 238 -18 348 16 c 1,17,-1
 348 569 l 1,18,19
 281 555 281 555 200 528 c 1,20,-1
 200 114 l 2,21,22
 200 52 200 52 183 26 c 128,-1,23
 166 0 166 0 106 0 c 0,24,25
 70 0 70 0 40 26 c 1,26,-1
 40 724 l 1,27,28
 122 764 122 764 286 808 c 0,29,30
 292 809 292 809 298 811 c 1,31,32
 234 844 234 844 234 916 c 2,33,-1
 234 1236 l 2,34,35
 234 1304 234 1304 325 1348 c 128,-1,36
 416 1392 416 1392 558 1392 c 0,37,38
 622 1392 622 1392 622 1330 c 2,39,-1
 622 1044 l 2,40,41
 622 918 622 918 458 918 c 0,42,43
 414 918 414 918 398 930 c 1,44,45
 396 918 396 918 396 908 c 0,46,47
 396 847 396 847 448 844 c 1,48,49
 508 854 508 854 550 854 c 0,50,51
 582 854 582 854 600 829 c 1,52,53
 630 800 630 800 630 718 c 0,0,1
498 1130 m 1,54,-1
 498 1188 l 1,55,56
 476 1186 476 1186 398 1168 c 1,57,-1
 398 1102 l 1,58,59
 470 1110 470 1110 498 1130 c 1,54,-1
EndSplineSet
Ligature2: "'abvs' Above Base Substitutions lookup 5 subtable" tm_ra tm_iikaar
EndChar

StartChar: tm_rr_iikaar
Encoding: 65575 -1 155
Width: 870
GlyphClass: 2
Flags: W
LayerCount: 2
Fore
SplineSet
860 1036 m 2,0,1
 860 880 860 880 692 880 c 0,2,3
 640 880 640 880 622 904 c 1,4,-1
 622 838 l 2,5,6
 622 814 622 814 654 806 c 0,7,8
 670 804 670 804 732 800 c 0,9,10
 776 798 776 798 803 764 c 128,-1,11
 830 730 830 730 830 682 c 2,12,-1
 830 -66 l 2,13,14
 830 -142 830 -142 800 -166 c 0,15,16
 756 -198 756 -198 550 -254 c 0,17,18
 328 -314 328 -314 42 -368 c 1,19,20
 -32 -312 -32 -312 -32 -190 c 0,21,22
 -32 -164 -32 -164 -26 -142 c 1,23,24
 286 -100 286 -100 478 -36 c 0,25,26
 552 -12 552 -12 628 10 c 1,27,28
 674 30 674 30 674 74 c 2,29,-1
 674 514 l 2,30,31
 674 542 674 542 636 542 c 0,32,33
 594 542 594 542 534 518 c 128,-1,34
 474 494 474 494 446 462 c 1,35,-1
 446 76 l 2,36,37
 446 -6 446 -6 336 -6 c 0,38,39
 306 -6 306 -6 306 38 c 2,40,-1
 306 528 l 2,41,42
 306 542 306 542 278 542 c 256,43,44
 250 542 250 542 217 528 c 128,-1,45
 184 514 184 514 184 500 c 2,46,-1
 184 86 l 2,47,48
 184 26 184 26 163 10 c 128,-1,49
 142 -6 142 -6 94 -6 c 0,50,51
 52 -6 52 -6 42 24 c 0,52,53
 40 32 40 32 40 94 c 2,54,-1
 40 656 l 2,55,56
 40 720 40 720 68 738 c 0,57,58
 108 764 108 764 184 788 c 0,59,60
 272 814 272 814 338 814 c 0,61,62
 376 814 376 814 411 790 c 128,-1,63
 446 766 446 766 446 736 c 2,64,-1
 446 712 l 1,65,66
 466 738 466 738 544 758 c 1,67,68
 470 808 470 808 470 892 c 2,69,-1
 470 1184 l 2,70,71
 470 1272 470 1272 536 1306 c 128,-1,72
 602 1340 602 1340 754 1340 c 0,73,74
 860 1340 860 1340 860 1226 c 2,75,-1
 860 1036 l 2,0,1
728 1092 m 1,76,-1
 728 1146 l 1,77,78
 674 1146 674 1146 630 1124 c 1,79,-1
 630 1070 l 1,80,81
 678 1056 678 1056 728 1092 c 1,76,-1
EndSplineSet
Ligature2: "'abvs' Above Base Substitutions lookup 6 subtable" tm_rra tm_iikaar
EndChar

StartChar: tm_l_iikaar
Encoding: 65576 -1 156
Width: 952
GlyphClass: 2
Flags: W
LayerCount: 2
Fore
SplineSet
950 1052 m 2,0,1
 950 944 950 944 898 904 c 0,2,3
 834 854 834 854 750 854 c 0,4,5
 716 854 716 854 694 878 c 1,6,-1
 694 786 l 1,7,8
 706 782 706 782 722 782 c 256,9,10
 738 782 738 782 776 791 c 128,-1,11
 814 800 814 800 838 800 c 0,12,13
 884 800 884 800 900 766 c 0,14,15
 912 740 912 740 912 660 c 2,16,-1
 912 186 l 2,17,18
 912 52 912 52 862 18 c 0,19,20
 796 -26 796 -26 604 -26 c 0,21,22
 546 -26 546 -26 527 -3 c 128,-1,23
 508 20 508 20 508 82 c 2,24,-1
 508 608 l 1,25,26
 430 610 430 610 318 572 c 0,27,28
 252 548 252 548 188 524 c 1,29,-1
 188 480 l 1,30,31
 294 524 294 524 358 524 c 0,32,33
 462 524 462 524 462 362 c 2,34,-1
 462 232 l 2,35,36
 462 108 462 108 414 68 c 0,37,38
 378 38 378 38 284 16 c 0,39,40
 202 -2 202 -2 128 -2 c 0,41,42
 40 -2 40 -2 40 136 c 2,43,-1
 40 564 l 2,44,45
 40 722 40 722 276 786 c 0,46,47
 432 828 432 828 554 824 c 1,48,-1
 554 612 l 2,49,50
 554 556 554 556 578 534 c 0,51,52
 588 524 588 524 646 496 c 1,53,-1
 646 260 l 2,54,55
 646 230 646 230 696 230 c 0,56,57
 718 230 718 230 744 243 c 128,-1,58
 770 256 770 256 770 276 c 2,59,-1
 770 484 l 2,60,61
 770 520 770 520 724 520 c 0,62,63
 716 520 716 520 692 517 c 128,-1,64
 668 514 668 514 658 514 c 0,65,66
 568 514 568 514 568 644 c 2,67,-1
 568 1122 l 2,68,69
 568 1192 568 1192 591 1226 c 128,-1,70
 614 1260 614 1260 676 1278 c 0,71,72
 812 1318 812 1318 868 1318 c 0,73,74
 900 1318 900 1318 925 1298 c 128,-1,75
 950 1278 950 1278 950 1246 c 2,76,-1
 950 1052 l 2,0,1
834 1064 m 1,77,-1
 834 1130 l 1,78,79
 736 1108 736 1108 706 1082 c 1,80,-1
 706 1032 l 1,81,82
 748 1028 748 1028 834 1064 c 1,77,-1
334 246 m 1,83,-1
 334 312 l 1,84,85
 326 310 326 310 190 268 c 1,86,-1
 190 220 l 1,87,88
 206 210 206 210 250 218 c 0,89,90
 298 226 298 226 334 246 c 1,83,-1
EndSplineSet
Ligature2: "'abvs' Above Base Substitutions lookup 5 subtable" tm_la tm_iikaar
EndChar

StartChar: tm_ll_iikaar
Encoding: 65577 -1 157
Width: 1088
GlyphClass: 2
Flags: W
LayerCount: 2
Fore
SplineSet
1104 998 m 2,0,1
 1104 928 1104 928 1048 888 c 0,2,3
 1004 858 1004 858 950 858 c 0,4,5
 906 858 906 858 880 880 c 1,6,-1
 880 820 l 1,7,8
 904 792 904 792 938 786 c 0,9,10
 950 784 950 784 1012 784 c 128,-1,11
 1074 784 1074 784 1074 658 c 0,12,13
 1074 574 1074 574 1050 530 c 1,14,15
 1024 532 1024 532 928 520 c 1,16,-1
 928 82 l 2,17,18
 928 -10 928 -10 842 -10 c 0,19,20
 774 -10 774 -10 774 70 c 2,21,-1
 774 494 l 1,22,-1
 668 456 l 1,23,-1
 668 48 l 2,24,25
 668 -8 668 -8 572 -8 c 0,26,27
 534 -8 534 -8 525 2 c 128,-1,28
 516 12 516 12 516 48 c 2,29,-1
 516 600 l 1,30,31
 492 602 492 602 468 602 c 0,32,33
 330 602 330 602 168 534 c 1,34,-1
 168 480 l 1,35,36
 312 532 312 532 384 532 c 0,37,38
 448 532 448 532 448 406 c 2,39,-1
 448 136 l 2,40,41
 448 60 448 60 402 28 c 0,42,43
 374 10 374 10 288 -6 c 0,44,45
 210 -20 210 -20 156 -20 c 0,46,47
 78 -20 78 -20 54 7 c 128,-1,48
 30 34 30 34 30 124 c 2,49,-1
 30 594 l 2,50,51
 30 684 30 684 84 714 c 0,52,53
 298 830 298 830 552 830 c 0,54,55
 666 830 666 830 656 718 c 1,56,57
 714 750 714 750 784 758 c 1,58,59
 716 800 716 800 716 862 c 2,60,-1
 716 1126 l 2,61,62
 716 1220 716 1220 764 1260 c 0,63,64
 794 1286 794 1286 892 1310 c 0,65,66
 980 1332 980 1332 1032 1332 c 0,67,68
 1062 1332 1062 1332 1083 1303 c 128,-1,69
 1104 1274 1104 1274 1104 1234 c 2,70,-1
 1104 998 l 2,0,1
974 1072 m 1,71,-1
 974 1130 l 1,72,73
 916 1124 916 1124 878 1098 c 1,74,-1
 878 1048 l 1,75,76
 918 1046 918 1046 974 1072 c 1,71,-1
330 250 m 1,77,-1
 330 294 l 1,78,79
 250 290 250 290 158 252 c 1,80,-1
 158 198 l 1,81,82
 248 204 248 204 330 250 c 1,77,-1
EndSplineSet
Ligature2: "'abvs' Above Base Substitutions lookup 6 subtable" tm_lla tm_iikaar
EndChar

StartChar: tm_lll_iikaar
Encoding: 65578 -1 158
Width: 796
GlyphClass: 2
Flags: W
LayerCount: 2
Fore
SplineSet
784 1084 m 2,0,1
 784 966 784 966 732 918 c 0,2,3
 686 878 686 878 554 854 c 1,4,-1
 554 812 l 2,5,6
 554 772 554 772 602 772 c 0,7,8
 616 772 616 772 635 777 c 128,-1,9
 654 782 654 782 660 782 c 0,10,11
 756 782 756 782 756 666 c 2,12,-1
 756 374 l 2,13,14
 756 144 756 144 696 108 c 0,15,16
 544 18 544 18 406 14 c 1,17,-1
 406 -62 l 1,18,19
 580 -32 580 -32 696 26 c 1,20,21
 732 -32 732 -32 732 -88 c 0,22,23
 732 -172 732 -172 706 -208 c 1,24,25
 582 -246 582 -246 386 -284 c 0,26,27
 162 -328 162 -328 60 -326 c 1,28,29
 16 -270 16 -270 16 -174 c 0,30,31
 16 -126 16 -126 30 -102 c 1,32,33
 122 -112 122 -112 266 -80 c 1,34,-1
 266 4 l 1,35,36
 244 -10 244 -10 160 -10 c 0,37,38
 104 -10 104 -10 72 39 c 128,-1,39
 40 88 40 88 40 162 c 2,40,-1
 40 604 l 2,41,42
 40 722 40 722 61 755 c 128,-1,43
 82 788 82 788 162 788 c 0,44,45
 216 788 216 788 216 748 c 0,46,47
 216 742 216 742 206 705 c 128,-1,48
 196 668 196 668 196 628 c 2,49,-1
 196 238 l 1,50,-1
 266 238 l 1,51,-1
 266 580 l 2,52,53
 266 650 266 650 303 684 c 128,-1,54
 340 718 340 718 450 744 c 1,55,56
 404 776 404 776 404 900 c 2,57,-1
 404 1122 l 2,58,59
 404 1232 404 1232 448 1264 c 1,60,61
 484 1296 484 1296 576 1322 c 0,62,63
 656 1344 656 1344 708 1344 c 0,64,65
 784 1344 784 1344 784 1226 c 2,66,-1
 784 1084 l 2,0,1
638 1084 m 1,67,-1
 638 1134 l 1,68,69
 618 1136 618 1136 550 1108 c 1,70,-1
 550 1052 l 1,71,72
 610 1056 610 1056 638 1084 c 1,67,-1
608 346 m 1,73,-1
 608 526 l 1,74,75
 538 520 538 520 406 456 c 1,76,-1
 406 276 l 1,77,78
 478 304 478 304 608 346 c 1,73,-1
EndSplineSet
Ligature2: "'abvs' Above Base Substitutions lookup 6 subtable" tm_llla tm_iikaar
EndChar

StartChar: tm_v_iikaar
Encoding: 65579 -1 159
Width: 1012
GlyphClass: 2
Flags: W
LayerCount: 2
Fore
SplineSet
1016 1040 m 2,0,1
 1016 946 1016 946 970 894 c 0,2,3
 946 866 946 866 876 846 c 0,4,5
 824 832 824 832 798 832 c 0,6,7
 770 832 770 832 748 856 c 1,8,-1
 748 726 l 2,9,10
 748 714 748 714 764 714 c 0,11,12
 778 714 778 714 796 723 c 128,-1,13
 814 732 814 732 814 738 c 2,14,-1
 814 772 l 2,15,16
 814 790 814 790 845 806 c 128,-1,17
 876 822 876 822 920 822 c 0,18,19
 958 822 958 822 968 798 c 0,20,21
 972 784 972 784 972 714 c 2,22,-1
 972 88 l 1,23,24
 928 12 928 12 552 -38 c 1,25,26
 502 16 502 16 512 310 c 1,27,28
 564 314 564 314 564 354 c 2,29,-1
 564 640 l 1,30,31
 470 642 470 642 346 612 c 0,32,33
 270 592 270 592 196 572 c 1,34,-1
 196 524 l 1,35,36
 342 564 342 564 396 564 c 0,37,38
 438 564 438 564 452 502 c 0,39,40
 462 456 462 456 462 336 c 0,41,42
 462 100 462 100 422 56 c 0,43,44
 396 28 396 28 326 4 c 0,45,46
 250 -20 250 -20 168 -20 c 0,47,48
 40 -20 40 -20 40 204 c 2,49,-1
 40 606 l 2,50,51
 40 710 40 710 80 748 c 0,52,53
 108 774 108 774 208 804 c 0,54,55
 402 860 402 860 560 860 c 0,56,57
 588 860 588 860 612 858 c 1,58,-1
 612 582 l 2,59,60
 612 482 612 482 722 478 c 1,61,-1
 722 352 l 2,62,63
 722 268 722 268 674 220 c 1,64,65
 818 254 818 254 818 280 c 2,66,-1
 818 520 l 1,67,68
 782 490 782 490 700 490 c 0,69,70
 670 490 670 490 649 512 c 128,-1,71
 628 534 628 534 628 564 c 2,72,-1
 628 1138 l 2,73,74
 628 1202 628 1202 656 1231 c 128,-1,75
 684 1260 684 1260 748 1276 c 0,76,77
 894 1314 894 1314 918 1314 c 0,78,79
 1016 1314 1016 1314 1016 1192 c 2,80,-1
 1016 1040 l 2,0,1
892 1050 m 1,81,-1
 892 1120 l 1,82,-1
 768 1078 l 1,83,-1
 768 1018 l 1,84,85
 824 1010 824 1010 892 1050 c 1,81,-1
336 280 m 1,86,-1
 336 346 l 1,87,88
 284 330 284 330 186 300 c 1,89,-1
 186 250 l 1,90,91
 260 250 260 250 336 280 c 1,86,-1
EndSplineSet
Ligature2: "'abvs' Above Base Substitutions lookup 6 subtable" tm_va tm_iikaar
EndChar

StartChar: tm_ss_iikaar
Encoding: 65580 -1 160
Width: 1318
GlyphClass: 2
Flags: W
LayerCount: 2
Fore
SplineSet
1288 48 m 1,0,1
 1172 28 1172 28 966 -2 c 1,2,3
 896 -80 896 -80 690 -374 c 1,4,5
 652 -366 652 -366 612 -346 c 0,6,7
 558 -320 558 -320 556 -294 c 1,8,9
 706 -112 706 -112 770 -24 c 1,10,-1
 524 -36 l 1,11,12
 484 22 484 22 484 174 c 0,13,14
 484 224 484 224 488 282 c 1,15,16
 506 286 506 286 527 305 c 128,-1,17
 548 324 548 324 548 350 c 2,18,-1
 548 570 l 2,19,20
 548 618 548 618 516 618 c 0,21,22
 452 618 452 618 345 595 c 128,-1,23
 238 572 238 572 188 550 c 1,24,-1
 188 504 l 1,25,26
 286 542 286 542 374 542 c 0,27,28
 406 542 406 542 430 508 c 0,29,30
 448 478 448 478 448 448 c 2,31,-1
 448 218 l 2,32,33
 448 64 448 64 404 22 c 128,-1,34
 360 -20 360 -20 180 -20 c 0,35,36
 40 -20 40 -20 40 124 c 2,37,-1
 40 604 l 2,38,39
 40 698 40 698 68 724 c 0,40,41
 104 758 104 758 232 798 c 0,42,43
 380 844 380 844 510 844 c 0,44,45
 622 844 622 844 657 810 c 128,-1,46
 692 776 692 776 692 684 c 2,47,-1
 692 376 l 2,48,49
 692 242 692 242 630 206 c 1,50,51
 788 206 788 206 846 214 c 1,52,53
 760 258 760 258 760 334 c 2,54,-1
 760 616 l 2,55,56
 760 736 760 736 906 772 c 1,57,58
 832 810 832 810 832 882 c 2,59,-1
 832 1194 l 2,60,61
 832 1274 832 1274 894 1314 c 0,62,63
 934 1340 934 1340 1018 1360 c 0,64,65
 1090 1378 1090 1378 1136 1378 c 0,66,67
 1172 1378 1172 1378 1198 1348 c 128,-1,68
 1224 1318 1224 1318 1224 1278 c 2,69,-1
 1224 1078 l 2,70,71
 1224 992 1224 992 1175 942 c 128,-1,72
 1126 892 1126 892 1044 892 c 0,73,74
 1016 892 1016 892 984 914 c 1,75,76
 972 894 972 894 972 870 c 0,77,78
 972 842 972 842 988 822 c 128,-1,79
 1004 802 1004 802 1026 802 c 2,80,-1
 1132 802 l 2,81,82
 1162 802 1162 802 1184 771 c 128,-1,83
 1206 740 1206 740 1206 698 c 2,84,-1
 1206 426 l 2,85,86
 1206 366 1206 366 1182 318 c 128,-1,87
 1158 270 1158 270 1124 258 c 1,88,89
 1190 264 1190 264 1278 288 c 1,90,91
 1304 260 1304 260 1304 160 c 0,92,93
 1304 84 1304 84 1288 48 c 1,0,1
1096 1114 m 1,94,-1
 1096 1174 l 1,95,-1
 986 1142 l 1,96,-1
 986 1074 l 1,97,-1
 1096 1114 l 1,94,-1
1048 384 m 2,98,-1
 1048 546 l 1,99,100
 970 540 970 540 918 502 c 1,101,-1
 918 322 l 1,102,103
 934 278 934 278 976 254 c 1,104,105
 1002 272 1002 272 1025 311 c 128,-1,106
 1048 350 1048 350 1048 384 c 2,98,-1
332 254 m 1,107,-1
 332 314 l 1,108,109
 316 316 316 316 264 304 c 128,-1,110
 212 292 212 292 184 278 c 1,111,-1
 184 226 l 1,112,113
 240 232 240 232 332 254 c 1,107,-1
EndSplineSet
Ligature2: "'abvs' Above Base Substitutions lookup 6 subtable" tm_ssa tm_iikaar
EndChar

StartChar: tm_s_iikaar
Encoding: 65581 -1 161
Width: 1238
GlyphClass: 2
Flags: W
LayerCount: 2
Fore
SplineSet
1258 1026 m 2,0,1
 1258 946 1258 946 1228 904 c 0,2,3
 1178 832 1178 832 1052 832 c 0,4,5
 1008 832 1008 832 988 846 c 1,6,7
 984 792 984 792 996 774 c 1,8,9
 1046 784 1046 784 1082 784 c 0,10,11
 1198 784 1198 784 1198 686 c 2,12,-1
 1198 156 l 2,13,14
 1198 8 1198 8 1128 -29 c 128,-1,15
 1058 -66 1058 -66 876 -66 c 0,16,17
 816 -66 816 -66 796 -44 c 0,18,19
 768 -14 768 -14 768 76 c 0,20,21
 768 126 768 126 772 217 c 128,-1,22
 776 308 776 308 776 334 c 0,23,24
 776 422 776 422 776 430 c 0,25,26
 770 470 770 470 744 470 c 0,27,28
 670 470 670 470 670 402 c 2,29,-1
 670 18 l 2,30,31
 670 -18 670 -18 656 -32 c 128,-1,32
 642 -46 642 -46 592 -46 c 0,33,34
 528 -46 528 -46 528 12 c 2,35,-1
 528 540 l 2,36,37
 528 574 528 574 492 574 c 0,38,39
 434 574 434 574 321 535 c 128,-1,40
 208 496 208 496 180 472 c 1,41,-1
 180 442 l 1,42,43
 284 486 284 486 350 486 c 0,44,45
 472 486 472 486 472 374 c 2,46,-1
 472 160 l 2,47,48
 472 70 472 70 412 24 c 0,49,50
 332 -38 332 -38 160 -38 c 0,51,52
 92 -38 92 -38 66 -11 c 128,-1,53
 40 16 40 16 40 84 c 2,54,-1
 40 550 l 2,55,56
 40 630 40 630 94 674 c 0,57,58
 164 732 164 732 302 766 c 0,59,60
 430 796 430 796 572 796 c 0,61,62
 686 796 686 796 676 694 c 1,63,64
 764 732 764 732 844 742 c 1,65,66
 842 678 842 678 842 652 c 0,67,68
 842 580 842 580 858 548 c 128,-1,69
 874 516 874 516 924 508 c 1,70,-1
 924 228 l 2,71,72
 924 204 924 204 926 202 c 0,73,74
 930 190 930 190 958 190 c 0,75,76
 1056 190 1056 190 1056 266 c 2,77,-1
 1056 522 l 2,78,79
 1056 542 1056 542 1040 542 c 0,80,81
 1032 542 1032 542 1002 535 c 128,-1,82
 972 528 972 528 950 528 c 0,83,84
 862 528 862 528 862 586 c 2,85,-1
 862 1144 l 2,86,87
 862 1214 862 1214 910 1252 c 0,88,89
 938 1274 938 1274 1032 1294 c 0,90,91
 1114 1312 1114 1312 1154 1312 c 0,92,93
 1196 1312 1196 1312 1227 1277 c 128,-1,94
 1258 1242 1258 1242 1258 1198 c 2,95,-1
 1258 1026 l 2,0,1
1118 1048 m 1,96,-1
 1118 1108 l 1,97,98
 1058 1108 1058 1108 994 1068 c 1,99,-1
 994 1014 l 1,100,101
 1062 1012 1062 1012 1118 1048 c 1,96,-1
348 208 m 1,102,-1
 348 268 l 1,103,104
 270 278 270 278 182 222 c 1,105,-1
 182 174 l 1,106,107
 290 170 290 170 348 208 c 1,102,-1
EndSplineSet
Ligature2: "'abvs' Above Base Substitutions lookup 5 subtable" tm_sa tm_iikaar
EndChar

StartChar: tm_h_iikaar
Encoding: 65582 -1 162
Width: 1636
GlyphClass: 2
Flags: W
LayerCount: 2
Fore
SplineSet
1644 1000 m 2,0,1
 1644 862 1644 862 1494 862 c 0,2,3
 1434 862 1434 862 1408 880 c 1,4,-1
 1408 820 l 2,5,6
 1408 784 1408 784 1508 784 c 0,7,8
 1596 784 1596 784 1596 670 c 2,9,-1
 1596 -116 l 2,10,11
 1596 -228 1596 -228 938 -338 c 0,12,13
 332 -438 332 -438 32 -422 c 1,14,15
 -2 -390 -2 -390 -2 -296 c 0,16,17
 -2 -218 -2 -218 20 -188 c 1,18,19
 836 -194 836 -194 1334 -20 c 0,20,21
 1442 18 1442 18 1442 88 c 2,22,-1
 1442 528 l 1,23,24
 1338 528 1338 528 1226 468 c 1,25,-1
 1226 20 l 1,26,27
 1188 -28 1188 -28 1110 -28 c 0,28,29
 1072 -28 1072 -28 1072 8 c 2,30,-1
 1072 502 l 2,31,32
 1072 536 1072 536 1046 536 c 0,33,34
 1002 536 1002 536 966 506 c 1,35,-1
 966 40 l 2,36,37
 966 -58 966 -58 504 -86 c 1,38,39
 496 22 496 22 508 264 c 1,40,41
 522 266 522 266 543 279 c 128,-1,42
 564 292 564 292 564 302 c 2,43,-1
 564 584 l 1,44,45
 540 590 540 590 504 590 c 0,46,47
 434 590 434 590 338 566 c 0,48,49
 252 544 252 544 210 520 c 1,50,-1
 210 480 l 1,51,52
 340 516 340 516 392 516 c 0,53,54
 482 516 482 516 482 400 c 2,55,-1
 482 170 l 2,56,57
 482 62 482 62 438 12 c 0,58,59
 416 -12 416 -12 339 -30 c 128,-1,60
 262 -48 262 -48 190 -48 c 0,61,62
 40 -48 40 -48 40 70 c 2,63,-1
 40 428 l 2,64,65
 40 652 40 652 83 695 c 128,-1,66
 126 738 126 738 270 778 c 0,67,68
 422 820 422 820 558 820 c 0,69,70
 708 820 708 820 708 712 c 2,71,-1
 708 380 l 2,72,73
 708 194 708 194 652 176 c 1,74,75
 756 182 756 182 812 208 c 1,76,-1
 812 684 l 2,77,78
 812 740 812 740 920 774 c 0,79,80
 1012 804 1012 804 1116 804 c 0,81,82
 1158 804 1158 804 1190 782 c 128,-1,83
 1222 760 1222 760 1222 724 c 0,84,85
 1222 710 1222 710 1216 694 c 1,86,87
 1262 740 1262 740 1322 752 c 1,88,89
 1254 782 1254 782 1254 866 c 2,90,-1
 1254 1162 l 2,91,92
 1254 1238 1254 1238 1298 1270 c 0,93,94
 1322 1288 1322 1288 1400 1304 c 0,95,96
 1472 1318 1472 1318 1526 1318 c 0,97,98
 1644 1318 1644 1318 1644 1212 c 2,99,-1
 1644 1000 l 2,0,1
1512 1066 m 1,100,-1
 1512 1126 l 1,101,102
 1472 1130 1472 1130 1412 1100 c 1,103,-1
 1412 1046 l 1,104,105
 1476 1042 1476 1042 1512 1066 c 1,100,-1
360 238 m 1,106,-1
 360 296 l 1,107,108
 288 300 288 300 196 254 c 1,109,-1
 196 208 l 1,110,111
 292 204 292 204 360 238 c 1,106,-1
EndSplineSet
Ligature2: "'abvs' Above Base Substitutions lookup 6 subtable" tm_ha tm_iikaar
EndChar

StartChar: tm_k_ukaar
Encoding: 65583 -1 163
Width: 1104
GlyphClass: 2
Flags: W
LayerCount: 2
Fore
SplineSet
1074 -48 m 2,0,1
 1074 -244 1074 -244 1027 -271 c 128,-1,2
 980 -298 980 -298 719 -329 c 128,-1,3
 458 -360 458 -360 304 -360 c 0,4,5
 180 -360 180 -360 150 -356 c 0,6,7
 40 -344 40 -344 40 -290 c 2,8,-1
 40 530 l 2,9,10
 40 650 40 650 78 696 c 128,-1,11
 116 742 116 742 256 772 c 1,12,13
 280 660 280 660 280 502 c 1,14,15
 186 488 186 488 186 360 c 2,16,-1
 186 -44 l 2,17,18
 186 -96 186 -96 204 -110 c 128,-1,19
 222 -124 222 -124 274 -124 c 0,20,21
 450 -124 450 -124 632 -110 c 0,22,23
 838 -92 838 -92 890 -68 c 0,24,25
 914 -56 914 -56 914 -20 c 2,26,-1
 914 344 l 1,27,-1
 768 330 l 1,28,-1
 768 82 l 2,29,30
 768 50 768 50 733 34 c 128,-1,31
 698 18 698 18 598 2 c 0,32,33
 492 -16 492 -16 420 -16 c 0,34,35
 268 -16 268 -16 268 82 c 2,36,-1
 268 366 l 2,37,38
 268 454 268 454 338 482 c 1,39,-1
 338 722 l 1,40,41
 734 854 734 854 920 854 c 0,42,43
 952 854 952 854 971 817 c 128,-1,44
 990 780 990 780 990 736 c 0,45,46
 990 660 990 660 962 632 c 1,47,48
 946 638 946 638 916 638 c 0,49,50
 850 638 850 638 768 616 c 1,51,-1
 768 560 l 1,52,53
 932 584 932 584 970 584 c 0,54,55
 1030 584 1030 584 1052 566 c 128,-1,56
 1074 548 1074 548 1074 498 c 2,57,-1
 1074 -48 l 2,0,1
632 538 m 1,58,-1
 632 596 l 1,59,60
 580 594 580 594 468 548 c 1,61,-1
 468 504 l 1,62,63
 582 540 582 540 632 538 c 1,58,-1
632 252 m 1,64,-1
 632 316 l 1,65,66
 518 288 518 288 396 272 c 1,67,-1
 396 220 l 1,68,69
 468 220 468 220 632 252 c 1,64,-1
EndSplineSet
Ligature2: "'psts' Post Base Substitutions lookup 7 subtable" tm_ka tm_ukaar
EndChar

